SplineFontDB: 3.2
FontName: BelerenSmallCaps-Bold
FullName: Beleren Small Caps Bold
FamilyName: Beleren Small Caps
Weight: Bold
Copyright: Copyright (c) 2013 Wizards of the Coast, a Hasbro Subsidiary. All rights reserved.
Version: 1.000
ItalicAngle: 0
UnderlinePosition: -204
UnderlineWidth: 102
Ascent: 1638
Descent: 410
InvalidEm: 0
sfntRevision: 0x00010000
LayerCount: 2
Layer: 0 1 "Back" 1
Layer: 1 1 "Fore" 0
XUID: [1021 918 200422042 31572]
StyleMap: 0x0020
FSType: 4
OS2Version: 2
OS2_WeightWidthSlopeOnly: 0
OS2_UseTypoMetrics: 0
CreationTime: 1368805890
ModificationTime: 1605545888
PfmFamily: 17
TTFWeight: 700
TTFWidth: 5
LineGap: 0
VLineGap: 0
Panose: 2 0 8 3 0 0 0 2 0 4
OS2TypoAscent: 1638
OS2TypoAOffset: 0
OS2TypoDescent: -410
OS2TypoDOffset: 0
OS2TypoLinegap: 0
OS2WinAscent: 1917
OS2WinAOffset: 0
OS2WinDescent: 552
OS2WinDOffset: 0
HheadAscent: 1917
HheadAOffset: 0
HheadDescent: -552
HheadDOffset: 0
OS2SubXSize: 1434
OS2SubYSize: 1331
OS2SubXOff: 0
OS2SubYOff: 287
OS2SupXSize: 1434
OS2SupYSize: 1331
OS2SupXOff: 0
OS2SupYOff: 623
OS2StrikeYSize: 102
OS2StrikeYPos: 512
OS2CapHeight: 1434
OS2XHeight: 1106
OS2Vendor: 'DELV'
OS2CodePages: 20000001.00000000
OS2UnicodeRanges: 00000001.00000000.00000000.00000000

StartChar: .notdef
Encoding: 65536 -1 0
Width: 748
Flags: W
LayerCount: 2
Fore
SplineSet
68 0 m 1,0,-1
 68 1365 l 1,1,-1
 612 1365 l 1,2,-1
 612 0 l 1,3,-1
 68 0 l 1,0,-1
136 68 m 1,4,-1
 544 68 l 1,5,-1
 544 1297 l 1,6,-1
 136 1297 l 1,7,-1
 136 68 l 1,4,-1
EndSplineSet
Validated: 1
EndChar

StartChar: exclam
Encoding: 33 33 5
Width: 606
GlyphClass: 2
Flags: W
LayerCount: 2
Fore
SplineSet
109 166 m 1,0,-1
 109 174 l 1,1,2
 154 189 154 189 218 254 c 128,-1,3
 282 319 282 319 299 367 c 1,4,-1
 307 367 l 1,5,6
 324 319 324 319 388.5 254 c 128,-1,7
 453 189 453 189 498 174 c 1,8,-1
 498 166 l 1,9,-1
 307 -20 l 1,10,-1
 299 -20 l 1,11,-1
 109 166 l 1,0,-1
145 1434 m 1,12,-1
 463 1434 l 1,13,-1
 401 659 l 1,14,-1
 307 422 l 1,15,-1
 299 422 l 1,16,-1
 205 659 l 1,17,-1
 145 1434 l 1,12,-1
EndSplineSet
Validated: 1
Position2: "'cpsp' Capital Spacing in Latin lookup 1 subtable" dx=16 dy=0 dh=16 dv=0
EndChar

StartChar: quotedbl
Encoding: 34 34 6
Width: 829
GlyphClass: 2
Flags: W
LayerCount: 2
Fore
SplineSet
102 1516 m 1,0,-1
 338 1516 l 1,1,-1
 297 1110 l 1,2,-1
 225 942 l 1,3,-1
 217 942 l 1,4,-1
 143 1110 l 1,5,-1
 102 1516 l 1,0,-1
492 1516 m 1,6,-1
 727 1516 l 1,7,-1
 686 1110 l 1,8,-1
 614 942 l 1,9,-1
 606 942 l 1,10,-1
 532 1110 l 1,11,-1
 492 1516 l 1,6,-1
EndSplineSet
Validated: 1
EndChar

StartChar: numbersign
Encoding: 35 35 7
Width: 1269
GlyphClass: 2
Flags: W
LayerCount: 2
Fore
SplineSet
123 395 m 1,0,-1
 123 600 l 1,1,-1
 342 600 l 1,2,-1
 399 805 l 1,3,-1
 123 805 l 1,4,-1
 123 1010 l 1,5,-1
 455 1010 l 1,6,-1
 578 1454 l 1,7,-1
 735 1454 l 1,8,-1
 612 1010 l 1,9,-1
 817 1010 l 1,10,-1
 940 1454 l 1,11,-1
 1098 1454 l 1,12,-1
 975 1010 l 1,13,-1
 1147 1010 l 1,14,-1
 1147 805 l 1,15,-1
 920 805 l 1,16,-1
 862 600 l 1,17,-1
 1147 600 l 1,18,-1
 1147 395 l 1,19,-1
 807 395 l 1,20,-1
 692 -20 l 1,21,-1
 535 -20 l 1,22,-1
 649 395 l 1,23,-1
 444 395 l 1,24,-1
 330 -20 l 1,25,-1
 172 -20 l 1,26,-1
 287 395 l 1,27,-1
 123 395 l 1,0,-1
500 600 m 1,28,-1
 705 600 l 1,29,-1
 762 805 l 1,30,-1
 557 805 l 1,31,-1
 500 600 l 1,28,-1
EndSplineSet
Validated: 1
EndChar

StartChar: dollar
Encoding: 36 36 8
Width: 927
GlyphClass: 2
Flags: W
LayerCount: 2
Fore
SplineSet
82 981 m 0,0,1
 82 1111 82 1111 166.5 1191 c 128,-1,2
 251 1271 251 1271 391 1286 c 1,3,-1
 465 1606 l 1,4,-1
 475 1606 l 1,5,-1
 551 1282 l 1,6,7
 677 1264 677 1264 770 1212 c 1,8,-1
 743 915 l 1,9,-1
 735 915 l 1,10,11
 699 1050 699 1050 634.5 1129 c 128,-1,12
 570 1208 570 1208 475 1208 c 0,13,14
 411 1208 411 1208 374.5 1172 c 128,-1,15
 338 1136 338 1136 338 1077 c 0,16,17
 338 1032 338 1032 366.5 992.5 c 128,-1,18
 395 953 395 953 441 921.5 c 128,-1,19
 487 890 487 890 542 857.5 c 128,-1,20
 597 825 597 825 652 787 c 128,-1,21
 707 749 707 749 753 704.5 c 128,-1,22
 799 660 799 660 827.5 596.5 c 128,-1,23
 856 533 856 533 856 457 c 0,24,25
 856 336 856 336 772 257 c 128,-1,26
 688 178 688 178 551 154 c 1,27,-1
 475 -170 l 1,28,-1
 465 -170 l 1,29,-1
 391 143 l 1,30,31
 233 152 233 152 96 227 c 1,32,-1
 121 528 l 1,33,-1
 129 528 l 1,34,35
 148 468 148 468 173 418 c 128,-1,36
 198 368 198 368 233 322.5 c 128,-1,37
 268 277 268 277 316.5 251 c 128,-1,38
 365 225 365 225 422 225 c 0,39,40
 492 225 492 225 536 265 c 128,-1,41
 580 305 580 305 580 377 c 0,42,43
 580 426 580 426 552.5 468.5 c 128,-1,44
 525 511 525 511 481 543.5 c 128,-1,45
 437 576 437 576 384 608.5 c 128,-1,46
 331 641 331 641 278 677 c 128,-1,47
 225 713 225 713 181 754 c 128,-1,48
 137 795 137 795 109.5 853.5 c 128,-1,49
 82 912 82 912 82 981 c 0,0,1
EndSplineSet
Validated: 1
EndChar

StartChar: percent
Encoding: 37 37 9
Width: 1761
GlyphClass: 2
Flags: W
LayerCount: 2
Fore
SplineSet
72 1032 m 128,-1,1
 72 1229 72 1229 170.5 1341.5 c 128,-1,2
 269 1454 269 1454 418 1454 c 128,-1,3
 567 1454 567 1454 665.5 1341.5 c 128,-1,4
 764 1229 764 1229 764 1032 c 128,-1,5
 764 835 764 835 665.5 722.5 c 128,-1,6
 567 610 567 610 418 610 c 128,-1,7
 269 610 269 610 170.5 722.5 c 128,-1,0
 72 835 72 835 72 1032 c 128,-1,1
283 1032 m 128,-1,9
 283 946 283 946 288 889 c 128,-1,10
 293 832 293 832 307 784.5 c 128,-1,11
 321 737 321 737 348.5 714.5 c 128,-1,12
 376 692 376 692 418 692 c 128,-1,13
 460 692 460 692 487.5 714.5 c 128,-1,14
 515 737 515 737 529 784.5 c 128,-1,15
 543 832 543 832 548 889 c 128,-1,16
 553 946 553 946 553 1032 c 128,-1,17
 553 1118 553 1118 548 1175 c 128,-1,18
 543 1232 543 1232 529 1279.5 c 128,-1,19
 515 1327 515 1327 487.5 1349.5 c 128,-1,20
 460 1372 460 1372 418 1372 c 128,-1,21
 376 1372 376 1372 348.5 1349.5 c 128,-1,22
 321 1327 321 1327 307 1279.5 c 128,-1,23
 293 1232 293 1232 288 1175 c 128,-1,8
 283 1118 283 1118 283 1032 c 128,-1,9
328 6 m 1,24,-1
 1270 1434 l 1,25,-1
 1436 1434 l 1,26,-1
 1438 1427 l 1,27,-1
 496 0 l 1,28,-1
 330 0 l 1,29,-1
 328 6 l 1,24,-1
997 401 m 128,-1,31
 997 598 997 598 1095.5 710.5 c 128,-1,32
 1194 823 1194 823 1343 823 c 128,-1,33
 1492 823 1492 823 1591 710.5 c 128,-1,34
 1690 598 1690 598 1690 401 c 128,-1,35
 1690 204 1690 204 1591 92 c 128,-1,36
 1492 -20 1492 -20 1343 -20 c 128,-1,37
 1194 -20 1194 -20 1095.5 92 c 128,-1,30
 997 204 997 204 997 401 c 128,-1,31
1208 401 m 128,-1,39
 1208 315 1208 315 1213 258 c 128,-1,40
 1218 201 1218 201 1232 153.5 c 128,-1,41
 1246 106 1246 106 1273.5 83.5 c 128,-1,42
 1301 61 1301 61 1343 61 c 128,-1,43
 1385 61 1385 61 1412.5 83.5 c 128,-1,44
 1440 106 1440 106 1454.5 153 c 128,-1,45
 1469 200 1469 200 1474 257.5 c 128,-1,46
 1479 315 1479 315 1479 401 c 128,-1,47
 1479 487 1479 487 1474 544.5 c 128,-1,48
 1469 602 1469 602 1454.5 649 c 128,-1,49
 1440 696 1440 696 1412.5 718.5 c 128,-1,50
 1385 741 1385 741 1343 741 c 128,-1,51
 1301 741 1301 741 1273.5 718.5 c 128,-1,52
 1246 696 1246 696 1232 648.5 c 128,-1,53
 1218 601 1218 601 1213 544 c 128,-1,38
 1208 487 1208 487 1208 401 c 128,-1,39
EndSplineSet
Validated: 1
EndChar

StartChar: ampersand
Encoding: 38 38 10
Width: 1290
GlyphClass: 2
Flags: W
LayerCount: 2
Fore
SplineSet
72 389 m 0,0,1
 72 536 72 536 147.5 638.5 c 128,-1,2
 223 741 223 741 342 793 c 1,3,-1
 334 805 l 1,4,5
 215 965 215 965 215 1094 c 0,6,7
 215 1211 215 1211 309.5 1293.5 c 128,-1,8
 404 1376 404 1376 569 1376 c 0,9,10
 668 1376 668 1376 761.5 1341.5 c 128,-1,11
 855 1307 855 1307 926 1255 c 1,12,-1
 788 1014 l 1,13,-1
 782 1016 l 1,14,15
 782 1132 782 1132 730 1198 c 128,-1,16
 678 1264 678 1264 586 1264 c 0,17,18
 526 1264 526 1264 487.5 1227.5 c 128,-1,19
 449 1191 449 1191 449 1139 c 0,20,21
 449 1117 449 1117 453 1099 c 128,-1,22
 457 1081 457 1081 473 1054.5 c 128,-1,23
 489 1028 489 1028 497.5 1015.5 c 128,-1,24
 506 1003 506 1003 537.5 962 c 128,-1,25
 569 921 569 921 582 903 c 2,26,-1
 997 354 l 1,27,28
 1022 390 1022 390 1022 461 c 0,29,30
 1022 551 1022 551 979 615.5 c 128,-1,31
 936 680 936 680 852 709 c 1,32,-1
 852 717 l 1,33,-1
 1198 717 l 1,34,35
 1194 444 1194 444 1061 268 c 1,36,-1
 1260 6 l 1,37,-1
 1255 0 l 1,38,-1
 934 0 l 1,39,-1
 874 80 l 1,40,41
 796 30 796 30 713.5 5 c 128,-1,42
 631 -20 631 -20 522 -20 c 0,43,44
 321 -20 321 -20 196.5 88 c 128,-1,45
 72 196 72 196 72 389 c 0,0,1
328 451 m 0,46,47
 328 301 328 301 414.5 207 c 128,-1,48
 501 113 501 113 645 113 c 0,49,50
 742 113 742 113 819 154 c 1,51,-1
 412 700 l 1,52,53
 373 663 373 663 350.5 594 c 128,-1,54
 328 525 328 525 328 451 c 0,46,47
EndSplineSet
Validated: 1
Position2: "'cpsp' Capital Spacing in Latin lookup 1 subtable" dx=16 dy=0 dh=16 dv=0
EndChar

StartChar: quotesingle
Encoding: 39 39 11
Width: 440
GlyphClass: 2
Flags: W
LayerCount: 2
Fore
SplineSet
102 1516 m 1,0,-1
 338 1516 l 1,1,-1
 297 1110 l 1,2,-1
 225 942 l 1,3,-1
 217 942 l 1,4,-1
 143 1110 l 1,5,-1
 102 1516 l 1,0,-1
EndSplineSet
Validated: 1
EndChar

StartChar: parenleft
Encoding: 40 40 12
Width: 710
GlyphClass: 2
Flags: W
LayerCount: 2
Fore
SplineSet
113 561 m 0,0,1
 113 723 113 723 151 871.5 c 128,-1,2
 189 1020 189 1020 247.5 1127.5 c 128,-1,3
 306 1235 306 1235 380 1322 c 128,-1,4
 454 1409 454 1409 522.5 1460.5 c 128,-1,5
 591 1512 591 1512 653 1536 c 1,6,-1
 659 1534 l 1,7,8
 638 1508 638 1508 628.5 1495.5 c 128,-1,9
 619 1483 619 1483 587 1432 c 128,-1,10
 555 1381 555 1381 535 1335 c 128,-1,11
 515 1289 515 1289 486.5 1205.5 c 128,-1,12
 458 1122 458 1122 441 1034.5 c 128,-1,13
 424 947 424 947 411.5 822.5 c 128,-1,14
 399 698 399 698 399 561 c 0,15,16
 399 425 399 425 411.5 301 c 128,-1,17
 424 177 424 177 441 90 c 128,-1,18
 458 3 458 3 487 -80.5 c 128,-1,19
 516 -164 516 -164 535.5 -209.5 c 128,-1,20
 555 -255 555 -255 587 -306 c 128,-1,21
 619 -357 619 -357 628.5 -369.5 c 128,-1,22
 638 -382 638 -382 659 -408 c 1,23,-1
 653 -410 l 1,24,25
 602 -390 602 -390 545.5 -350.5 c 128,-1,26
 489 -311 489 -311 427.5 -251 c 128,-1,27
 366 -191 366 -191 310.5 -107.5 c 128,-1,28
 255 -24 255 -24 210.5 74 c 128,-1,29
 166 172 166 172 139.5 298.5 c 128,-1,30
 113 425 113 425 113 561 c 0,0,1
EndSplineSet
Validated: 1
Position2: "'cpsp' Capital Spacing in Latin lookup 1 subtable" dx=16 dy=0 dh=16 dv=0
EndChar

StartChar: parenright
Encoding: 41 41 13
Width: 710
GlyphClass: 2
Flags: W
LayerCount: 2
Fore
SplineSet
51 -408 m 1,0,1
 72 -382 72 -382 81.5 -369.5 c 128,-1,2
 91 -357 91 -357 123 -306 c 128,-1,3
 155 -255 155 -255 175 -209 c 128,-1,4
 195 -163 195 -163 223.5 -79.5 c 128,-1,5
 252 4 252 4 269 91.5 c 128,-1,6
 286 179 286 179 298.5 303.5 c 128,-1,7
 311 428 311 428 311 565 c 0,8,9
 311 701 311 701 298.5 825 c 128,-1,10
 286 949 286 949 269 1036 c 128,-1,11
 252 1123 252 1123 223 1206.5 c 128,-1,12
 194 1290 194 1290 174.5 1335.5 c 128,-1,13
 155 1381 155 1381 123 1432 c 128,-1,14
 91 1483 91 1483 81.5 1495.5 c 128,-1,15
 72 1508 72 1508 51 1534 c 1,16,-1
 57 1536 l 1,17,18
 119 1512 119 1512 187.5 1461 c 128,-1,19
 256 1410 256 1410 330.5 1323 c 128,-1,20
 405 1236 405 1236 463.5 1129.5 c 128,-1,21
 522 1023 522 1023 560 875 c 128,-1,22
 598 727 598 727 598 565 c 128,-1,23
 598 403 598 403 560 254.5 c 128,-1,24
 522 106 522 106 463.5 -1.5 c 128,-1,25
 405 -109 405 -109 330.5 -196 c 128,-1,26
 256 -283 256 -283 187.5 -334.5 c 128,-1,27
 119 -386 119 -386 57 -410 c 1,28,-1
 51 -408 l 1,0,1
EndSplineSet
Validated: 1
Position2: "'cpsp' Capital Spacing in Latin lookup 1 subtable" dx=16 dy=0 dh=16 dv=0
EndChar

StartChar: asterisk
Encoding: 42 42 14
Width: 1001
VWidth: 1832
GlyphClass: 2
Flags: W
LayerCount: 2
Fore
SplineSet
552 728 m 1,0,-1
 244 515 l 1,1,-1
 362 860 l 1,2,-1
 55 1076 l 1,3,-1
 435 1074 l 1,4,-1
 552 1424 l 1,5,-1
 670 1074 l 1,6,-1
 1053 1076 l 1,7,-1
 742 860 l 1,8,-1
 862 515 l 1,9,-1
 552 728 l 1,0,-1
EndSplineSet
Validated: 1
PairPos2: "'kern' Horizontal Kerning in Latin lookup 0 per glyph data 1" Ydieresis dx=0 dy=0 dh=30 dv=0 dx=0 dy=0 dh=0 dv=0
PairPos2: "'kern' Horizontal Kerning in Latin lookup 0 per glyph data 1" Ydieresis dx=0 dy=0 dh=30 dv=0 dx=0 dy=0 dh=0 dv=0
PairPos2: "'kern' Horizontal Kerning in Latin lookup 0 per glyph data 1" Ydieresis dx=0 dy=0 dh=30 dv=0 dx=0 dy=0 dh=0 dv=0
PairPos2: "'kern' Horizontal Kerning in Latin lookup 0 per glyph data 1" Ydieresis dx=0 dy=0 dh=30 dv=0 dx=0 dy=0 dh=0 dv=0
PairPos2: "'kern' Horizontal Kerning in Latin lookup 0 per glyph data 1" Ydieresis dx=0 dy=0 dh=30 dv=0 dx=0 dy=0 dh=0 dv=0
PairPos2: "'kern' Horizontal Kerning in Latin lookup 0 per glyph data 1" Ydieresis dx=0 dy=0 dh=30 dv=0 dx=0 dy=0 dh=0 dv=0
PairPos2: "'kern' Horizontal Kerning in Latin lookup 0 per glyph data 1" ydieresis dx=0 dy=0 dh=59 dv=0 dx=0 dy=0 dh=0 dv=0
PairPos2: "'kern' Horizontal Kerning in Latin lookup 0 per glyph data 1" ydieresis dx=0 dy=0 dh=59 dv=0 dx=0 dy=0 dh=0 dv=0
PairPos2: "'kern' Horizontal Kerning in Latin lookup 0 per glyph data 1" ydieresis dx=0 dy=0 dh=59 dv=0 dx=0 dy=0 dh=0 dv=0
PairPos2: "'kern' Horizontal Kerning in Latin lookup 0 per glyph data 1" ydieresis dx=0 dy=0 dh=59 dv=0 dx=0 dy=0 dh=0 dv=0
PairPos2: "'kern' Horizontal Kerning in Latin lookup 0 per glyph data 1" ydieresis dx=0 dy=0 dh=59 dv=0 dx=0 dy=0 dh=0 dv=0
PairPos2: "'kern' Horizontal Kerning in Latin lookup 0 per glyph data 1" ydieresis dx=0 dy=0 dh=59 dv=0 dx=0 dy=0 dh=0 dv=0
PairPos2: "'kern' Horizontal Kerning in Latin lookup 0 per glyph data 1" yacute dx=0 dy=0 dh=59 dv=0 dx=0 dy=0 dh=0 dv=0
PairPos2: "'kern' Horizontal Kerning in Latin lookup 0 per glyph data 1" yacute dx=0 dy=0 dh=59 dv=0 dx=0 dy=0 dh=0 dv=0
PairPos2: "'kern' Horizontal Kerning in Latin lookup 0 per glyph data 1" yacute dx=0 dy=0 dh=59 dv=0 dx=0 dy=0 dh=0 dv=0
PairPos2: "'kern' Horizontal Kerning in Latin lookup 0 per glyph data 1" yacute dx=0 dy=0 dh=59 dv=0 dx=0 dy=0 dh=0 dv=0
PairPos2: "'kern' Horizontal Kerning in Latin lookup 0 per glyph data 1" yacute dx=0 dy=0 dh=59 dv=0 dx=0 dy=0 dh=0 dv=0
PairPos2: "'kern' Horizontal Kerning in Latin lookup 0 per glyph data 1" yacute dx=0 dy=0 dh=59 dv=0 dx=0 dy=0 dh=0 dv=0
PairPos2: "'kern' Horizontal Kerning in Latin lookup 0 per glyph data 1" aacute dx=0 dy=0 dh=-141 dv=0 dx=0 dy=0 dh=0 dv=0
PairPos2: "'kern' Horizontal Kerning in Latin lookup 0 per glyph data 1" aacute dx=0 dy=0 dh=-141 dv=0 dx=0 dy=0 dh=0 dv=0
PairPos2: "'kern' Horizontal Kerning in Latin lookup 0 per glyph data 1" aacute dx=0 dy=0 dh=-141 dv=0 dx=0 dy=0 dh=0 dv=0
PairPos2: "'kern' Horizontal Kerning in Latin lookup 0 per glyph data 1" aacute dx=0 dy=0 dh=-141 dv=0 dx=0 dy=0 dh=0 dv=0
PairPos2: "'kern' Horizontal Kerning in Latin lookup 0 per glyph data 1" aacute dx=0 dy=0 dh=-141 dv=0 dx=0 dy=0 dh=0 dv=0
PairPos2: "'kern' Horizontal Kerning in Latin lookup 0 per glyph data 1" aacute dx=0 dy=0 dh=-141 dv=0 dx=0 dy=0 dh=0 dv=0
PairPos2: "'kern' Horizontal Kerning in Latin lookup 0 per glyph data 1" Yacute dx=0 dy=0 dh=30 dv=0 dx=0 dy=0 dh=0 dv=0
PairPos2: "'kern' Horizontal Kerning in Latin lookup 0 per glyph data 1" Yacute dx=0 dy=0 dh=30 dv=0 dx=0 dy=0 dh=0 dv=0
PairPos2: "'kern' Horizontal Kerning in Latin lookup 0 per glyph data 1" Yacute dx=0 dy=0 dh=30 dv=0 dx=0 dy=0 dh=0 dv=0
PairPos2: "'kern' Horizontal Kerning in Latin lookup 0 per glyph data 1" Yacute dx=0 dy=0 dh=30 dv=0 dx=0 dy=0 dh=0 dv=0
PairPos2: "'kern' Horizontal Kerning in Latin lookup 0 per glyph data 1" Yacute dx=0 dy=0 dh=30 dv=0 dx=0 dy=0 dh=0 dv=0
PairPos2: "'kern' Horizontal Kerning in Latin lookup 0 per glyph data 1" Yacute dx=0 dy=0 dh=30 dv=0 dx=0 dy=0 dh=0 dv=0
PairPos2: "'kern' Horizontal Kerning in Latin lookup 0 per glyph data 1" Aring dx=0 dy=0 dh=-111 dv=0 dx=0 dy=0 dh=0 dv=0
PairPos2: "'kern' Horizontal Kerning in Latin lookup 0 per glyph data 1" Aring dx=0 dy=0 dh=-111 dv=0 dx=0 dy=0 dh=0 dv=0
PairPos2: "'kern' Horizontal Kerning in Latin lookup 0 per glyph data 1" Aring dx=0 dy=0 dh=-111 dv=0 dx=0 dy=0 dh=0 dv=0
PairPos2: "'kern' Horizontal Kerning in Latin lookup 0 per glyph data 1" Aring dx=0 dy=0 dh=-111 dv=0 dx=0 dy=0 dh=0 dv=0
PairPos2: "'kern' Horizontal Kerning in Latin lookup 0 per glyph data 1" Aring dx=0 dy=0 dh=-111 dv=0 dx=0 dy=0 dh=0 dv=0
PairPos2: "'kern' Horizontal Kerning in Latin lookup 0 per glyph data 1" Aring dx=0 dy=0 dh=-111 dv=0 dx=0 dy=0 dh=0 dv=0
PairPos2: "'kern' Horizontal Kerning in Latin lookup 0 per glyph data 1" Adieresis dx=0 dy=0 dh=-111 dv=0 dx=0 dy=0 dh=0 dv=0
PairPos2: "'kern' Horizontal Kerning in Latin lookup 0 per glyph data 1" Adieresis dx=0 dy=0 dh=-111 dv=0 dx=0 dy=0 dh=0 dv=0
PairPos2: "'kern' Horizontal Kerning in Latin lookup 0 per glyph data 1" Adieresis dx=0 dy=0 dh=-111 dv=0 dx=0 dy=0 dh=0 dv=0
PairPos2: "'kern' Horizontal Kerning in Latin lookup 0 per glyph data 1" Adieresis dx=0 dy=0 dh=-111 dv=0 dx=0 dy=0 dh=0 dv=0
PairPos2: "'kern' Horizontal Kerning in Latin lookup 0 per glyph data 1" Adieresis dx=0 dy=0 dh=-111 dv=0 dx=0 dy=0 dh=0 dv=0
PairPos2: "'kern' Horizontal Kerning in Latin lookup 0 per glyph data 1" Adieresis dx=0 dy=0 dh=-111 dv=0 dx=0 dy=0 dh=0 dv=0
PairPos2: "'kern' Horizontal Kerning in Latin lookup 0 per glyph data 1" Atilde dx=0 dy=0 dh=-111 dv=0 dx=0 dy=0 dh=0 dv=0
PairPos2: "'kern' Horizontal Kerning in Latin lookup 0 per glyph data 1" Atilde dx=0 dy=0 dh=-111 dv=0 dx=0 dy=0 dh=0 dv=0
PairPos2: "'kern' Horizontal Kerning in Latin lookup 0 per glyph data 1" Atilde dx=0 dy=0 dh=-111 dv=0 dx=0 dy=0 dh=0 dv=0
PairPos2: "'kern' Horizontal Kerning in Latin lookup 0 per glyph data 1" Atilde dx=0 dy=0 dh=-111 dv=0 dx=0 dy=0 dh=0 dv=0
PairPos2: "'kern' Horizontal Kerning in Latin lookup 0 per glyph data 1" Atilde dx=0 dy=0 dh=-111 dv=0 dx=0 dy=0 dh=0 dv=0
PairPos2: "'kern' Horizontal Kerning in Latin lookup 0 per glyph data 1" Atilde dx=0 dy=0 dh=-111 dv=0 dx=0 dy=0 dh=0 dv=0
PairPos2: "'kern' Horizontal Kerning in Latin lookup 0 per glyph data 1" Acircumflex dx=0 dy=0 dh=-111 dv=0 dx=0 dy=0 dh=0 dv=0
PairPos2: "'kern' Horizontal Kerning in Latin lookup 0 per glyph data 1" Acircumflex dx=0 dy=0 dh=-111 dv=0 dx=0 dy=0 dh=0 dv=0
PairPos2: "'kern' Horizontal Kerning in Latin lookup 0 per glyph data 1" Acircumflex dx=0 dy=0 dh=-111 dv=0 dx=0 dy=0 dh=0 dv=0
PairPos2: "'kern' Horizontal Kerning in Latin lookup 0 per glyph data 1" Acircumflex dx=0 dy=0 dh=-111 dv=0 dx=0 dy=0 dh=0 dv=0
PairPos2: "'kern' Horizontal Kerning in Latin lookup 0 per glyph data 1" Acircumflex dx=0 dy=0 dh=-111 dv=0 dx=0 dy=0 dh=0 dv=0
PairPos2: "'kern' Horizontal Kerning in Latin lookup 0 per glyph data 1" Acircumflex dx=0 dy=0 dh=-111 dv=0 dx=0 dy=0 dh=0 dv=0
PairPos2: "'kern' Horizontal Kerning in Latin lookup 0 per glyph data 1" Aacute dx=0 dy=0 dh=-111 dv=0 dx=0 dy=0 dh=0 dv=0
PairPos2: "'kern' Horizontal Kerning in Latin lookup 0 per glyph data 1" Aacute dx=0 dy=0 dh=-111 dv=0 dx=0 dy=0 dh=0 dv=0
PairPos2: "'kern' Horizontal Kerning in Latin lookup 0 per glyph data 1" Aacute dx=0 dy=0 dh=-111 dv=0 dx=0 dy=0 dh=0 dv=0
PairPos2: "'kern' Horizontal Kerning in Latin lookup 0 per glyph data 1" Aacute dx=0 dy=0 dh=-111 dv=0 dx=0 dy=0 dh=0 dv=0
PairPos2: "'kern' Horizontal Kerning in Latin lookup 0 per glyph data 1" Aacute dx=0 dy=0 dh=-111 dv=0 dx=0 dy=0 dh=0 dv=0
PairPos2: "'kern' Horizontal Kerning in Latin lookup 0 per glyph data 1" Aacute dx=0 dy=0 dh=-111 dv=0 dx=0 dy=0 dh=0 dv=0
PairPos2: "'kern' Horizontal Kerning in Latin lookup 0 per glyph data 1" Agrave dx=0 dy=0 dh=-111 dv=0 dx=0 dy=0 dh=0 dv=0
PairPos2: "'kern' Horizontal Kerning in Latin lookup 0 per glyph data 1" Agrave dx=0 dy=0 dh=-111 dv=0 dx=0 dy=0 dh=0 dv=0
PairPos2: "'kern' Horizontal Kerning in Latin lookup 0 per glyph data 1" Agrave dx=0 dy=0 dh=-111 dv=0 dx=0 dy=0 dh=0 dv=0
PairPos2: "'kern' Horizontal Kerning in Latin lookup 0 per glyph data 1" Agrave dx=0 dy=0 dh=-111 dv=0 dx=0 dy=0 dh=0 dv=0
PairPos2: "'kern' Horizontal Kerning in Latin lookup 0 per glyph data 1" Agrave dx=0 dy=0 dh=-111 dv=0 dx=0 dy=0 dh=0 dv=0
PairPos2: "'kern' Horizontal Kerning in Latin lookup 0 per glyph data 1" Agrave dx=0 dy=0 dh=-111 dv=0 dx=0 dy=0 dh=0 dv=0
PairPos2: "'kern' Horizontal Kerning in Latin lookup 0 per glyph data 1" y dx=0 dy=0 dh=59 dv=0 dx=0 dy=0 dh=0 dv=0
PairPos2: "'kern' Horizontal Kerning in Latin lookup 0 per glyph data 1" y dx=0 dy=0 dh=59 dv=0 dx=0 dy=0 dh=0 dv=0
PairPos2: "'kern' Horizontal Kerning in Latin lookup 0 per glyph data 1" y dx=0 dy=0 dh=59 dv=0 dx=0 dy=0 dh=0 dv=0
PairPos2: "'kern' Horizontal Kerning in Latin lookup 0 per glyph data 1" y dx=0 dy=0 dh=59 dv=0 dx=0 dy=0 dh=0 dv=0
PairPos2: "'kern' Horizontal Kerning in Latin lookup 0 per glyph data 1" y dx=0 dy=0 dh=59 dv=0 dx=0 dy=0 dh=0 dv=0
PairPos2: "'kern' Horizontal Kerning in Latin lookup 0 per glyph data 1" y dx=0 dy=0 dh=59 dv=0 dx=0 dy=0 dh=0 dv=0
PairPos2: "'kern' Horizontal Kerning in Latin lookup 0 per glyph data 1" x dx=0 dy=0 dh=37 dv=0 dx=0 dy=0 dh=0 dv=0
PairPos2: "'kern' Horizontal Kerning in Latin lookup 0 per glyph data 1" x dx=0 dy=0 dh=37 dv=0 dx=0 dy=0 dh=0 dv=0
PairPos2: "'kern' Horizontal Kerning in Latin lookup 0 per glyph data 1" x dx=0 dy=0 dh=37 dv=0 dx=0 dy=0 dh=0 dv=0
PairPos2: "'kern' Horizontal Kerning in Latin lookup 0 per glyph data 1" x dx=0 dy=0 dh=37 dv=0 dx=0 dy=0 dh=0 dv=0
PairPos2: "'kern' Horizontal Kerning in Latin lookup 0 per glyph data 1" x dx=0 dy=0 dh=37 dv=0 dx=0 dy=0 dh=0 dv=0
PairPos2: "'kern' Horizontal Kerning in Latin lookup 0 per glyph data 1" x dx=0 dy=0 dh=37 dv=0 dx=0 dy=0 dh=0 dv=0
PairPos2: "'kern' Horizontal Kerning in Latin lookup 0 per glyph data 1" w dx=0 dy=0 dh=59 dv=0 dx=0 dy=0 dh=0 dv=0
PairPos2: "'kern' Horizontal Kerning in Latin lookup 0 per glyph data 1" w dx=0 dy=0 dh=59 dv=0 dx=0 dy=0 dh=0 dv=0
PairPos2: "'kern' Horizontal Kerning in Latin lookup 0 per glyph data 1" w dx=0 dy=0 dh=59 dv=0 dx=0 dy=0 dh=0 dv=0
PairPos2: "'kern' Horizontal Kerning in Latin lookup 0 per glyph data 1" w dx=0 dy=0 dh=59 dv=0 dx=0 dy=0 dh=0 dv=0
PairPos2: "'kern' Horizontal Kerning in Latin lookup 0 per glyph data 1" w dx=0 dy=0 dh=59 dv=0 dx=0 dy=0 dh=0 dv=0
PairPos2: "'kern' Horizontal Kerning in Latin lookup 0 per glyph data 1" w dx=0 dy=0 dh=59 dv=0 dx=0 dy=0 dh=0 dv=0
PairPos2: "'kern' Horizontal Kerning in Latin lookup 0 per glyph data 1" v dx=0 dy=0 dh=59 dv=0 dx=0 dy=0 dh=0 dv=0
PairPos2: "'kern' Horizontal Kerning in Latin lookup 0 per glyph data 1" v dx=0 dy=0 dh=59 dv=0 dx=0 dy=0 dh=0 dv=0
PairPos2: "'kern' Horizontal Kerning in Latin lookup 0 per glyph data 1" v dx=0 dy=0 dh=59 dv=0 dx=0 dy=0 dh=0 dv=0
PairPos2: "'kern' Horizontal Kerning in Latin lookup 0 per glyph data 1" v dx=0 dy=0 dh=59 dv=0 dx=0 dy=0 dh=0 dv=0
PairPos2: "'kern' Horizontal Kerning in Latin lookup 0 per glyph data 1" v dx=0 dy=0 dh=59 dv=0 dx=0 dy=0 dh=0 dv=0
PairPos2: "'kern' Horizontal Kerning in Latin lookup 0 per glyph data 1" v dx=0 dy=0 dh=59 dv=0 dx=0 dy=0 dh=0 dv=0
PairPos2: "'kern' Horizontal Kerning in Latin lookup 0 per glyph data 1" t dx=0 dy=0 dh=59 dv=0 dx=0 dy=0 dh=0 dv=0
PairPos2: "'kern' Horizontal Kerning in Latin lookup 0 per glyph data 1" t dx=0 dy=0 dh=59 dv=0 dx=0 dy=0 dh=0 dv=0
PairPos2: "'kern' Horizontal Kerning in Latin lookup 0 per glyph data 1" t dx=0 dy=0 dh=59 dv=0 dx=0 dy=0 dh=0 dv=0
PairPos2: "'kern' Horizontal Kerning in Latin lookup 0 per glyph data 1" t dx=0 dy=0 dh=59 dv=0 dx=0 dy=0 dh=0 dv=0
PairPos2: "'kern' Horizontal Kerning in Latin lookup 0 per glyph data 1" t dx=0 dy=0 dh=59 dv=0 dx=0 dy=0 dh=0 dv=0
PairPos2: "'kern' Horizontal Kerning in Latin lookup 0 per glyph data 1" t dx=0 dy=0 dh=59 dv=0 dx=0 dy=0 dh=0 dv=0
PairPos2: "'kern' Horizontal Kerning in Latin lookup 0 per glyph data 1" j dx=0 dy=0 dh=74 dv=0 dx=0 dy=0 dh=0 dv=0
PairPos2: "'kern' Horizontal Kerning in Latin lookup 0 per glyph data 1" j dx=0 dy=0 dh=74 dv=0 dx=0 dy=0 dh=0 dv=0
PairPos2: "'kern' Horizontal Kerning in Latin lookup 0 per glyph data 1" j dx=0 dy=0 dh=74 dv=0 dx=0 dy=0 dh=0 dv=0
PairPos2: "'kern' Horizontal Kerning in Latin lookup 0 per glyph data 1" j dx=0 dy=0 dh=74 dv=0 dx=0 dy=0 dh=0 dv=0
PairPos2: "'kern' Horizontal Kerning in Latin lookup 0 per glyph data 1" j dx=0 dy=0 dh=74 dv=0 dx=0 dy=0 dh=0 dv=0
PairPos2: "'kern' Horizontal Kerning in Latin lookup 0 per glyph data 1" j dx=0 dy=0 dh=74 dv=0 dx=0 dy=0 dh=0 dv=0
PairPos2: "'kern' Horizontal Kerning in Latin lookup 0 per glyph data 1" a dx=0 dy=0 dh=-141 dv=0 dx=0 dy=0 dh=0 dv=0
PairPos2: "'kern' Horizontal Kerning in Latin lookup 0 per glyph data 1" a dx=0 dy=0 dh=-141 dv=0 dx=0 dy=0 dh=0 dv=0
PairPos2: "'kern' Horizontal Kerning in Latin lookup 0 per glyph data 1" a dx=0 dy=0 dh=-141 dv=0 dx=0 dy=0 dh=0 dv=0
PairPos2: "'kern' Horizontal Kerning in Latin lookup 0 per glyph data 1" a dx=0 dy=0 dh=-141 dv=0 dx=0 dy=0 dh=0 dv=0
PairPos2: "'kern' Horizontal Kerning in Latin lookup 0 per glyph data 1" a dx=0 dy=0 dh=-141 dv=0 dx=0 dy=0 dh=0 dv=0
PairPos2: "'kern' Horizontal Kerning in Latin lookup 0 per glyph data 1" a dx=0 dy=0 dh=-141 dv=0 dx=0 dy=0 dh=0 dv=0
PairPos2: "'kern' Horizontal Kerning in Latin lookup 0 per glyph data 1" Z dx=0 dy=0 dh=30 dv=0 dx=0 dy=0 dh=0 dv=0
PairPos2: "'kern' Horizontal Kerning in Latin lookup 0 per glyph data 1" Z dx=0 dy=0 dh=30 dv=0 dx=0 dy=0 dh=0 dv=0
PairPos2: "'kern' Horizontal Kerning in Latin lookup 0 per glyph data 1" Z dx=0 dy=0 dh=30 dv=0 dx=0 dy=0 dh=0 dv=0
PairPos2: "'kern' Horizontal Kerning in Latin lookup 0 per glyph data 1" Z dx=0 dy=0 dh=30 dv=0 dx=0 dy=0 dh=0 dv=0
PairPos2: "'kern' Horizontal Kerning in Latin lookup 0 per glyph data 1" Z dx=0 dy=0 dh=30 dv=0 dx=0 dy=0 dh=0 dv=0
PairPos2: "'kern' Horizontal Kerning in Latin lookup 0 per glyph data 1" Z dx=0 dy=0 dh=30 dv=0 dx=0 dy=0 dh=0 dv=0
PairPos2: "'kern' Horizontal Kerning in Latin lookup 0 per glyph data 1" Y dx=0 dy=0 dh=30 dv=0 dx=0 dy=0 dh=0 dv=0
PairPos2: "'kern' Horizontal Kerning in Latin lookup 0 per glyph data 1" Y dx=0 dy=0 dh=30 dv=0 dx=0 dy=0 dh=0 dv=0
PairPos2: "'kern' Horizontal Kerning in Latin lookup 0 per glyph data 1" Y dx=0 dy=0 dh=30 dv=0 dx=0 dy=0 dh=0 dv=0
PairPos2: "'kern' Horizontal Kerning in Latin lookup 0 per glyph data 1" Y dx=0 dy=0 dh=30 dv=0 dx=0 dy=0 dh=0 dv=0
PairPos2: "'kern' Horizontal Kerning in Latin lookup 0 per glyph data 1" Y dx=0 dy=0 dh=30 dv=0 dx=0 dy=0 dh=0 dv=0
PairPos2: "'kern' Horizontal Kerning in Latin lookup 0 per glyph data 1" Y dx=0 dy=0 dh=30 dv=0 dx=0 dy=0 dh=0 dv=0
PairPos2: "'kern' Horizontal Kerning in Latin lookup 0 per glyph data 1" T dx=0 dy=0 dh=59 dv=0 dx=0 dy=0 dh=0 dv=0
PairPos2: "'kern' Horizontal Kerning in Latin lookup 0 per glyph data 1" T dx=0 dy=0 dh=59 dv=0 dx=0 dy=0 dh=0 dv=0
PairPos2: "'kern' Horizontal Kerning in Latin lookup 0 per glyph data 1" T dx=0 dy=0 dh=59 dv=0 dx=0 dy=0 dh=0 dv=0
PairPos2: "'kern' Horizontal Kerning in Latin lookup 0 per glyph data 1" T dx=0 dy=0 dh=59 dv=0 dx=0 dy=0 dh=0 dv=0
PairPos2: "'kern' Horizontal Kerning in Latin lookup 0 per glyph data 1" T dx=0 dy=0 dh=59 dv=0 dx=0 dy=0 dh=0 dv=0
PairPos2: "'kern' Horizontal Kerning in Latin lookup 0 per glyph data 1" T dx=0 dy=0 dh=59 dv=0 dx=0 dy=0 dh=0 dv=0
PairPos2: "'kern' Horizontal Kerning in Latin lookup 0 per glyph data 1" A dx=0 dy=0 dh=-111 dv=0 dx=0 dy=0 dh=0 dv=0
PairPos2: "'kern' Horizontal Kerning in Latin lookup 0 per glyph data 1" A dx=0 dy=0 dh=-111 dv=0 dx=0 dy=0 dh=0 dv=0
PairPos2: "'kern' Horizontal Kerning in Latin lookup 0 per glyph data 1" A dx=0 dy=0 dh=-111 dv=0 dx=0 dy=0 dh=0 dv=0
PairPos2: "'kern' Horizontal Kerning in Latin lookup 0 per glyph data 1" A dx=0 dy=0 dh=-111 dv=0 dx=0 dy=0 dh=0 dv=0
PairPos2: "'kern' Horizontal Kerning in Latin lookup 0 per glyph data 1" A dx=0 dy=0 dh=-111 dv=0 dx=0 dy=0 dh=0 dv=0
PairPos2: "'kern' Horizontal Kerning in Latin lookup 0 per glyph data 1" A dx=0 dy=0 dh=-111 dv=0 dx=0 dy=0 dh=0 dv=0
EndChar

StartChar: plus
Encoding: 43 43 15
Width: 1269
GlyphClass: 2
Flags: W
LayerCount: 2
Fore
SplineSet
154 600 m 1,0,-1
 154 805 l 1,1,-1
 528 805 l 1,2,-1
 528 1184 l 1,3,-1
 741 1184 l 1,4,-1
 741 805 l 1,5,-1
 1116 805 l 1,6,-1
 1116 600 l 1,7,-1
 741 600 l 1,8,-1
 741 221 l 1,9,-1
 528 221 l 1,10,-1
 528 600 l 1,11,-1
 154 600 l 1,0,-1
EndSplineSet
Validated: 1
EndChar

StartChar: comma
Encoding: 44 44 16
Width: 565
GlyphClass: 2
Flags: W
LayerCount: 2
Fore
SplineSet
98 172 m 1,0,-1
 98 180 l 1,1,-1
 279 356 l 1,2,-1
 287 356 l 1,3,-1
 467 180 l 1,4,-1
 467 172 l 1,5,-1
 205 -338 l 1,6,-1
 197 -334 l 1,7,8
 223 -227 223 -227 223 -137 c 0,9,10
 223 66 223 66 98 172 c 1,0,-1
EndSplineSet
Validated: 1
EndChar

StartChar: hyphen
Encoding: 45 45 17
Width: 1071
GlyphClass: 2
Flags: W
LayerCount: 2
Fore
SplineSet
72 512 m 1,0,-1
 72 520 l 1,1,-1
 207 737 l 1,2,-1
 999 737 l 1,3,-1
 999 729 l 1,4,-1
 864 512 l 1,5,-1
 72 512 l 1,0,-1
EndSplineSet
Validated: 1
Position2: "'cpsp' Capital Spacing in Latin lookup 1 subtable" dx=16 dy=0 dh=16 dv=0
EndChar

StartChar: period
Encoding: 46 46 18
Width: 565
GlyphClass: 2
Flags: W
LayerCount: 2
Fore
SplineSet
88 166 m 1,0,-1
 88 174 l 1,1,2
 133 189 133 189 197.5 254 c 128,-1,3
 262 319 262 319 279 367 c 1,4,-1
 287 367 l 1,5,6
 304 319 304 319 368 254 c 128,-1,7
 432 189 432 189 477 174 c 1,8,-1
 477 166 l 1,9,-1
 287 -20 l 1,10,-1
 279 -20 l 1,11,-1
 88 166 l 1,0,-1
EndSplineSet
Validated: 1
EndChar

StartChar: slash
Encoding: 47 47 19
Width: 786
GlyphClass: 2
Flags: W
LayerCount: 2
Fore
SplineSet
20 -94 m 1,0,-1
 580 1528 l 1,1,-1
 766 1528 l 1,2,-1
 207 -94 l 1,3,-1
 20 -94 l 1,0,-1
EndSplineSet
Validated: 1
EndChar

StartChar: zero
Encoding: 48 48 20
Width: 1269
GlyphClass: 2
Flags: W
LayerCount: 2
Fore
SplineSet
92 717 m 128,-1,1
 92 1062 92 1062 242 1258 c 128,-1,2
 392 1454 392 1454 635 1454 c 128,-1,3
 878 1454 878 1454 1028 1258 c 128,-1,4
 1178 1062 1178 1062 1178 717 c 128,-1,5
 1178 372 1178 372 1028 176 c 128,-1,6
 878 -20 878 -20 635 -20 c 128,-1,7
 392 -20 392 -20 242 176 c 128,-1,0
 92 372 92 372 92 717 c 128,-1,1
410 717 m 128,-1,9
 410 579 410 579 415 484 c 128,-1,10
 420 389 420 389 434.5 308 c 128,-1,11
 449 227 449 227 474 180 c 128,-1,12
 499 133 499 133 538.5 107.5 c 128,-1,13
 578 82 578 82 635 82 c 128,-1,14
 692 82 692 82 731.5 107.5 c 128,-1,15
 771 133 771 133 796 180 c 128,-1,16
 821 227 821 227 835.5 308 c 128,-1,17
 850 389 850 389 855 484 c 128,-1,18
 860 579 860 579 860 717 c 128,-1,19
 860 855 860 855 855 950 c 128,-1,20
 850 1045 850 1045 835.5 1126 c 128,-1,21
 821 1207 821 1207 796 1254 c 128,-1,22
 771 1301 771 1301 731.5 1326.5 c 128,-1,23
 692 1352 692 1352 635 1352 c 128,-1,24
 578 1352 578 1352 538.5 1326.5 c 128,-1,25
 499 1301 499 1301 474 1254 c 128,-1,26
 449 1207 449 1207 434.5 1126 c 128,-1,27
 420 1045 420 1045 415 950 c 128,-1,8
 410 855 410 855 410 717 c 128,-1,9
EndSplineSet
Validated: 1
PairPos2: "'kern' Horizontal Kerning in Latin lookup 0 per glyph data 1" ellipsis dx=0 dy=0 dh=-51 dv=0 dx=0 dy=0 dh=0 dv=0
PairPos2: "'kern' Horizontal Kerning in Latin lookup 0 per glyph data 1" ellipsis dx=0 dy=0 dh=-51 dv=0 dx=0 dy=0 dh=0 dv=0
PairPos2: "'kern' Horizontal Kerning in Latin lookup 0 per glyph data 1" ellipsis dx=0 dy=0 dh=-51 dv=0 dx=0 dy=0 dh=0 dv=0
PairPos2: "'kern' Horizontal Kerning in Latin lookup 0 per glyph data 1" ellipsis dx=0 dy=0 dh=-51 dv=0 dx=0 dy=0 dh=0 dv=0
PairPos2: "'kern' Horizontal Kerning in Latin lookup 0 per glyph data 1" ellipsis dx=0 dy=0 dh=-51 dv=0 dx=0 dy=0 dh=0 dv=0
PairPos2: "'kern' Horizontal Kerning in Latin lookup 0 per glyph data 1" ellipsis dx=0 dy=0 dh=-51 dv=0 dx=0 dy=0 dh=0 dv=0
PairPos2: "'kern' Horizontal Kerning in Latin lookup 0 per glyph data 1" quotedblbase dx=0 dy=0 dh=-51 dv=0 dx=0 dy=0 dh=0 dv=0
PairPos2: "'kern' Horizontal Kerning in Latin lookup 0 per glyph data 1" quotedblbase dx=0 dy=0 dh=-51 dv=0 dx=0 dy=0 dh=0 dv=0
PairPos2: "'kern' Horizontal Kerning in Latin lookup 0 per glyph data 1" quotedblbase dx=0 dy=0 dh=-51 dv=0 dx=0 dy=0 dh=0 dv=0
PairPos2: "'kern' Horizontal Kerning in Latin lookup 0 per glyph data 1" quotedblbase dx=0 dy=0 dh=-51 dv=0 dx=0 dy=0 dh=0 dv=0
PairPos2: "'kern' Horizontal Kerning in Latin lookup 0 per glyph data 1" quotedblbase dx=0 dy=0 dh=-51 dv=0 dx=0 dy=0 dh=0 dv=0
PairPos2: "'kern' Horizontal Kerning in Latin lookup 0 per glyph data 1" quotedblbase dx=0 dy=0 dh=-51 dv=0 dx=0 dy=0 dh=0 dv=0
PairPos2: "'kern' Horizontal Kerning in Latin lookup 0 per glyph data 1" quotesinglbase dx=0 dy=0 dh=-51 dv=0 dx=0 dy=0 dh=0 dv=0
PairPos2: "'kern' Horizontal Kerning in Latin lookup 0 per glyph data 1" quotesinglbase dx=0 dy=0 dh=-51 dv=0 dx=0 dy=0 dh=0 dv=0
PairPos2: "'kern' Horizontal Kerning in Latin lookup 0 per glyph data 1" quotesinglbase dx=0 dy=0 dh=-51 dv=0 dx=0 dy=0 dh=0 dv=0
PairPos2: "'kern' Horizontal Kerning in Latin lookup 0 per glyph data 1" quotesinglbase dx=0 dy=0 dh=-51 dv=0 dx=0 dy=0 dh=0 dv=0
PairPos2: "'kern' Horizontal Kerning in Latin lookup 0 per glyph data 1" quotesinglbase dx=0 dy=0 dh=-51 dv=0 dx=0 dy=0 dh=0 dv=0
PairPos2: "'kern' Horizontal Kerning in Latin lookup 0 per glyph data 1" quotesinglbase dx=0 dy=0 dh=-51 dv=0 dx=0 dy=0 dh=0 dv=0
PairPos2: "'kern' Horizontal Kerning in Latin lookup 0 per glyph data 1" three dx=0 dy=0 dh=-20 dv=0 dx=0 dy=0 dh=0 dv=0
PairPos2: "'kern' Horizontal Kerning in Latin lookup 0 per glyph data 1" three dx=0 dy=0 dh=-20 dv=0 dx=0 dy=0 dh=0 dv=0
PairPos2: "'kern' Horizontal Kerning in Latin lookup 0 per glyph data 1" three dx=0 dy=0 dh=-20 dv=0 dx=0 dy=0 dh=0 dv=0
PairPos2: "'kern' Horizontal Kerning in Latin lookup 0 per glyph data 1" three dx=0 dy=0 dh=-20 dv=0 dx=0 dy=0 dh=0 dv=0
PairPos2: "'kern' Horizontal Kerning in Latin lookup 0 per glyph data 1" three dx=0 dy=0 dh=-20 dv=0 dx=0 dy=0 dh=0 dv=0
PairPos2: "'kern' Horizontal Kerning in Latin lookup 0 per glyph data 1" three dx=0 dy=0 dh=-20 dv=0 dx=0 dy=0 dh=0 dv=0
PairPos2: "'kern' Horizontal Kerning in Latin lookup 0 per glyph data 1" period dx=0 dy=0 dh=-51 dv=0 dx=0 dy=0 dh=0 dv=0
PairPos2: "'kern' Horizontal Kerning in Latin lookup 0 per glyph data 1" period dx=0 dy=0 dh=-51 dv=0 dx=0 dy=0 dh=0 dv=0
PairPos2: "'kern' Horizontal Kerning in Latin lookup 0 per glyph data 1" period dx=0 dy=0 dh=-51 dv=0 dx=0 dy=0 dh=0 dv=0
PairPos2: "'kern' Horizontal Kerning in Latin lookup 0 per glyph data 1" period dx=0 dy=0 dh=-51 dv=0 dx=0 dy=0 dh=0 dv=0
PairPos2: "'kern' Horizontal Kerning in Latin lookup 0 per glyph data 1" period dx=0 dy=0 dh=-51 dv=0 dx=0 dy=0 dh=0 dv=0
PairPos2: "'kern' Horizontal Kerning in Latin lookup 0 per glyph data 1" period dx=0 dy=0 dh=-51 dv=0 dx=0 dy=0 dh=0 dv=0
PairPos2: "'kern' Horizontal Kerning in Latin lookup 0 per glyph data 1" comma dx=0 dy=0 dh=-51 dv=0 dx=0 dy=0 dh=0 dv=0
PairPos2: "'kern' Horizontal Kerning in Latin lookup 0 per glyph data 1" comma dx=0 dy=0 dh=-51 dv=0 dx=0 dy=0 dh=0 dv=0
PairPos2: "'kern' Horizontal Kerning in Latin lookup 0 per glyph data 1" comma dx=0 dy=0 dh=-51 dv=0 dx=0 dy=0 dh=0 dv=0
PairPos2: "'kern' Horizontal Kerning in Latin lookup 0 per glyph data 1" comma dx=0 dy=0 dh=-51 dv=0 dx=0 dy=0 dh=0 dv=0
PairPos2: "'kern' Horizontal Kerning in Latin lookup 0 per glyph data 1" comma dx=0 dy=0 dh=-51 dv=0 dx=0 dy=0 dh=0 dv=0
PairPos2: "'kern' Horizontal Kerning in Latin lookup 0 per glyph data 1" comma dx=0 dy=0 dh=-51 dv=0 dx=0 dy=0 dh=0 dv=0
EndChar

StartChar: one
Encoding: 49 49 21
Width: 798
GlyphClass: 2
Flags: W
LayerCount: 2
Fore
SplineSet
41 0 m 1,0,-1
 41 20 l 1,1,-1
 256 98 l 1,2,-1
 256 1161 l 1,3,-1
 252 1167 l 1,4,-1
 41 1167 l 1,5,-1
 41 1188 l 1,6,7
 144 1213 144 1213 286 1290.5 c 128,-1,8
 428 1368 428 1368 522 1454 c 1,9,-1
 543 1454 l 1,10,-1
 543 324 l 2,11,12
 543 188 543 188 596 116 c 128,-1,13
 649 44 649 44 758 20 c 1,14,-1
 758 0 l 1,15,-1
 41 0 l 1,0,-1
EndSplineSet
Validated: 1
PairPos2: "'kern' Horizontal Kerning in Latin lookup 0 per glyph data 1" emdash dx=0 dy=0 dh=-41 dv=0 dx=0 dy=0 dh=0 dv=0
PairPos2: "'kern' Horizontal Kerning in Latin lookup 0 per glyph data 1" emdash dx=0 dy=0 dh=-41 dv=0 dx=0 dy=0 dh=0 dv=0
PairPos2: "'kern' Horizontal Kerning in Latin lookup 0 per glyph data 1" emdash dx=0 dy=0 dh=-41 dv=0 dx=0 dy=0 dh=0 dv=0
PairPos2: "'kern' Horizontal Kerning in Latin lookup 0 per glyph data 1" emdash dx=0 dy=0 dh=-41 dv=0 dx=0 dy=0 dh=0 dv=0
PairPos2: "'kern' Horizontal Kerning in Latin lookup 0 per glyph data 1" emdash dx=0 dy=0 dh=-41 dv=0 dx=0 dy=0 dh=0 dv=0
PairPos2: "'kern' Horizontal Kerning in Latin lookup 0 per glyph data 1" emdash dx=0 dy=0 dh=-41 dv=0 dx=0 dy=0 dh=0 dv=0
PairPos2: "'kern' Horizontal Kerning in Latin lookup 0 per glyph data 1" endash dx=0 dy=0 dh=-41 dv=0 dx=0 dy=0 dh=0 dv=0
PairPos2: "'kern' Horizontal Kerning in Latin lookup 0 per glyph data 1" endash dx=0 dy=0 dh=-41 dv=0 dx=0 dy=0 dh=0 dv=0
PairPos2: "'kern' Horizontal Kerning in Latin lookup 0 per glyph data 1" endash dx=0 dy=0 dh=-41 dv=0 dx=0 dy=0 dh=0 dv=0
PairPos2: "'kern' Horizontal Kerning in Latin lookup 0 per glyph data 1" endash dx=0 dy=0 dh=-41 dv=0 dx=0 dy=0 dh=0 dv=0
PairPos2: "'kern' Horizontal Kerning in Latin lookup 0 per glyph data 1" endash dx=0 dy=0 dh=-41 dv=0 dx=0 dy=0 dh=0 dv=0
PairPos2: "'kern' Horizontal Kerning in Latin lookup 0 per glyph data 1" endash dx=0 dy=0 dh=-41 dv=0 dx=0 dy=0 dh=0 dv=0
PairPos2: "'kern' Horizontal Kerning in Latin lookup 0 per glyph data 1" nine dx=0 dy=0 dh=-51 dv=0 dx=0 dy=0 dh=0 dv=0
PairPos2: "'kern' Horizontal Kerning in Latin lookup 0 per glyph data 1" nine dx=0 dy=0 dh=-51 dv=0 dx=0 dy=0 dh=0 dv=0
PairPos2: "'kern' Horizontal Kerning in Latin lookup 0 per glyph data 1" nine dx=0 dy=0 dh=-51 dv=0 dx=0 dy=0 dh=0 dv=0
PairPos2: "'kern' Horizontal Kerning in Latin lookup 0 per glyph data 1" nine dx=0 dy=0 dh=-51 dv=0 dx=0 dy=0 dh=0 dv=0
PairPos2: "'kern' Horizontal Kerning in Latin lookup 0 per glyph data 1" nine dx=0 dy=0 dh=-51 dv=0 dx=0 dy=0 dh=0 dv=0
PairPos2: "'kern' Horizontal Kerning in Latin lookup 0 per glyph data 1" nine dx=0 dy=0 dh=-51 dv=0 dx=0 dy=0 dh=0 dv=0
PairPos2: "'kern' Horizontal Kerning in Latin lookup 0 per glyph data 1" seven dx=0 dy=0 dh=-20 dv=0 dx=0 dy=0 dh=0 dv=0
PairPos2: "'kern' Horizontal Kerning in Latin lookup 0 per glyph data 1" seven dx=0 dy=0 dh=-20 dv=0 dx=0 dy=0 dh=0 dv=0
PairPos2: "'kern' Horizontal Kerning in Latin lookup 0 per glyph data 1" seven dx=0 dy=0 dh=-20 dv=0 dx=0 dy=0 dh=0 dv=0
PairPos2: "'kern' Horizontal Kerning in Latin lookup 0 per glyph data 1" seven dx=0 dy=0 dh=-20 dv=0 dx=0 dy=0 dh=0 dv=0
PairPos2: "'kern' Horizontal Kerning in Latin lookup 0 per glyph data 1" seven dx=0 dy=0 dh=-20 dv=0 dx=0 dy=0 dh=0 dv=0
PairPos2: "'kern' Horizontal Kerning in Latin lookup 0 per glyph data 1" seven dx=0 dy=0 dh=-20 dv=0 dx=0 dy=0 dh=0 dv=0
PairPos2: "'kern' Horizontal Kerning in Latin lookup 0 per glyph data 1" four dx=0 dy=0 dh=-51 dv=0 dx=0 dy=0 dh=0 dv=0
PairPos2: "'kern' Horizontal Kerning in Latin lookup 0 per glyph data 1" four dx=0 dy=0 dh=-51 dv=0 dx=0 dy=0 dh=0 dv=0
PairPos2: "'kern' Horizontal Kerning in Latin lookup 0 per glyph data 1" four dx=0 dy=0 dh=-51 dv=0 dx=0 dy=0 dh=0 dv=0
PairPos2: "'kern' Horizontal Kerning in Latin lookup 0 per glyph data 1" four dx=0 dy=0 dh=-51 dv=0 dx=0 dy=0 dh=0 dv=0
PairPos2: "'kern' Horizontal Kerning in Latin lookup 0 per glyph data 1" four dx=0 dy=0 dh=-51 dv=0 dx=0 dy=0 dh=0 dv=0
PairPos2: "'kern' Horizontal Kerning in Latin lookup 0 per glyph data 1" four dx=0 dy=0 dh=-51 dv=0 dx=0 dy=0 dh=0 dv=0
PairPos2: "'kern' Horizontal Kerning in Latin lookup 0 per glyph data 1" slash dx=0 dy=0 dh=41 dv=0 dx=0 dy=0 dh=0 dv=0
PairPos2: "'kern' Horizontal Kerning in Latin lookup 0 per glyph data 1" slash dx=0 dy=0 dh=41 dv=0 dx=0 dy=0 dh=0 dv=0
PairPos2: "'kern' Horizontal Kerning in Latin lookup 0 per glyph data 1" slash dx=0 dy=0 dh=41 dv=0 dx=0 dy=0 dh=0 dv=0
PairPos2: "'kern' Horizontal Kerning in Latin lookup 0 per glyph data 1" slash dx=0 dy=0 dh=41 dv=0 dx=0 dy=0 dh=0 dv=0
PairPos2: "'kern' Horizontal Kerning in Latin lookup 0 per glyph data 1" slash dx=0 dy=0 dh=41 dv=0 dx=0 dy=0 dh=0 dv=0
PairPos2: "'kern' Horizontal Kerning in Latin lookup 0 per glyph data 1" slash dx=0 dy=0 dh=41 dv=0 dx=0 dy=0 dh=0 dv=0
PairPos2: "'kern' Horizontal Kerning in Latin lookup 0 per glyph data 1" hyphen dx=0 dy=0 dh=-41 dv=0 dx=0 dy=0 dh=0 dv=0
PairPos2: "'kern' Horizontal Kerning in Latin lookup 0 per glyph data 1" hyphen dx=0 dy=0 dh=-41 dv=0 dx=0 dy=0 dh=0 dv=0
PairPos2: "'kern' Horizontal Kerning in Latin lookup 0 per glyph data 1" hyphen dx=0 dy=0 dh=-41 dv=0 dx=0 dy=0 dh=0 dv=0
PairPos2: "'kern' Horizontal Kerning in Latin lookup 0 per glyph data 1" hyphen dx=0 dy=0 dh=-41 dv=0 dx=0 dy=0 dh=0 dv=0
PairPos2: "'kern' Horizontal Kerning in Latin lookup 0 per glyph data 1" hyphen dx=0 dy=0 dh=-41 dv=0 dx=0 dy=0 dh=0 dv=0
PairPos2: "'kern' Horizontal Kerning in Latin lookup 0 per glyph data 1" hyphen dx=0 dy=0 dh=-41 dv=0 dx=0 dy=0 dh=0 dv=0
EndChar

StartChar: two
Encoding: 50 50 22
Width: 1062
GlyphClass: 2
Flags: W
LayerCount: 2
Fore
SplineSet
10 8 m 1,0,1
 324 381 324 381 488.5 652 c 128,-1,2
 653 923 653 923 653 1116 c 0,3,4
 653 1227 653 1227 600.5 1284 c 128,-1,5
 548 1341 548 1341 467 1341 c 0,6,7
 373 1341 373 1341 324.5 1274 c 128,-1,8
 276 1207 276 1207 276 1110 c 0,9,10
 276 1052 276 1052 293 1006 c 1,11,-1
 287 999 l 1,12,-1
 59 1286 l 1,13,14
 138 1361 138 1361 246.5 1407.5 c 128,-1,15
 355 1454 355 1454 479 1454 c 0,16,17
 572 1454 572 1454 656 1430 c 128,-1,18
 740 1406 740 1406 806 1361.5 c 128,-1,19
 872 1317 872 1317 911 1245.5 c 128,-1,20
 950 1174 950 1174 950 1085 c 0,21,22
 950 1001 950 1001 921.5 925.5 c 128,-1,23
 893 850 893 850 830 769.5 c 128,-1,24
 767 689 767 689 702 620 c 128,-1,25
 637 551 637 551 526.5 434.5 c 128,-1,26
 416 318 416 318 330 215 c 1,27,-1
 834 215 l 1,28,-1
 840 217 l 1,29,-1
 942 440 l 1,30,-1
 950 440 l 1,31,-1
 950 0 l 1,32,-1
 14 0 l 1,33,-1
 10 8 l 1,0,1
EndSplineSet
Validated: 1
EndChar

StartChar: three
Encoding: 51 51 23
Width: 962
GlyphClass: 2
Flags: W
LayerCount: 2
Fore
SplineSet
20 131 m 1,0,-1
 197 348 l 1,1,-1
 203 346 l 1,2,3
 203 239 203 239 253 165.5 c 128,-1,4
 303 92 303 92 401 92 c 0,5,6
 495 92 495 92 544.5 160 c 128,-1,7
 594 228 594 228 594 354 c 0,8,9
 594 445 594 445 573 514 c 128,-1,10
 552 583 552 583 495.5 629.5 c 128,-1,11
 439 676 439 676 350 676 c 1,12,-1
 240 780 l 1,13,-1
 240 788 l 1,14,-1
 291 788 l 2,15,16
 377 788 377 788 438.5 838 c 128,-1,17
 500 888 500 888 527.5 960.5 c 128,-1,18
 555 1033 555 1033 555 1116 c 0,19,20
 555 1229 555 1229 510.5 1285 c 128,-1,21
 466 1341 466 1341 391 1341 c 0,22,23
 303 1341 303 1341 258 1272 c 128,-1,24
 213 1203 213 1203 213 1106 c 1,25,-1
 207 1104 l 1,26,-1
 43 1282 l 1,27,28
 188 1454 188 1454 426 1454 c 0,29,30
 611 1454 611 1454 731.5 1365.5 c 128,-1,31
 852 1277 852 1277 852 1116 c 0,32,33
 852 987 852 987 774 896 c 128,-1,34
 696 805 696 805 590 772 c 1,35,-1
 590 764 l 1,36,37
 732 729 732 729 816.5 641.5 c 128,-1,38
 901 554 901 554 901 410 c 0,39,40
 901 210 901 210 772.5 95 c 128,-1,41
 644 -20 644 -20 414 -20 c 0,42,43
 171 -20 171 -20 20 131 c 1,0,-1
EndSplineSet
Validated: 1
EndChar

StartChar: four
Encoding: 52 52 24
Width: 1124
GlyphClass: 2
Flags: W
LayerCount: 2
Fore
SplineSet
0 451 m 1,0,-1
 868 1536 l 1,1,-1
 877 1536 l 1,2,-1
 877 463 l 1,3,-1
 1063 463 l 1,4,-1
 1063 455 l 1,5,-1
 903 315 l 1,6,-1
 877 315 l 1,7,-1
 877 0 l 1,8,9
 812 -2 812 -2 732.5 -15 c 128,-1,10
 653 -28 653 -28 598 -51 c 1,11,-1
 590 -51 l 1,12,-1
 590 315 l 1,13,-1
 150 315 l 1,14,-1
 2 444 l 1,15,-1
 0 451 l 1,0,-1
176 469 m 1,16,-1
 178 463 l 1,17,-1
 590 463 l 1,18,-1
 590 989 l 1,19,-1
 582 989 l 1,20,-1
 176 469 l 1,16,-1
EndSplineSet
Validated: 1
EndChar

StartChar: five
Encoding: 53 53 25
Width: 1001
GlyphClass: 2
Flags: W
LayerCount: 2
Fore
SplineSet
72 131 m 1,0,-1
 225 360 l 1,1,-1
 231 358 l 1,2,3
 231 244 231 244 301.5 173 c 128,-1,4
 372 102 372 102 485 102 c 0,5,6
 603 102 603 102 669 167.5 c 128,-1,7
 735 233 735 233 735 346 c 0,8,9
 735 396 735 396 716 445 c 128,-1,10
 697 494 697 494 650.5 542.5 c 128,-1,11
 604 591 604 591 535.5 628 c 128,-1,12
 467 665 467 665 358.5 688 c 128,-1,13
 250 711 250 711 117 711 c 1,14,-1
 197 1434 l 1,15,-1
 795 1434 l 1,16,-1
 864 1536 l 1,17,-1
 872 1536 l 1,18,-1
 872 1219 l 1,19,-1
 303 1219 l 1,20,-1
 276 956 l 1,21,22
 414 954 414 954 527.5 924 c 128,-1,23
 641 894 641 894 718 844.5 c 128,-1,24
 795 795 795 795 848.5 728 c 128,-1,25
 902 661 902 661 926 587.5 c 128,-1,26
 950 514 950 514 950 434 c 0,27,28
 950 340 950 340 918.5 259 c 128,-1,29
 887 178 887 178 827 115 c 128,-1,30
 767 52 767 52 670 16 c 128,-1,31
 573 -20 573 -20 451 -20 c 0,32,33
 338 -20 338 -20 240 20 c 128,-1,34
 142 60 142 60 72 131 c 1,0,-1
EndSplineSet
Validated: 1
EndChar

StartChar: six
Encoding: 54 54 26
Width: 1204
GlyphClass: 2
Flags: W
LayerCount: 2
Fore
SplineSet
92 584 m 0,0,1
 92 763 92 763 162.5 924.5 c 128,-1,2
 233 1086 233 1086 352.5 1202 c 128,-1,3
 472 1318 472 1318 637.5 1386 c 128,-1,4
 803 1454 803 1454 985 1454 c 1,5,-1
 985 1372 l 1,6,7
 828 1371 828 1371 709 1300 c 128,-1,8
 590 1229 590 1229 520.5 1108 c 128,-1,9
 451 987 451 987 424 823 c 1,10,-1
 606 895 l 1,11,-1
 678 895 l 2,12,13
 863 895 863 895 977.5 770.5 c 128,-1,14
 1092 646 1092 646 1092 453 c 0,15,16
 1092 253 1092 253 956 116.5 c 128,-1,17
 820 -20 820 -20 621 -20 c 0,18,19
 536 -20 536 -20 460 0 c 128,-1,20
 384 20 384 20 316 66 c 128,-1,21
 248 112 248 112 198.5 180.5 c 128,-1,22
 149 249 149 249 120.5 352 c 128,-1,23
 92 455 92 455 92 584 c 0,0,1
410 625 m 0,24,25
 410 339 410 339 464 210.5 c 128,-1,26
 518 82 518 82 625 82 c 0,27,28
 679 82 679 82 718.5 126.5 c 128,-1,29
 758 171 758 171 776.5 237 c 128,-1,30
 795 303 795 303 795 377 c 0,31,32
 795 594 795 594 732.5 693.5 c 128,-1,33
 670 793 670 793 532 793 c 2,34,-1
 420 793 l 1,35,36
 410 705 410 705 410 625 c 0,24,25
EndSplineSet
Validated: 1
PairPos2: "'kern' Horizontal Kerning in Latin lookup 0 per glyph data 1" ellipsis dx=0 dy=0 dh=-41 dv=0 dx=0 dy=0 dh=0 dv=0
PairPos2: "'kern' Horizontal Kerning in Latin lookup 0 per glyph data 1" ellipsis dx=0 dy=0 dh=-41 dv=0 dx=0 dy=0 dh=0 dv=0
PairPos2: "'kern' Horizontal Kerning in Latin lookup 0 per glyph data 1" ellipsis dx=0 dy=0 dh=-41 dv=0 dx=0 dy=0 dh=0 dv=0
PairPos2: "'kern' Horizontal Kerning in Latin lookup 0 per glyph data 1" ellipsis dx=0 dy=0 dh=-41 dv=0 dx=0 dy=0 dh=0 dv=0
PairPos2: "'kern' Horizontal Kerning in Latin lookup 0 per glyph data 1" ellipsis dx=0 dy=0 dh=-41 dv=0 dx=0 dy=0 dh=0 dv=0
PairPos2: "'kern' Horizontal Kerning in Latin lookup 0 per glyph data 1" ellipsis dx=0 dy=0 dh=-41 dv=0 dx=0 dy=0 dh=0 dv=0
PairPos2: "'kern' Horizontal Kerning in Latin lookup 0 per glyph data 1" quotedblbase dx=0 dy=0 dh=-41 dv=0 dx=0 dy=0 dh=0 dv=0
PairPos2: "'kern' Horizontal Kerning in Latin lookup 0 per glyph data 1" quotedblbase dx=0 dy=0 dh=-41 dv=0 dx=0 dy=0 dh=0 dv=0
PairPos2: "'kern' Horizontal Kerning in Latin lookup 0 per glyph data 1" quotedblbase dx=0 dy=0 dh=-41 dv=0 dx=0 dy=0 dh=0 dv=0
PairPos2: "'kern' Horizontal Kerning in Latin lookup 0 per glyph data 1" quotedblbase dx=0 dy=0 dh=-41 dv=0 dx=0 dy=0 dh=0 dv=0
PairPos2: "'kern' Horizontal Kerning in Latin lookup 0 per glyph data 1" quotedblbase dx=0 dy=0 dh=-41 dv=0 dx=0 dy=0 dh=0 dv=0
PairPos2: "'kern' Horizontal Kerning in Latin lookup 0 per glyph data 1" quotedblbase dx=0 dy=0 dh=-41 dv=0 dx=0 dy=0 dh=0 dv=0
PairPos2: "'kern' Horizontal Kerning in Latin lookup 0 per glyph data 1" quotesinglbase dx=0 dy=0 dh=-41 dv=0 dx=0 dy=0 dh=0 dv=0
PairPos2: "'kern' Horizontal Kerning in Latin lookup 0 per glyph data 1" quotesinglbase dx=0 dy=0 dh=-41 dv=0 dx=0 dy=0 dh=0 dv=0
PairPos2: "'kern' Horizontal Kerning in Latin lookup 0 per glyph data 1" quotesinglbase dx=0 dy=0 dh=-41 dv=0 dx=0 dy=0 dh=0 dv=0
PairPos2: "'kern' Horizontal Kerning in Latin lookup 0 per glyph data 1" quotesinglbase dx=0 dy=0 dh=-41 dv=0 dx=0 dy=0 dh=0 dv=0
PairPos2: "'kern' Horizontal Kerning in Latin lookup 0 per glyph data 1" quotesinglbase dx=0 dy=0 dh=-41 dv=0 dx=0 dy=0 dh=0 dv=0
PairPos2: "'kern' Horizontal Kerning in Latin lookup 0 per glyph data 1" quotesinglbase dx=0 dy=0 dh=-41 dv=0 dx=0 dy=0 dh=0 dv=0
PairPos2: "'kern' Horizontal Kerning in Latin lookup 0 per glyph data 1" nine dx=0 dy=0 dh=-133 dv=0 dx=0 dy=0 dh=0 dv=0
PairPos2: "'kern' Horizontal Kerning in Latin lookup 0 per glyph data 1" nine dx=0 dy=0 dh=-133 dv=0 dx=0 dy=0 dh=0 dv=0
PairPos2: "'kern' Horizontal Kerning in Latin lookup 0 per glyph data 1" nine dx=0 dy=0 dh=-133 dv=0 dx=0 dy=0 dh=0 dv=0
PairPos2: "'kern' Horizontal Kerning in Latin lookup 0 per glyph data 1" nine dx=0 dy=0 dh=-133 dv=0 dx=0 dy=0 dh=0 dv=0
PairPos2: "'kern' Horizontal Kerning in Latin lookup 0 per glyph data 1" nine dx=0 dy=0 dh=-133 dv=0 dx=0 dy=0 dh=0 dv=0
PairPos2: "'kern' Horizontal Kerning in Latin lookup 0 per glyph data 1" nine dx=0 dy=0 dh=-133 dv=0 dx=0 dy=0 dh=0 dv=0
PairPos2: "'kern' Horizontal Kerning in Latin lookup 0 per glyph data 1" seven dx=0 dy=0 dh=-92 dv=0 dx=0 dy=0 dh=0 dv=0
PairPos2: "'kern' Horizontal Kerning in Latin lookup 0 per glyph data 1" seven dx=0 dy=0 dh=-92 dv=0 dx=0 dy=0 dh=0 dv=0
PairPos2: "'kern' Horizontal Kerning in Latin lookup 0 per glyph data 1" seven dx=0 dy=0 dh=-92 dv=0 dx=0 dy=0 dh=0 dv=0
PairPos2: "'kern' Horizontal Kerning in Latin lookup 0 per glyph data 1" seven dx=0 dy=0 dh=-92 dv=0 dx=0 dy=0 dh=0 dv=0
PairPos2: "'kern' Horizontal Kerning in Latin lookup 0 per glyph data 1" seven dx=0 dy=0 dh=-92 dv=0 dx=0 dy=0 dh=0 dv=0
PairPos2: "'kern' Horizontal Kerning in Latin lookup 0 per glyph data 1" seven dx=0 dy=0 dh=-92 dv=0 dx=0 dy=0 dh=0 dv=0
PairPos2: "'kern' Horizontal Kerning in Latin lookup 0 per glyph data 1" five dx=0 dy=0 dh=-51 dv=0 dx=0 dy=0 dh=0 dv=0
PairPos2: "'kern' Horizontal Kerning in Latin lookup 0 per glyph data 1" five dx=0 dy=0 dh=-51 dv=0 dx=0 dy=0 dh=0 dv=0
PairPos2: "'kern' Horizontal Kerning in Latin lookup 0 per glyph data 1" five dx=0 dy=0 dh=-51 dv=0 dx=0 dy=0 dh=0 dv=0
PairPos2: "'kern' Horizontal Kerning in Latin lookup 0 per glyph data 1" five dx=0 dy=0 dh=-51 dv=0 dx=0 dy=0 dh=0 dv=0
PairPos2: "'kern' Horizontal Kerning in Latin lookup 0 per glyph data 1" five dx=0 dy=0 dh=-51 dv=0 dx=0 dy=0 dh=0 dv=0
PairPos2: "'kern' Horizontal Kerning in Latin lookup 0 per glyph data 1" five dx=0 dy=0 dh=-51 dv=0 dx=0 dy=0 dh=0 dv=0
PairPos2: "'kern' Horizontal Kerning in Latin lookup 0 per glyph data 1" three dx=0 dy=0 dh=-20 dv=0 dx=0 dy=0 dh=0 dv=0
PairPos2: "'kern' Horizontal Kerning in Latin lookup 0 per glyph data 1" three dx=0 dy=0 dh=-20 dv=0 dx=0 dy=0 dh=0 dv=0
PairPos2: "'kern' Horizontal Kerning in Latin lookup 0 per glyph data 1" three dx=0 dy=0 dh=-20 dv=0 dx=0 dy=0 dh=0 dv=0
PairPos2: "'kern' Horizontal Kerning in Latin lookup 0 per glyph data 1" three dx=0 dy=0 dh=-20 dv=0 dx=0 dy=0 dh=0 dv=0
PairPos2: "'kern' Horizontal Kerning in Latin lookup 0 per glyph data 1" three dx=0 dy=0 dh=-20 dv=0 dx=0 dy=0 dh=0 dv=0
PairPos2: "'kern' Horizontal Kerning in Latin lookup 0 per glyph data 1" three dx=0 dy=0 dh=-20 dv=0 dx=0 dy=0 dh=0 dv=0
PairPos2: "'kern' Horizontal Kerning in Latin lookup 0 per glyph data 1" two dx=0 dy=0 dh=-61 dv=0 dx=0 dy=0 dh=0 dv=0
PairPos2: "'kern' Horizontal Kerning in Latin lookup 0 per glyph data 1" two dx=0 dy=0 dh=-61 dv=0 dx=0 dy=0 dh=0 dv=0
PairPos2: "'kern' Horizontal Kerning in Latin lookup 0 per glyph data 1" two dx=0 dy=0 dh=-61 dv=0 dx=0 dy=0 dh=0 dv=0
PairPos2: "'kern' Horizontal Kerning in Latin lookup 0 per glyph data 1" two dx=0 dy=0 dh=-61 dv=0 dx=0 dy=0 dh=0 dv=0
PairPos2: "'kern' Horizontal Kerning in Latin lookup 0 per glyph data 1" two dx=0 dy=0 dh=-61 dv=0 dx=0 dy=0 dh=0 dv=0
PairPos2: "'kern' Horizontal Kerning in Latin lookup 0 per glyph data 1" two dx=0 dy=0 dh=-61 dv=0 dx=0 dy=0 dh=0 dv=0
PairPos2: "'kern' Horizontal Kerning in Latin lookup 0 per glyph data 1" one dx=0 dy=0 dh=-20 dv=0 dx=0 dy=0 dh=0 dv=0
PairPos2: "'kern' Horizontal Kerning in Latin lookup 0 per glyph data 1" one dx=0 dy=0 dh=-20 dv=0 dx=0 dy=0 dh=0 dv=0
PairPos2: "'kern' Horizontal Kerning in Latin lookup 0 per glyph data 1" one dx=0 dy=0 dh=-20 dv=0 dx=0 dy=0 dh=0 dv=0
PairPos2: "'kern' Horizontal Kerning in Latin lookup 0 per glyph data 1" one dx=0 dy=0 dh=-20 dv=0 dx=0 dy=0 dh=0 dv=0
PairPos2: "'kern' Horizontal Kerning in Latin lookup 0 per glyph data 1" one dx=0 dy=0 dh=-20 dv=0 dx=0 dy=0 dh=0 dv=0
PairPos2: "'kern' Horizontal Kerning in Latin lookup 0 per glyph data 1" one dx=0 dy=0 dh=-20 dv=0 dx=0 dy=0 dh=0 dv=0
PairPos2: "'kern' Horizontal Kerning in Latin lookup 0 per glyph data 1" period dx=0 dy=0 dh=-41 dv=0 dx=0 dy=0 dh=0 dv=0
PairPos2: "'kern' Horizontal Kerning in Latin lookup 0 per glyph data 1" period dx=0 dy=0 dh=-41 dv=0 dx=0 dy=0 dh=0 dv=0
PairPos2: "'kern' Horizontal Kerning in Latin lookup 0 per glyph data 1" period dx=0 dy=0 dh=-41 dv=0 dx=0 dy=0 dh=0 dv=0
PairPos2: "'kern' Horizontal Kerning in Latin lookup 0 per glyph data 1" period dx=0 dy=0 dh=-41 dv=0 dx=0 dy=0 dh=0 dv=0
PairPos2: "'kern' Horizontal Kerning in Latin lookup 0 per glyph data 1" period dx=0 dy=0 dh=-41 dv=0 dx=0 dy=0 dh=0 dv=0
PairPos2: "'kern' Horizontal Kerning in Latin lookup 0 per glyph data 1" period dx=0 dy=0 dh=-41 dv=0 dx=0 dy=0 dh=0 dv=0
PairPos2: "'kern' Horizontal Kerning in Latin lookup 0 per glyph data 1" comma dx=0 dy=0 dh=-41 dv=0 dx=0 dy=0 dh=0 dv=0
PairPos2: "'kern' Horizontal Kerning in Latin lookup 0 per glyph data 1" comma dx=0 dy=0 dh=-41 dv=0 dx=0 dy=0 dh=0 dv=0
PairPos2: "'kern' Horizontal Kerning in Latin lookup 0 per glyph data 1" comma dx=0 dy=0 dh=-41 dv=0 dx=0 dy=0 dh=0 dv=0
PairPos2: "'kern' Horizontal Kerning in Latin lookup 0 per glyph data 1" comma dx=0 dy=0 dh=-41 dv=0 dx=0 dy=0 dh=0 dv=0
PairPos2: "'kern' Horizontal Kerning in Latin lookup 0 per glyph data 1" comma dx=0 dy=0 dh=-41 dv=0 dx=0 dy=0 dh=0 dv=0
PairPos2: "'kern' Horizontal Kerning in Latin lookup 0 per glyph data 1" comma dx=0 dy=0 dh=-41 dv=0 dx=0 dy=0 dh=0 dv=0
EndChar

StartChar: seven
Encoding: 55 55 27
Width: 970
GlyphClass: 2
Flags: W
LayerCount: 2
Fore
SplineSet
31 952 m 1,0,-1
 31 1434 l 1,1,-1
 969 1434 l 1,2,-1
 971 1427 l 1,3,-1
 502 0 l 1,4,5
 302 0 302 0 170 -51 c 1,6,-1
 166 -45 l 1,7,-1
 754 1219 l 1,8,-1
 336 1219 l 2,9,10
 116 1219 116 1219 39 952 c 1,11,-1
 31 952 l 1,0,-1
EndSplineSet
Validated: 1
PairPos2: "'kern' Horizontal Kerning in Latin lookup 0 per glyph data 1" ellipsis dx=0 dy=0 dh=-143 dv=0 dx=0 dy=0 dh=0 dv=0
PairPos2: "'kern' Horizontal Kerning in Latin lookup 0 per glyph data 1" ellipsis dx=0 dy=0 dh=-143 dv=0 dx=0 dy=0 dh=0 dv=0
PairPos2: "'kern' Horizontal Kerning in Latin lookup 0 per glyph data 1" ellipsis dx=0 dy=0 dh=-143 dv=0 dx=0 dy=0 dh=0 dv=0
PairPos2: "'kern' Horizontal Kerning in Latin lookup 0 per glyph data 1" ellipsis dx=0 dy=0 dh=-143 dv=0 dx=0 dy=0 dh=0 dv=0
PairPos2: "'kern' Horizontal Kerning in Latin lookup 0 per glyph data 1" ellipsis dx=0 dy=0 dh=-143 dv=0 dx=0 dy=0 dh=0 dv=0
PairPos2: "'kern' Horizontal Kerning in Latin lookup 0 per glyph data 1" ellipsis dx=0 dy=0 dh=-143 dv=0 dx=0 dy=0 dh=0 dv=0
PairPos2: "'kern' Horizontal Kerning in Latin lookup 0 per glyph data 1" quotedblbase dx=0 dy=0 dh=-143 dv=0 dx=0 dy=0 dh=0 dv=0
PairPos2: "'kern' Horizontal Kerning in Latin lookup 0 per glyph data 1" quotedblbase dx=0 dy=0 dh=-143 dv=0 dx=0 dy=0 dh=0 dv=0
PairPos2: "'kern' Horizontal Kerning in Latin lookup 0 per glyph data 1" quotedblbase dx=0 dy=0 dh=-143 dv=0 dx=0 dy=0 dh=0 dv=0
PairPos2: "'kern' Horizontal Kerning in Latin lookup 0 per glyph data 1" quotedblbase dx=0 dy=0 dh=-143 dv=0 dx=0 dy=0 dh=0 dv=0
PairPos2: "'kern' Horizontal Kerning in Latin lookup 0 per glyph data 1" quotedblbase dx=0 dy=0 dh=-143 dv=0 dx=0 dy=0 dh=0 dv=0
PairPos2: "'kern' Horizontal Kerning in Latin lookup 0 per glyph data 1" quotedblbase dx=0 dy=0 dh=-143 dv=0 dx=0 dy=0 dh=0 dv=0
PairPos2: "'kern' Horizontal Kerning in Latin lookup 0 per glyph data 1" quotesinglbase dx=0 dy=0 dh=-143 dv=0 dx=0 dy=0 dh=0 dv=0
PairPos2: "'kern' Horizontal Kerning in Latin lookup 0 per glyph data 1" quotesinglbase dx=0 dy=0 dh=-143 dv=0 dx=0 dy=0 dh=0 dv=0
PairPos2: "'kern' Horizontal Kerning in Latin lookup 0 per glyph data 1" quotesinglbase dx=0 dy=0 dh=-143 dv=0 dx=0 dy=0 dh=0 dv=0
PairPos2: "'kern' Horizontal Kerning in Latin lookup 0 per glyph data 1" quotesinglbase dx=0 dy=0 dh=-143 dv=0 dx=0 dy=0 dh=0 dv=0
PairPos2: "'kern' Horizontal Kerning in Latin lookup 0 per glyph data 1" quotesinglbase dx=0 dy=0 dh=-143 dv=0 dx=0 dy=0 dh=0 dv=0
PairPos2: "'kern' Horizontal Kerning in Latin lookup 0 per glyph data 1" quotesinglbase dx=0 dy=0 dh=-143 dv=0 dx=0 dy=0 dh=0 dv=0
PairPos2: "'kern' Horizontal Kerning in Latin lookup 0 per glyph data 1" emdash dx=0 dy=0 dh=-20 dv=0 dx=0 dy=0 dh=0 dv=0
PairPos2: "'kern' Horizontal Kerning in Latin lookup 0 per glyph data 1" emdash dx=0 dy=0 dh=-20 dv=0 dx=0 dy=0 dh=0 dv=0
PairPos2: "'kern' Horizontal Kerning in Latin lookup 0 per glyph data 1" emdash dx=0 dy=0 dh=-20 dv=0 dx=0 dy=0 dh=0 dv=0
PairPos2: "'kern' Horizontal Kerning in Latin lookup 0 per glyph data 1" emdash dx=0 dy=0 dh=-20 dv=0 dx=0 dy=0 dh=0 dv=0
PairPos2: "'kern' Horizontal Kerning in Latin lookup 0 per glyph data 1" emdash dx=0 dy=0 dh=-20 dv=0 dx=0 dy=0 dh=0 dv=0
PairPos2: "'kern' Horizontal Kerning in Latin lookup 0 per glyph data 1" emdash dx=0 dy=0 dh=-20 dv=0 dx=0 dy=0 dh=0 dv=0
PairPos2: "'kern' Horizontal Kerning in Latin lookup 0 per glyph data 1" endash dx=0 dy=0 dh=-20 dv=0 dx=0 dy=0 dh=0 dv=0
PairPos2: "'kern' Horizontal Kerning in Latin lookup 0 per glyph data 1" endash dx=0 dy=0 dh=-20 dv=0 dx=0 dy=0 dh=0 dv=0
PairPos2: "'kern' Horizontal Kerning in Latin lookup 0 per glyph data 1" endash dx=0 dy=0 dh=-20 dv=0 dx=0 dy=0 dh=0 dv=0
PairPos2: "'kern' Horizontal Kerning in Latin lookup 0 per glyph data 1" endash dx=0 dy=0 dh=-20 dv=0 dx=0 dy=0 dh=0 dv=0
PairPos2: "'kern' Horizontal Kerning in Latin lookup 0 per glyph data 1" endash dx=0 dy=0 dh=-20 dv=0 dx=0 dy=0 dh=0 dv=0
PairPos2: "'kern' Horizontal Kerning in Latin lookup 0 per glyph data 1" endash dx=0 dy=0 dh=-20 dv=0 dx=0 dy=0 dh=0 dv=0
PairPos2: "'kern' Horizontal Kerning in Latin lookup 0 per glyph data 1" eight dx=0 dy=0 dh=-20 dv=0 dx=0 dy=0 dh=0 dv=0
PairPos2: "'kern' Horizontal Kerning in Latin lookup 0 per glyph data 1" eight dx=0 dy=0 dh=-20 dv=0 dx=0 dy=0 dh=0 dv=0
PairPos2: "'kern' Horizontal Kerning in Latin lookup 0 per glyph data 1" eight dx=0 dy=0 dh=-20 dv=0 dx=0 dy=0 dh=0 dv=0
PairPos2: "'kern' Horizontal Kerning in Latin lookup 0 per glyph data 1" eight dx=0 dy=0 dh=-20 dv=0 dx=0 dy=0 dh=0 dv=0
PairPos2: "'kern' Horizontal Kerning in Latin lookup 0 per glyph data 1" eight dx=0 dy=0 dh=-20 dv=0 dx=0 dy=0 dh=0 dv=0
PairPos2: "'kern' Horizontal Kerning in Latin lookup 0 per glyph data 1" eight dx=0 dy=0 dh=-20 dv=0 dx=0 dy=0 dh=0 dv=0
PairPos2: "'kern' Horizontal Kerning in Latin lookup 0 per glyph data 1" seven dx=0 dy=0 dh=102 dv=0 dx=0 dy=0 dh=0 dv=0
PairPos2: "'kern' Horizontal Kerning in Latin lookup 0 per glyph data 1" seven dx=0 dy=0 dh=102 dv=0 dx=0 dy=0 dh=0 dv=0
PairPos2: "'kern' Horizontal Kerning in Latin lookup 0 per glyph data 1" seven dx=0 dy=0 dh=102 dv=0 dx=0 dy=0 dh=0 dv=0
PairPos2: "'kern' Horizontal Kerning in Latin lookup 0 per glyph data 1" seven dx=0 dy=0 dh=102 dv=0 dx=0 dy=0 dh=0 dv=0
PairPos2: "'kern' Horizontal Kerning in Latin lookup 0 per glyph data 1" seven dx=0 dy=0 dh=102 dv=0 dx=0 dy=0 dh=0 dv=0
PairPos2: "'kern' Horizontal Kerning in Latin lookup 0 per glyph data 1" seven dx=0 dy=0 dh=102 dv=0 dx=0 dy=0 dh=0 dv=0
PairPos2: "'kern' Horizontal Kerning in Latin lookup 0 per glyph data 1" six dx=0 dy=0 dh=-41 dv=0 dx=0 dy=0 dh=0 dv=0
PairPos2: "'kern' Horizontal Kerning in Latin lookup 0 per glyph data 1" six dx=0 dy=0 dh=-41 dv=0 dx=0 dy=0 dh=0 dv=0
PairPos2: "'kern' Horizontal Kerning in Latin lookup 0 per glyph data 1" six dx=0 dy=0 dh=-41 dv=0 dx=0 dy=0 dh=0 dv=0
PairPos2: "'kern' Horizontal Kerning in Latin lookup 0 per glyph data 1" six dx=0 dy=0 dh=-41 dv=0 dx=0 dy=0 dh=0 dv=0
PairPos2: "'kern' Horizontal Kerning in Latin lookup 0 per glyph data 1" six dx=0 dy=0 dh=-41 dv=0 dx=0 dy=0 dh=0 dv=0
PairPos2: "'kern' Horizontal Kerning in Latin lookup 0 per glyph data 1" six dx=0 dy=0 dh=-41 dv=0 dx=0 dy=0 dh=0 dv=0
PairPos2: "'kern' Horizontal Kerning in Latin lookup 0 per glyph data 1" four dx=0 dy=0 dh=-102 dv=0 dx=0 dy=0 dh=0 dv=0
PairPos2: "'kern' Horizontal Kerning in Latin lookup 0 per glyph data 1" four dx=0 dy=0 dh=-102 dv=0 dx=0 dy=0 dh=0 dv=0
PairPos2: "'kern' Horizontal Kerning in Latin lookup 0 per glyph data 1" four dx=0 dy=0 dh=-102 dv=0 dx=0 dy=0 dh=0 dv=0
PairPos2: "'kern' Horizontal Kerning in Latin lookup 0 per glyph data 1" four dx=0 dy=0 dh=-102 dv=0 dx=0 dy=0 dh=0 dv=0
PairPos2: "'kern' Horizontal Kerning in Latin lookup 0 per glyph data 1" four dx=0 dy=0 dh=-102 dv=0 dx=0 dy=0 dh=0 dv=0
PairPos2: "'kern' Horizontal Kerning in Latin lookup 0 per glyph data 1" four dx=0 dy=0 dh=-102 dv=0 dx=0 dy=0 dh=0 dv=0
PairPos2: "'kern' Horizontal Kerning in Latin lookup 0 per glyph data 1" slash dx=0 dy=0 dh=-123 dv=0 dx=0 dy=0 dh=0 dv=0
PairPos2: "'kern' Horizontal Kerning in Latin lookup 0 per glyph data 1" slash dx=0 dy=0 dh=-123 dv=0 dx=0 dy=0 dh=0 dv=0
PairPos2: "'kern' Horizontal Kerning in Latin lookup 0 per glyph data 1" slash dx=0 dy=0 dh=-123 dv=0 dx=0 dy=0 dh=0 dv=0
PairPos2: "'kern' Horizontal Kerning in Latin lookup 0 per glyph data 1" slash dx=0 dy=0 dh=-123 dv=0 dx=0 dy=0 dh=0 dv=0
PairPos2: "'kern' Horizontal Kerning in Latin lookup 0 per glyph data 1" slash dx=0 dy=0 dh=-123 dv=0 dx=0 dy=0 dh=0 dv=0
PairPos2: "'kern' Horizontal Kerning in Latin lookup 0 per glyph data 1" slash dx=0 dy=0 dh=-123 dv=0 dx=0 dy=0 dh=0 dv=0
PairPos2: "'kern' Horizontal Kerning in Latin lookup 0 per glyph data 1" period dx=0 dy=0 dh=-143 dv=0 dx=0 dy=0 dh=0 dv=0
PairPos2: "'kern' Horizontal Kerning in Latin lookup 0 per glyph data 1" period dx=0 dy=0 dh=-143 dv=0 dx=0 dy=0 dh=0 dv=0
PairPos2: "'kern' Horizontal Kerning in Latin lookup 0 per glyph data 1" period dx=0 dy=0 dh=-143 dv=0 dx=0 dy=0 dh=0 dv=0
PairPos2: "'kern' Horizontal Kerning in Latin lookup 0 per glyph data 1" period dx=0 dy=0 dh=-143 dv=0 dx=0 dy=0 dh=0 dv=0
PairPos2: "'kern' Horizontal Kerning in Latin lookup 0 per glyph data 1" period dx=0 dy=0 dh=-143 dv=0 dx=0 dy=0 dh=0 dv=0
PairPos2: "'kern' Horizontal Kerning in Latin lookup 0 per glyph data 1" period dx=0 dy=0 dh=-143 dv=0 dx=0 dy=0 dh=0 dv=0
PairPos2: "'kern' Horizontal Kerning in Latin lookup 0 per glyph data 1" hyphen dx=0 dy=0 dh=-20 dv=0 dx=0 dy=0 dh=0 dv=0
PairPos2: "'kern' Horizontal Kerning in Latin lookup 0 per glyph data 1" hyphen dx=0 dy=0 dh=-20 dv=0 dx=0 dy=0 dh=0 dv=0
PairPos2: "'kern' Horizontal Kerning in Latin lookup 0 per glyph data 1" hyphen dx=0 dy=0 dh=-20 dv=0 dx=0 dy=0 dh=0 dv=0
PairPos2: "'kern' Horizontal Kerning in Latin lookup 0 per glyph data 1" hyphen dx=0 dy=0 dh=-20 dv=0 dx=0 dy=0 dh=0 dv=0
PairPos2: "'kern' Horizontal Kerning in Latin lookup 0 per glyph data 1" hyphen dx=0 dy=0 dh=-20 dv=0 dx=0 dy=0 dh=0 dv=0
PairPos2: "'kern' Horizontal Kerning in Latin lookup 0 per glyph data 1" hyphen dx=0 dy=0 dh=-20 dv=0 dx=0 dy=0 dh=0 dv=0
PairPos2: "'kern' Horizontal Kerning in Latin lookup 0 per glyph data 1" comma dx=0 dy=0 dh=-143 dv=0 dx=0 dy=0 dh=0 dv=0
PairPos2: "'kern' Horizontal Kerning in Latin lookup 0 per glyph data 1" comma dx=0 dy=0 dh=-143 dv=0 dx=0 dy=0 dh=0 dv=0
PairPos2: "'kern' Horizontal Kerning in Latin lookup 0 per glyph data 1" comma dx=0 dy=0 dh=-143 dv=0 dx=0 dy=0 dh=0 dv=0
PairPos2: "'kern' Horizontal Kerning in Latin lookup 0 per glyph data 1" comma dx=0 dy=0 dh=-143 dv=0 dx=0 dy=0 dh=0 dv=0
PairPos2: "'kern' Horizontal Kerning in Latin lookup 0 per glyph data 1" comma dx=0 dy=0 dh=-143 dv=0 dx=0 dy=0 dh=0 dv=0
PairPos2: "'kern' Horizontal Kerning in Latin lookup 0 per glyph data 1" comma dx=0 dy=0 dh=-143 dv=0 dx=0 dy=0 dh=0 dv=0
EndChar

StartChar: eight
Encoding: 56 56 28
Width: 1220
GlyphClass: 2
Flags: W
LayerCount: 2
Fore
SplineSet
92 385 m 0,0,1
 92 681 92 681 389 754 c 1,2,-1
 389 762 l 1,3,4
 280 796 280 796 208.5 875.5 c 128,-1,5
 137 955 137 955 137 1090 c 0,6,7
 137 1253 137 1253 273.5 1353.5 c 128,-1,8
 410 1454 410 1454 610 1454 c 128,-1,9
 810 1454 810 1454 946.5 1353.5 c 128,-1,10
 1083 1253 1083 1253 1083 1090 c 0,11,12
 1083 955 1083 955 1011.5 875.5 c 128,-1,13
 940 796 940 796 831 762 c 1,14,-1
 831 754 l 1,15,16
 1128 681 1128 681 1128 385 c 0,17,18
 1128 202 1128 202 984 91 c 128,-1,19
 840 -20 840 -20 610 -20 c 128,-1,20
 380 -20 380 -20 236 91 c 128,-1,21
 92 202 92 202 92 385 c 0,0,1
399 369 m 0,22,23
 399 240 399 240 452 161 c 128,-1,24
 505 82 505 82 610 82 c 128,-1,25
 715 82 715 82 768 161 c 128,-1,26
 821 240 821 240 821 369 c 0,27,28
 821 653 821 653 610 731 c 1,29,30
 399 652 399 652 399 369 c 0,22,23
434 1104 m 0,31,32
 434 972 434 972 481.5 882 c 128,-1,33
 529 792 529 792 610 762 c 1,34,35
 691 792 691 792 738.5 882 c 128,-1,36
 786 972 786 972 786 1104 c 0,37,38
 786 1224 786 1224 738.5 1288 c 128,-1,39
 691 1352 691 1352 610 1352 c 128,-1,40
 529 1352 529 1352 481.5 1288 c 128,-1,41
 434 1224 434 1224 434 1104 c 0,31,32
EndSplineSet
Validated: 1
EndChar

StartChar: nine
Encoding: 57 57 29
Width: 1204
GlyphClass: 2
Flags: W
LayerCount: 2
Fore
SplineSet
113 981 m 0,0,1
 113 1111 113 1111 179.5 1220.5 c 128,-1,2
 246 1330 246 1330 354 1392 c 128,-1,3
 462 1454 462 1454 584 1454 c 0,4,5
 664 1454 664 1454 737.5 1434 c 128,-1,6
 811 1414 811 1414 880 1368 c 128,-1,7
 949 1322 949 1322 1000 1254 c 128,-1,8
 1051 1186 1051 1186 1081.5 1082 c 128,-1,9
 1112 978 1112 978 1112 850 c 0,10,11
 1112 677 1112 677 1066.5 533.5 c 128,-1,12
 1021 390 1021 390 940 288.5 c 128,-1,13
 859 187 859 187 746.5 117 c 128,-1,14
 634 47 634 47 501.5 13.5 c 128,-1,15
 369 -20 369 -20 219 -20 c 1,16,-1
 219 61 l 1,17,18
 468 63 468 63 608 198.5 c 128,-1,19
 748 334 748 334 782 612 c 1,20,-1
 598 539 l 1,21,-1
 526 539 l 2,22,23
 341 539 341 539 227 663.5 c 128,-1,24
 113 788 113 788 113 981 c 0,0,1
410 1057 m 0,25,26
 410 840 410 840 472 740.5 c 128,-1,27
 534 641 534 641 672 641 c 2,28,-1
 786 641 l 1,29,30
 795 756 795 756 795 809 c 0,31,32
 795 1095 795 1095 741 1223.5 c 128,-1,33
 687 1352 687 1352 580 1352 c 0,34,35
 526 1352 526 1352 486.5 1307.5 c 128,-1,36
 447 1263 447 1263 428.5 1197 c 128,-1,37
 410 1131 410 1131 410 1057 c 0,25,26
EndSplineSet
Validated: 1
PairPos2: "'kern' Horizontal Kerning in Latin lookup 0 per glyph data 1" ellipsis dx=0 dy=0 dh=-61 dv=0 dx=0 dy=0 dh=0 dv=0
PairPos2: "'kern' Horizontal Kerning in Latin lookup 0 per glyph data 1" ellipsis dx=0 dy=0 dh=-61 dv=0 dx=0 dy=0 dh=0 dv=0
PairPos2: "'kern' Horizontal Kerning in Latin lookup 0 per glyph data 1" ellipsis dx=0 dy=0 dh=-61 dv=0 dx=0 dy=0 dh=0 dv=0
PairPos2: "'kern' Horizontal Kerning in Latin lookup 0 per glyph data 1" ellipsis dx=0 dy=0 dh=-61 dv=0 dx=0 dy=0 dh=0 dv=0
PairPos2: "'kern' Horizontal Kerning in Latin lookup 0 per glyph data 1" ellipsis dx=0 dy=0 dh=-61 dv=0 dx=0 dy=0 dh=0 dv=0
PairPos2: "'kern' Horizontal Kerning in Latin lookup 0 per glyph data 1" ellipsis dx=0 dy=0 dh=-61 dv=0 dx=0 dy=0 dh=0 dv=0
PairPos2: "'kern' Horizontal Kerning in Latin lookup 0 per glyph data 1" quotedblbase dx=0 dy=0 dh=-61 dv=0 dx=0 dy=0 dh=0 dv=0
PairPos2: "'kern' Horizontal Kerning in Latin lookup 0 per glyph data 1" quotedblbase dx=0 dy=0 dh=-61 dv=0 dx=0 dy=0 dh=0 dv=0
PairPos2: "'kern' Horizontal Kerning in Latin lookup 0 per glyph data 1" quotedblbase dx=0 dy=0 dh=-61 dv=0 dx=0 dy=0 dh=0 dv=0
PairPos2: "'kern' Horizontal Kerning in Latin lookup 0 per glyph data 1" quotedblbase dx=0 dy=0 dh=-61 dv=0 dx=0 dy=0 dh=0 dv=0
PairPos2: "'kern' Horizontal Kerning in Latin lookup 0 per glyph data 1" quotedblbase dx=0 dy=0 dh=-61 dv=0 dx=0 dy=0 dh=0 dv=0
PairPos2: "'kern' Horizontal Kerning in Latin lookup 0 per glyph data 1" quotedblbase dx=0 dy=0 dh=-61 dv=0 dx=0 dy=0 dh=0 dv=0
PairPos2: "'kern' Horizontal Kerning in Latin lookup 0 per glyph data 1" quotesinglbase dx=0 dy=0 dh=-61 dv=0 dx=0 dy=0 dh=0 dv=0
PairPos2: "'kern' Horizontal Kerning in Latin lookup 0 per glyph data 1" quotesinglbase dx=0 dy=0 dh=-61 dv=0 dx=0 dy=0 dh=0 dv=0
PairPos2: "'kern' Horizontal Kerning in Latin lookup 0 per glyph data 1" quotesinglbase dx=0 dy=0 dh=-61 dv=0 dx=0 dy=0 dh=0 dv=0
PairPos2: "'kern' Horizontal Kerning in Latin lookup 0 per glyph data 1" quotesinglbase dx=0 dy=0 dh=-61 dv=0 dx=0 dy=0 dh=0 dv=0
PairPos2: "'kern' Horizontal Kerning in Latin lookup 0 per glyph data 1" quotesinglbase dx=0 dy=0 dh=-61 dv=0 dx=0 dy=0 dh=0 dv=0
PairPos2: "'kern' Horizontal Kerning in Latin lookup 0 per glyph data 1" quotesinglbase dx=0 dy=0 dh=-61 dv=0 dx=0 dy=0 dh=0 dv=0
PairPos2: "'kern' Horizontal Kerning in Latin lookup 0 per glyph data 1" three dx=0 dy=0 dh=-31 dv=0 dx=0 dy=0 dh=0 dv=0
PairPos2: "'kern' Horizontal Kerning in Latin lookup 0 per glyph data 1" three dx=0 dy=0 dh=-31 dv=0 dx=0 dy=0 dh=0 dv=0
PairPos2: "'kern' Horizontal Kerning in Latin lookup 0 per glyph data 1" three dx=0 dy=0 dh=-31 dv=0 dx=0 dy=0 dh=0 dv=0
PairPos2: "'kern' Horizontal Kerning in Latin lookup 0 per glyph data 1" three dx=0 dy=0 dh=-31 dv=0 dx=0 dy=0 dh=0 dv=0
PairPos2: "'kern' Horizontal Kerning in Latin lookup 0 per glyph data 1" three dx=0 dy=0 dh=-31 dv=0 dx=0 dy=0 dh=0 dv=0
PairPos2: "'kern' Horizontal Kerning in Latin lookup 0 per glyph data 1" three dx=0 dy=0 dh=-31 dv=0 dx=0 dy=0 dh=0 dv=0
PairPos2: "'kern' Horizontal Kerning in Latin lookup 0 per glyph data 1" two dx=0 dy=0 dh=-51 dv=0 dx=0 dy=0 dh=0 dv=0
PairPos2: "'kern' Horizontal Kerning in Latin lookup 0 per glyph data 1" two dx=0 dy=0 dh=-51 dv=0 dx=0 dy=0 dh=0 dv=0
PairPos2: "'kern' Horizontal Kerning in Latin lookup 0 per glyph data 1" two dx=0 dy=0 dh=-51 dv=0 dx=0 dy=0 dh=0 dv=0
PairPos2: "'kern' Horizontal Kerning in Latin lookup 0 per glyph data 1" two dx=0 dy=0 dh=-51 dv=0 dx=0 dy=0 dh=0 dv=0
PairPos2: "'kern' Horizontal Kerning in Latin lookup 0 per glyph data 1" two dx=0 dy=0 dh=-51 dv=0 dx=0 dy=0 dh=0 dv=0
PairPos2: "'kern' Horizontal Kerning in Latin lookup 0 per glyph data 1" two dx=0 dy=0 dh=-51 dv=0 dx=0 dy=0 dh=0 dv=0
PairPos2: "'kern' Horizontal Kerning in Latin lookup 0 per glyph data 1" slash dx=0 dy=0 dh=-92 dv=0 dx=0 dy=0 dh=0 dv=0
PairPos2: "'kern' Horizontal Kerning in Latin lookup 0 per glyph data 1" slash dx=0 dy=0 dh=-92 dv=0 dx=0 dy=0 dh=0 dv=0
PairPos2: "'kern' Horizontal Kerning in Latin lookup 0 per glyph data 1" slash dx=0 dy=0 dh=-92 dv=0 dx=0 dy=0 dh=0 dv=0
PairPos2: "'kern' Horizontal Kerning in Latin lookup 0 per glyph data 1" slash dx=0 dy=0 dh=-92 dv=0 dx=0 dy=0 dh=0 dv=0
PairPos2: "'kern' Horizontal Kerning in Latin lookup 0 per glyph data 1" slash dx=0 dy=0 dh=-92 dv=0 dx=0 dy=0 dh=0 dv=0
PairPos2: "'kern' Horizontal Kerning in Latin lookup 0 per glyph data 1" slash dx=0 dy=0 dh=-92 dv=0 dx=0 dy=0 dh=0 dv=0
PairPos2: "'kern' Horizontal Kerning in Latin lookup 0 per glyph data 1" period dx=0 dy=0 dh=-61 dv=0 dx=0 dy=0 dh=0 dv=0
PairPos2: "'kern' Horizontal Kerning in Latin lookup 0 per glyph data 1" period dx=0 dy=0 dh=-61 dv=0 dx=0 dy=0 dh=0 dv=0
PairPos2: "'kern' Horizontal Kerning in Latin lookup 0 per glyph data 1" period dx=0 dy=0 dh=-61 dv=0 dx=0 dy=0 dh=0 dv=0
PairPos2: "'kern' Horizontal Kerning in Latin lookup 0 per glyph data 1" period dx=0 dy=0 dh=-61 dv=0 dx=0 dy=0 dh=0 dv=0
PairPos2: "'kern' Horizontal Kerning in Latin lookup 0 per glyph data 1" period dx=0 dy=0 dh=-61 dv=0 dx=0 dy=0 dh=0 dv=0
PairPos2: "'kern' Horizontal Kerning in Latin lookup 0 per glyph data 1" period dx=0 dy=0 dh=-61 dv=0 dx=0 dy=0 dh=0 dv=0
PairPos2: "'kern' Horizontal Kerning in Latin lookup 0 per glyph data 1" comma dx=0 dy=0 dh=-61 dv=0 dx=0 dy=0 dh=0 dv=0
PairPos2: "'kern' Horizontal Kerning in Latin lookup 0 per glyph data 1" comma dx=0 dy=0 dh=-61 dv=0 dx=0 dy=0 dh=0 dv=0
PairPos2: "'kern' Horizontal Kerning in Latin lookup 0 per glyph data 1" comma dx=0 dy=0 dh=-61 dv=0 dx=0 dy=0 dh=0 dv=0
PairPos2: "'kern' Horizontal Kerning in Latin lookup 0 per glyph data 1" comma dx=0 dy=0 dh=-61 dv=0 dx=0 dy=0 dh=0 dv=0
PairPos2: "'kern' Horizontal Kerning in Latin lookup 0 per glyph data 1" comma dx=0 dy=0 dh=-61 dv=0 dx=0 dy=0 dh=0 dv=0
PairPos2: "'kern' Horizontal Kerning in Latin lookup 0 per glyph data 1" comma dx=0 dy=0 dh=-61 dv=0 dx=0 dy=0 dh=0 dv=0
EndChar

StartChar: colon
Encoding: 58 58 30
Width: 565
GlyphClass: 2
Flags: W
LayerCount: 2
Fore
SplineSet
88 166 m 1,0,-1
 88 174 l 1,1,2
 133 189 133 189 197.5 254 c 128,-1,3
 262 319 262 319 279 367 c 1,4,-1
 287 367 l 1,5,6
 304 319 304 319 368 254 c 128,-1,7
 432 189 432 189 477 174 c 1,8,-1
 477 166 l 1,9,-1
 287 -20 l 1,10,-1
 279 -20 l 1,11,-1
 88 166 l 1,0,-1
88 782 m 1,12,-1
 88 791 l 1,13,-1
 279 977 l 1,14,-1
 287 977 l 1,15,-1
 477 791 l 1,16,-1
 477 782 l 1,17,18
 432 767 432 767 368 702.5 c 128,-1,19
 304 638 304 638 287 590 c 1,20,-1
 279 590 l 1,21,22
 262 638 262 638 197.5 702.5 c 128,-1,23
 133 767 133 767 88 782 c 1,12,-1
EndSplineSet
Validated: 1
EndChar

StartChar: semicolon
Encoding: 59 59 31
Width: 565
GlyphClass: 2
Flags: W
LayerCount: 2
Fore
SplineSet
88 782 m 1,0,-1
 88 791 l 1,1,-1
 279 977 l 1,2,-1
 287 977 l 1,3,-1
 477 791 l 1,4,-1
 477 782 l 1,5,6
 432 767 432 767 368 702.5 c 128,-1,7
 304 638 304 638 287 590 c 1,8,-1
 279 590 l 1,9,10
 262 638 262 638 197.5 702.5 c 128,-1,11
 133 767 133 767 88 782 c 1,0,-1
98 172 m 1,12,-1
 98 180 l 1,13,-1
 279 356 l 1,14,-1
 287 356 l 1,15,-1
 467 180 l 1,16,-1
 467 172 l 1,17,-1
 205 -338 l 1,18,-1
 197 -334 l 1,19,20
 223 -227 223 -227 223 -137 c 0,21,22
 223 66 223 66 98 172 c 1,12,-1
EndSplineSet
Validated: 1
EndChar

StartChar: less
Encoding: 60 60 32
Width: 1269
GlyphClass: 2
Flags: W
LayerCount: 2
Fore
SplineSet
154 612 m 1,0,-1
 154 793 l 1,1,-1
 1040 1153 l 1,2,-1
 1116 969 l 1,3,-1
 444 702 l 1,4,-1
 1116 436 l 1,5,-1
 1040 252 l 1,6,-1
 154 612 l 1,0,-1
EndSplineSet
Validated: 1
EndChar

StartChar: equal
Encoding: 61 61 33
Width: 1269
GlyphClass: 2
Flags: W
LayerCount: 2
Fore
SplineSet
154 395 m 1,0,-1
 154 600 l 1,1,-1
 1116 600 l 1,2,-1
 1116 395 l 1,3,-1
 154 395 l 1,0,-1
154 805 m 1,4,-1
 154 1010 l 1,5,-1
 1116 1010 l 1,6,-1
 1116 805 l 1,7,-1
 154 805 l 1,4,-1
EndSplineSet
Validated: 1
EndChar

StartChar: greater
Encoding: 62 62 34
Width: 1269
GlyphClass: 2
Flags: W
LayerCount: 2
Fore
SplineSet
154 436 m 1,0,-1
 825 702 l 1,1,-1
 154 969 l 1,2,-1
 229 1153 l 1,3,-1
 1116 793 l 1,4,-1
 1116 612 l 1,5,-1
 229 252 l 1,6,-1
 154 436 l 1,0,-1
EndSplineSet
Validated: 1
EndChar

StartChar: question
Encoding: 63 63 35
Width: 1097
GlyphClass: 2
Flags: W
LayerCount: 2
Fore
SplineSet
61 1286 m 1,0,1
 142 1360 142 1360 251 1407 c 128,-1,2
 360 1454 360 1454 487 1454 c 0,3,4
 697 1454 697 1454 825.5 1353 c 128,-1,5
 954 1252 954 1252 954 1085 c 0,6,7
 954 922 954 922 851.5 799 c 128,-1,8
 749 676 749 676 565 598 c 1,9,-1
 487 422 l 1,10,-1
 479 422 l 1,11,-1
 367 668 l 1,12,13
 437 697 437 697 487 734.5 c 128,-1,14
 537 772 537 772 565.5 810 c 128,-1,15
 594 848 594 848 610.5 897 c 128,-1,16
 627 946 627 946 632 988 c 128,-1,17
 637 1030 637 1030 637 1085 c 0,18,19
 637 1209 637 1209 591 1280.5 c 128,-1,20
 545 1352 545 1352 457 1352 c 0,21,22
 372 1352 372 1352 325.5 1284.5 c 128,-1,23
 279 1217 279 1217 279 1126 c 0,24,25
 279 1047 279 1047 295 1004 c 1,26,-1
 289 997 l 1,27,-1
 61 1286 l 1,0,1
289 166 m 1,28,-1
 289 174 l 1,29,30
 334 189 334 189 398 254 c 128,-1,31
 462 319 462 319 479 367 c 1,32,-1
 487 367 l 1,33,34
 504 319 504 319 568.5 254 c 128,-1,35
 633 189 633 189 678 174 c 1,36,-1
 678 166 l 1,37,-1
 487 -20 l 1,38,-1
 479 -20 l 1,39,-1
 289 166 l 1,28,-1
EndSplineSet
Validated: 1
Position2: "'cpsp' Capital Spacing in Latin lookup 1 subtable" dx=16 dy=0 dh=16 dv=0
EndChar

StartChar: at
Encoding: 64 64 36
Width: 1597
GlyphClass: 2
Flags: W
LayerCount: 2
Fore
SplineSet
72 502 m 128,-1,1
 72 704 72 704 170 876.5 c 128,-1,2
 268 1049 268 1049 435.5 1149 c 128,-1,3
 603 1249 603 1249 799 1249 c 128,-1,4
 995 1249 995 1249 1162.5 1149 c 128,-1,5
 1330 1049 1330 1049 1428 876.5 c 128,-1,6
 1526 704 1526 704 1526 502 c 0,7,8
 1526 350 1526 350 1467.5 209 c 128,-1,9
 1409 68 1409 68 1307 -31 c 1,10,-1
 854 420 l 1,11,-1
 922 815 l 1,12,13
 894 819 894 819 891 819 c 0,14,15
 822 819 822 819 768 771.5 c 128,-1,16
 714 724 714 724 684.5 651.5 c 128,-1,17
 655 579 655 579 640 506.5 c 128,-1,18
 625 434 625 434 625 371 c 0,19,20
 625 292 625 292 655.5 254.5 c 128,-1,21
 686 217 686 217 735 217 c 0,22,23
 808 217 808 217 864 258 c 1,24,-1
 897 205 l 1,25,26
 864 169 864 169 807 142 c 128,-1,27
 750 115 750 115 686 115 c 0,28,29
 538 115 538 115 454.5 194 c 128,-1,30
 371 273 371 273 371 406 c 0,31,32
 371 497 371 497 407 586.5 c 128,-1,33
 443 676 443 676 506.5 748.5 c 128,-1,34
 570 821 570 821 667.5 866 c 128,-1,35
 765 911 765 911 877 911 c 0,36,37
 1027 911 1027 911 1188 852 c 1,38,-1
 1135 559 l 2,39,40
 1112 418 1112 418 1112 365 c 0,41,42
 1112 280 1112 280 1149.5 232 c 128,-1,43
 1187 184 1187 184 1249 184 c 0,44,45
 1317 184 1317 184 1357 264 c 128,-1,46
 1397 344 1397 344 1397 502 c 0,47,48
 1397 632 1397 632 1349.5 750 c 128,-1,49
 1302 868 1302 868 1222 952.5 c 128,-1,50
 1142 1037 1142 1037 1031.5 1087 c 128,-1,51
 921 1137 921 1137 799 1137 c 128,-1,52
 677 1137 677 1137 566.5 1087 c 128,-1,53
 456 1037 456 1037 376 952.5 c 128,-1,54
 296 868 296 868 248.5 750 c 128,-1,55
 201 632 201 632 201 502 c 0,56,57
 201 327 201 327 281 181 c 128,-1,58
 361 35 361 35 498 -49 c 128,-1,59
 635 -133 635 -133 797 -133 c 0,60,61
 854 -133 854 -133 882.5 -106.5 c 128,-1,62
 911 -80 911 -80 911 -33 c 0,63,64
 911 10 911 10 889 57 c 1,65,-1
 895 61 l 1,66,-1
 1124 -166 l 1,67,68
 981 -246 981 -246 797 -246 c 0,69,70
 602 -246 602 -246 435 -145.5 c 128,-1,71
 268 -45 268 -45 170 127.5 c 128,-1,0
 72 300 72 300 72 502 c 128,-1,1
EndSplineSet
Validated: 1
EndChar

StartChar: A
Encoding: 65 65 37
Width: 1308
GlyphClass: 2
Flags: W
LayerCount: 2
Fore
SplineSet
-31 0 m 1,0,-1
 -31 8 l 1,1,-1
 72 78 l 1,2,-1
 659 1495 l 1,3,-1
 668 1495 l 1,4,-1
 1237 78 l 1,5,-1
 1339 8 l 1,6,-1
 1339 0 l 1,7,-1
 940 0 l 1,8,-1
 780 428 l 1,9,-1
 608 317 l 1,10,-1
 348 317 l 1,11,-1
 319 248 l 2,12,13
 297 190 297 190 297 143 c 0,14,15
 297 42 297 42 406 8 c 1,16,-1
 406 0 l 1,17,-1
 -31 0 l 1,0,-1
408 467 m 1,18,-1
 766 467 l 1,19,-1
 600 918 l 1,20,-1
 592 918 l 1,21,-1
 408 467 l 1,18,-1
EndSplineSet
Validated: 1
Substitution2: "Single Substitution lookup 7 subtable" a
Position2: "'cpsp' Capital Spacing in Latin lookup 1 subtable" dx=16 dy=0 dh=16 dv=0
EndChar

StartChar: B
Encoding: 66 66 38
Width: 1230
GlyphClass: 2
Flags: W
LayerCount: 2
Fore
SplineSet
92 0 m 1,0,-1
 92 8 l 1,1,-1
 205 78 l 1,2,-1
 205 1192 l 1,3,-1
 459 1192 l 1,4,-1
 459 1200 l 1,5,-1
 92 1425 l 1,6,-1
 92 1434 l 1,7,-1
 594 1434 l 2,8,9
 840 1434 840 1434 972 1347 c 128,-1,10
 1104 1260 1104 1260 1104 1081 c 0,11,12
 1104 974 1104 974 1040 898.5 c 128,-1,13
 976 823 976 823 860 782 c 1,14,-1
 860 774 l 1,15,16
 1006 733 1006 733 1087.5 635 c 128,-1,17
 1169 537 1169 537 1169 391 c 0,18,19
 1169 193 1169 193 1047.5 96.5 c 128,-1,20
 926 0 926 0 696 0 c 2,21,-1
 92 0 l 1,0,-1
502 133 m 1,22,-1
 594 133 l 2,23,24
 670 133 670 133 722 152.5 c 128,-1,25
 774 172 774 172 801.5 209.5 c 128,-1,26
 829 247 829 247 840.5 293.5 c 128,-1,27
 852 340 852 340 852 403 c 0,28,29
 852 539 852 539 775 629 c 128,-1,30
 698 719 698 719 539 784 c 1,31,-1
 539 793 l 1,32,33
 669 793 669 793 733 865.5 c 128,-1,34
 797 938 797 938 797 1063 c 0,35,36
 797 1176 797 1176 746 1238 c 128,-1,37
 695 1300 695 1300 575 1300 c 2,38,-1
 502 1300 l 1,39,-1
 502 133 l 1,22,-1
EndSplineSet
Validated: 1
Substitution2: "Single Substitution lookup 7 subtable" b
Position2: "'cpsp' Capital Spacing in Latin lookup 1 subtable" dx=16 dy=0 dh=16 dv=0
PairPos2: "'kern' Horizontal Kerning in Latin lookup 0 per glyph data 1" quotedblright dx=0 dy=0 dh=-51 dv=0 dx=0 dy=0 dh=0 dv=0
PairPos2: "'kern' Horizontal Kerning in Latin lookup 0 per glyph data 1" quotedblright dx=0 dy=0 dh=-51 dv=0 dx=0 dy=0 dh=0 dv=0
PairPos2: "'kern' Horizontal Kerning in Latin lookup 0 per glyph data 1" quotedblright dx=0 dy=0 dh=-51 dv=0 dx=0 dy=0 dh=0 dv=0
PairPos2: "'kern' Horizontal Kerning in Latin lookup 0 per glyph data 1" quotedblright dx=0 dy=0 dh=-51 dv=0 dx=0 dy=0 dh=0 dv=0
PairPos2: "'kern' Horizontal Kerning in Latin lookup 0 per glyph data 1" quotedblright dx=0 dy=0 dh=-51 dv=0 dx=0 dy=0 dh=0 dv=0
PairPos2: "'kern' Horizontal Kerning in Latin lookup 0 per glyph data 1" quotedblright dx=0 dy=0 dh=-51 dv=0 dx=0 dy=0 dh=0 dv=0
PairPos2: "'kern' Horizontal Kerning in Latin lookup 0 per glyph data 1" quoteright dx=0 dy=0 dh=-51 dv=0 dx=0 dy=0 dh=0 dv=0
PairPos2: "'kern' Horizontal Kerning in Latin lookup 0 per glyph data 1" quoteright dx=0 dy=0 dh=-51 dv=0 dx=0 dy=0 dh=0 dv=0
PairPos2: "'kern' Horizontal Kerning in Latin lookup 0 per glyph data 1" quoteright dx=0 dy=0 dh=-51 dv=0 dx=0 dy=0 dh=0 dv=0
PairPos2: "'kern' Horizontal Kerning in Latin lookup 0 per glyph data 1" quoteright dx=0 dy=0 dh=-51 dv=0 dx=0 dy=0 dh=0 dv=0
PairPos2: "'kern' Horizontal Kerning in Latin lookup 0 per glyph data 1" quoteright dx=0 dy=0 dh=-51 dv=0 dx=0 dy=0 dh=0 dv=0
PairPos2: "'kern' Horizontal Kerning in Latin lookup 0 per glyph data 1" quoteright dx=0 dy=0 dh=-51 dv=0 dx=0 dy=0 dh=0 dv=0
PairPos2: "'kern' Horizontal Kerning in Latin lookup 0 per glyph data 1" Ydieresis dx=0 dy=0 dh=-72 dv=0 dx=0 dy=0 dh=0 dv=0
PairPos2: "'kern' Horizontal Kerning in Latin lookup 0 per glyph data 1" Ydieresis dx=0 dy=0 dh=-72 dv=0 dx=0 dy=0 dh=0 dv=0
PairPos2: "'kern' Horizontal Kerning in Latin lookup 0 per glyph data 1" Ydieresis dx=0 dy=0 dh=-72 dv=0 dx=0 dy=0 dh=0 dv=0
PairPos2: "'kern' Horizontal Kerning in Latin lookup 0 per glyph data 1" Ydieresis dx=0 dy=0 dh=-72 dv=0 dx=0 dy=0 dh=0 dv=0
PairPos2: "'kern' Horizontal Kerning in Latin lookup 0 per glyph data 1" Ydieresis dx=0 dy=0 dh=-72 dv=0 dx=0 dy=0 dh=0 dv=0
PairPos2: "'kern' Horizontal Kerning in Latin lookup 0 per glyph data 1" Ydieresis dx=0 dy=0 dh=-72 dv=0 dx=0 dy=0 dh=0 dv=0
PairPos2: "'kern' Horizontal Kerning in Latin lookup 0 per glyph data 1" ydieresis dx=0 dy=0 dh=-10 dv=0 dx=0 dy=0 dh=0 dv=0
PairPos2: "'kern' Horizontal Kerning in Latin lookup 0 per glyph data 1" ydieresis dx=0 dy=0 dh=-10 dv=0 dx=0 dy=0 dh=0 dv=0
PairPos2: "'kern' Horizontal Kerning in Latin lookup 0 per glyph data 1" ydieresis dx=0 dy=0 dh=-10 dv=0 dx=0 dy=0 dh=0 dv=0
PairPos2: "'kern' Horizontal Kerning in Latin lookup 0 per glyph data 1" ydieresis dx=0 dy=0 dh=-10 dv=0 dx=0 dy=0 dh=0 dv=0
PairPos2: "'kern' Horizontal Kerning in Latin lookup 0 per glyph data 1" ydieresis dx=0 dy=0 dh=-10 dv=0 dx=0 dy=0 dh=0 dv=0
PairPos2: "'kern' Horizontal Kerning in Latin lookup 0 per glyph data 1" ydieresis dx=0 dy=0 dh=-10 dv=0 dx=0 dy=0 dh=0 dv=0
PairPos2: "'kern' Horizontal Kerning in Latin lookup 0 per glyph data 1" yacute dx=0 dy=0 dh=-10 dv=0 dx=0 dy=0 dh=0 dv=0
PairPos2: "'kern' Horizontal Kerning in Latin lookup 0 per glyph data 1" yacute dx=0 dy=0 dh=-10 dv=0 dx=0 dy=0 dh=0 dv=0
PairPos2: "'kern' Horizontal Kerning in Latin lookup 0 per glyph data 1" yacute dx=0 dy=0 dh=-10 dv=0 dx=0 dy=0 dh=0 dv=0
PairPos2: "'kern' Horizontal Kerning in Latin lookup 0 per glyph data 1" yacute dx=0 dy=0 dh=-10 dv=0 dx=0 dy=0 dh=0 dv=0
PairPos2: "'kern' Horizontal Kerning in Latin lookup 0 per glyph data 1" yacute dx=0 dy=0 dh=-10 dv=0 dx=0 dy=0 dh=0 dv=0
PairPos2: "'kern' Horizontal Kerning in Latin lookup 0 per glyph data 1" yacute dx=0 dy=0 dh=-10 dv=0 dx=0 dy=0 dh=0 dv=0
PairPos2: "'kern' Horizontal Kerning in Latin lookup 0 per glyph data 1" aacute dx=0 dy=0 dh=-31 dv=0 dx=0 dy=0 dh=0 dv=0
PairPos2: "'kern' Horizontal Kerning in Latin lookup 0 per glyph data 1" aacute dx=0 dy=0 dh=-31 dv=0 dx=0 dy=0 dh=0 dv=0
PairPos2: "'kern' Horizontal Kerning in Latin lookup 0 per glyph data 1" aacute dx=0 dy=0 dh=-31 dv=0 dx=0 dy=0 dh=0 dv=0
PairPos2: "'kern' Horizontal Kerning in Latin lookup 0 per glyph data 1" aacute dx=0 dy=0 dh=-31 dv=0 dx=0 dy=0 dh=0 dv=0
PairPos2: "'kern' Horizontal Kerning in Latin lookup 0 per glyph data 1" aacute dx=0 dy=0 dh=-31 dv=0 dx=0 dy=0 dh=0 dv=0
PairPos2: "'kern' Horizontal Kerning in Latin lookup 0 per glyph data 1" aacute dx=0 dy=0 dh=-31 dv=0 dx=0 dy=0 dh=0 dv=0
PairPos2: "'kern' Horizontal Kerning in Latin lookup 0 per glyph data 1" Yacute dx=0 dy=0 dh=-72 dv=0 dx=0 dy=0 dh=0 dv=0
PairPos2: "'kern' Horizontal Kerning in Latin lookup 0 per glyph data 1" Yacute dx=0 dy=0 dh=-72 dv=0 dx=0 dy=0 dh=0 dv=0
PairPos2: "'kern' Horizontal Kerning in Latin lookup 0 per glyph data 1" Yacute dx=0 dy=0 dh=-72 dv=0 dx=0 dy=0 dh=0 dv=0
PairPos2: "'kern' Horizontal Kerning in Latin lookup 0 per glyph data 1" Yacute dx=0 dy=0 dh=-72 dv=0 dx=0 dy=0 dh=0 dv=0
PairPos2: "'kern' Horizontal Kerning in Latin lookup 0 per glyph data 1" Yacute dx=0 dy=0 dh=-72 dv=0 dx=0 dy=0 dh=0 dv=0
PairPos2: "'kern' Horizontal Kerning in Latin lookup 0 per glyph data 1" Yacute dx=0 dy=0 dh=-72 dv=0 dx=0 dy=0 dh=0 dv=0
PairPos2: "'kern' Horizontal Kerning in Latin lookup 0 per glyph data 1" Aring dx=0 dy=0 dh=-31 dv=0 dx=0 dy=0 dh=0 dv=0
PairPos2: "'kern' Horizontal Kerning in Latin lookup 0 per glyph data 1" Aring dx=0 dy=0 dh=-31 dv=0 dx=0 dy=0 dh=0 dv=0
PairPos2: "'kern' Horizontal Kerning in Latin lookup 0 per glyph data 1" Aring dx=0 dy=0 dh=-31 dv=0 dx=0 dy=0 dh=0 dv=0
PairPos2: "'kern' Horizontal Kerning in Latin lookup 0 per glyph data 1" Aring dx=0 dy=0 dh=-31 dv=0 dx=0 dy=0 dh=0 dv=0
PairPos2: "'kern' Horizontal Kerning in Latin lookup 0 per glyph data 1" Aring dx=0 dy=0 dh=-31 dv=0 dx=0 dy=0 dh=0 dv=0
PairPos2: "'kern' Horizontal Kerning in Latin lookup 0 per glyph data 1" Aring dx=0 dy=0 dh=-31 dv=0 dx=0 dy=0 dh=0 dv=0
PairPos2: "'kern' Horizontal Kerning in Latin lookup 0 per glyph data 1" Adieresis dx=0 dy=0 dh=-31 dv=0 dx=0 dy=0 dh=0 dv=0
PairPos2: "'kern' Horizontal Kerning in Latin lookup 0 per glyph data 1" Adieresis dx=0 dy=0 dh=-31 dv=0 dx=0 dy=0 dh=0 dv=0
PairPos2: "'kern' Horizontal Kerning in Latin lookup 0 per glyph data 1" Adieresis dx=0 dy=0 dh=-31 dv=0 dx=0 dy=0 dh=0 dv=0
PairPos2: "'kern' Horizontal Kerning in Latin lookup 0 per glyph data 1" Adieresis dx=0 dy=0 dh=-31 dv=0 dx=0 dy=0 dh=0 dv=0
PairPos2: "'kern' Horizontal Kerning in Latin lookup 0 per glyph data 1" Adieresis dx=0 dy=0 dh=-31 dv=0 dx=0 dy=0 dh=0 dv=0
PairPos2: "'kern' Horizontal Kerning in Latin lookup 0 per glyph data 1" Adieresis dx=0 dy=0 dh=-31 dv=0 dx=0 dy=0 dh=0 dv=0
PairPos2: "'kern' Horizontal Kerning in Latin lookup 0 per glyph data 1" Atilde dx=0 dy=0 dh=-31 dv=0 dx=0 dy=0 dh=0 dv=0
PairPos2: "'kern' Horizontal Kerning in Latin lookup 0 per glyph data 1" Atilde dx=0 dy=0 dh=-31 dv=0 dx=0 dy=0 dh=0 dv=0
PairPos2: "'kern' Horizontal Kerning in Latin lookup 0 per glyph data 1" Atilde dx=0 dy=0 dh=-31 dv=0 dx=0 dy=0 dh=0 dv=0
PairPos2: "'kern' Horizontal Kerning in Latin lookup 0 per glyph data 1" Atilde dx=0 dy=0 dh=-31 dv=0 dx=0 dy=0 dh=0 dv=0
PairPos2: "'kern' Horizontal Kerning in Latin lookup 0 per glyph data 1" Atilde dx=0 dy=0 dh=-31 dv=0 dx=0 dy=0 dh=0 dv=0
PairPos2: "'kern' Horizontal Kerning in Latin lookup 0 per glyph data 1" Atilde dx=0 dy=0 dh=-31 dv=0 dx=0 dy=0 dh=0 dv=0
PairPos2: "'kern' Horizontal Kerning in Latin lookup 0 per glyph data 1" Acircumflex dx=0 dy=0 dh=-31 dv=0 dx=0 dy=0 dh=0 dv=0
PairPos2: "'kern' Horizontal Kerning in Latin lookup 0 per glyph data 1" Acircumflex dx=0 dy=0 dh=-31 dv=0 dx=0 dy=0 dh=0 dv=0
PairPos2: "'kern' Horizontal Kerning in Latin lookup 0 per glyph data 1" Acircumflex dx=0 dy=0 dh=-31 dv=0 dx=0 dy=0 dh=0 dv=0
PairPos2: "'kern' Horizontal Kerning in Latin lookup 0 per glyph data 1" Acircumflex dx=0 dy=0 dh=-31 dv=0 dx=0 dy=0 dh=0 dv=0
PairPos2: "'kern' Horizontal Kerning in Latin lookup 0 per glyph data 1" Acircumflex dx=0 dy=0 dh=-31 dv=0 dx=0 dy=0 dh=0 dv=0
PairPos2: "'kern' Horizontal Kerning in Latin lookup 0 per glyph data 1" Acircumflex dx=0 dy=0 dh=-31 dv=0 dx=0 dy=0 dh=0 dv=0
PairPos2: "'kern' Horizontal Kerning in Latin lookup 0 per glyph data 1" Aacute dx=0 dy=0 dh=-31 dv=0 dx=0 dy=0 dh=0 dv=0
PairPos2: "'kern' Horizontal Kerning in Latin lookup 0 per glyph data 1" Aacute dx=0 dy=0 dh=-31 dv=0 dx=0 dy=0 dh=0 dv=0
PairPos2: "'kern' Horizontal Kerning in Latin lookup 0 per glyph data 1" Aacute dx=0 dy=0 dh=-31 dv=0 dx=0 dy=0 dh=0 dv=0
PairPos2: "'kern' Horizontal Kerning in Latin lookup 0 per glyph data 1" Aacute dx=0 dy=0 dh=-31 dv=0 dx=0 dy=0 dh=0 dv=0
PairPos2: "'kern' Horizontal Kerning in Latin lookup 0 per glyph data 1" Aacute dx=0 dy=0 dh=-31 dv=0 dx=0 dy=0 dh=0 dv=0
PairPos2: "'kern' Horizontal Kerning in Latin lookup 0 per glyph data 1" Aacute dx=0 dy=0 dh=-31 dv=0 dx=0 dy=0 dh=0 dv=0
PairPos2: "'kern' Horizontal Kerning in Latin lookup 0 per glyph data 1" Agrave dx=0 dy=0 dh=-31 dv=0 dx=0 dy=0 dh=0 dv=0
PairPos2: "'kern' Horizontal Kerning in Latin lookup 0 per glyph data 1" Agrave dx=0 dy=0 dh=-31 dv=0 dx=0 dy=0 dh=0 dv=0
PairPos2: "'kern' Horizontal Kerning in Latin lookup 0 per glyph data 1" Agrave dx=0 dy=0 dh=-31 dv=0 dx=0 dy=0 dh=0 dv=0
PairPos2: "'kern' Horizontal Kerning in Latin lookup 0 per glyph data 1" Agrave dx=0 dy=0 dh=-31 dv=0 dx=0 dy=0 dh=0 dv=0
PairPos2: "'kern' Horizontal Kerning in Latin lookup 0 per glyph data 1" Agrave dx=0 dy=0 dh=-31 dv=0 dx=0 dy=0 dh=0 dv=0
PairPos2: "'kern' Horizontal Kerning in Latin lookup 0 per glyph data 1" Agrave dx=0 dy=0 dh=-31 dv=0 dx=0 dy=0 dh=0 dv=0
PairPos2: "'kern' Horizontal Kerning in Latin lookup 0 per glyph data 1" y dx=0 dy=0 dh=-10 dv=0 dx=0 dy=0 dh=0 dv=0
PairPos2: "'kern' Horizontal Kerning in Latin lookup 0 per glyph data 1" y dx=0 dy=0 dh=-10 dv=0 dx=0 dy=0 dh=0 dv=0
PairPos2: "'kern' Horizontal Kerning in Latin lookup 0 per glyph data 1" y dx=0 dy=0 dh=-10 dv=0 dx=0 dy=0 dh=0 dv=0
PairPos2: "'kern' Horizontal Kerning in Latin lookup 0 per glyph data 1" y dx=0 dy=0 dh=-10 dv=0 dx=0 dy=0 dh=0 dv=0
PairPos2: "'kern' Horizontal Kerning in Latin lookup 0 per glyph data 1" y dx=0 dy=0 dh=-10 dv=0 dx=0 dy=0 dh=0 dv=0
PairPos2: "'kern' Horizontal Kerning in Latin lookup 0 per glyph data 1" y dx=0 dy=0 dh=-10 dv=0 dx=0 dy=0 dh=0 dv=0
PairPos2: "'kern' Horizontal Kerning in Latin lookup 0 per glyph data 1" w dx=0 dy=0 dh=-10 dv=0 dx=0 dy=0 dh=0 dv=0
PairPos2: "'kern' Horizontal Kerning in Latin lookup 0 per glyph data 1" w dx=0 dy=0 dh=-10 dv=0 dx=0 dy=0 dh=0 dv=0
PairPos2: "'kern' Horizontal Kerning in Latin lookup 0 per glyph data 1" w dx=0 dy=0 dh=-10 dv=0 dx=0 dy=0 dh=0 dv=0
PairPos2: "'kern' Horizontal Kerning in Latin lookup 0 per glyph data 1" w dx=0 dy=0 dh=-10 dv=0 dx=0 dy=0 dh=0 dv=0
PairPos2: "'kern' Horizontal Kerning in Latin lookup 0 per glyph data 1" w dx=0 dy=0 dh=-10 dv=0 dx=0 dy=0 dh=0 dv=0
PairPos2: "'kern' Horizontal Kerning in Latin lookup 0 per glyph data 1" w dx=0 dy=0 dh=-10 dv=0 dx=0 dy=0 dh=0 dv=0
PairPos2: "'kern' Horizontal Kerning in Latin lookup 0 per glyph data 1" v dx=0 dy=0 dh=-10 dv=0 dx=0 dy=0 dh=0 dv=0
PairPos2: "'kern' Horizontal Kerning in Latin lookup 0 per glyph data 1" v dx=0 dy=0 dh=-10 dv=0 dx=0 dy=0 dh=0 dv=0
PairPos2: "'kern' Horizontal Kerning in Latin lookup 0 per glyph data 1" v dx=0 dy=0 dh=-10 dv=0 dx=0 dy=0 dh=0 dv=0
PairPos2: "'kern' Horizontal Kerning in Latin lookup 0 per glyph data 1" v dx=0 dy=0 dh=-10 dv=0 dx=0 dy=0 dh=0 dv=0
PairPos2: "'kern' Horizontal Kerning in Latin lookup 0 per glyph data 1" v dx=0 dy=0 dh=-10 dv=0 dx=0 dy=0 dh=0 dv=0
PairPos2: "'kern' Horizontal Kerning in Latin lookup 0 per glyph data 1" v dx=0 dy=0 dh=-10 dv=0 dx=0 dy=0 dh=0 dv=0
PairPos2: "'kern' Horizontal Kerning in Latin lookup 0 per glyph data 1" j dx=0 dy=0 dh=20 dv=0 dx=0 dy=0 dh=0 dv=0
PairPos2: "'kern' Horizontal Kerning in Latin lookup 0 per glyph data 1" j dx=0 dy=0 dh=20 dv=0 dx=0 dy=0 dh=0 dv=0
PairPos2: "'kern' Horizontal Kerning in Latin lookup 0 per glyph data 1" j dx=0 dy=0 dh=20 dv=0 dx=0 dy=0 dh=0 dv=0
PairPos2: "'kern' Horizontal Kerning in Latin lookup 0 per glyph data 1" j dx=0 dy=0 dh=20 dv=0 dx=0 dy=0 dh=0 dv=0
PairPos2: "'kern' Horizontal Kerning in Latin lookup 0 per glyph data 1" j dx=0 dy=0 dh=20 dv=0 dx=0 dy=0 dh=0 dv=0
PairPos2: "'kern' Horizontal Kerning in Latin lookup 0 per glyph data 1" j dx=0 dy=0 dh=20 dv=0 dx=0 dy=0 dh=0 dv=0
PairPos2: "'kern' Horizontal Kerning in Latin lookup 0 per glyph data 1" a dx=0 dy=0 dh=-31 dv=0 dx=0 dy=0 dh=0 dv=0
PairPos2: "'kern' Horizontal Kerning in Latin lookup 0 per glyph data 1" a dx=0 dy=0 dh=-31 dv=0 dx=0 dy=0 dh=0 dv=0
PairPos2: "'kern' Horizontal Kerning in Latin lookup 0 per glyph data 1" a dx=0 dy=0 dh=-31 dv=0 dx=0 dy=0 dh=0 dv=0
PairPos2: "'kern' Horizontal Kerning in Latin lookup 0 per glyph data 1" a dx=0 dy=0 dh=-31 dv=0 dx=0 dy=0 dh=0 dv=0
PairPos2: "'kern' Horizontal Kerning in Latin lookup 0 per glyph data 1" a dx=0 dy=0 dh=-31 dv=0 dx=0 dy=0 dh=0 dv=0
PairPos2: "'kern' Horizontal Kerning in Latin lookup 0 per glyph data 1" a dx=0 dy=0 dh=-31 dv=0 dx=0 dy=0 dh=0 dv=0
PairPos2: "'kern' Horizontal Kerning in Latin lookup 0 per glyph data 1" Y dx=0 dy=0 dh=-72 dv=0 dx=0 dy=0 dh=0 dv=0
PairPos2: "'kern' Horizontal Kerning in Latin lookup 0 per glyph data 1" Y dx=0 dy=0 dh=-72 dv=0 dx=0 dy=0 dh=0 dv=0
PairPos2: "'kern' Horizontal Kerning in Latin lookup 0 per glyph data 1" Y dx=0 dy=0 dh=-72 dv=0 dx=0 dy=0 dh=0 dv=0
PairPos2: "'kern' Horizontal Kerning in Latin lookup 0 per glyph data 1" Y dx=0 dy=0 dh=-72 dv=0 dx=0 dy=0 dh=0 dv=0
PairPos2: "'kern' Horizontal Kerning in Latin lookup 0 per glyph data 1" Y dx=0 dy=0 dh=-72 dv=0 dx=0 dy=0 dh=0 dv=0
PairPos2: "'kern' Horizontal Kerning in Latin lookup 0 per glyph data 1" Y dx=0 dy=0 dh=-72 dv=0 dx=0 dy=0 dh=0 dv=0
PairPos2: "'kern' Horizontal Kerning in Latin lookup 0 per glyph data 1" W dx=0 dy=0 dh=-51 dv=0 dx=0 dy=0 dh=0 dv=0
PairPos2: "'kern' Horizontal Kerning in Latin lookup 0 per glyph data 1" W dx=0 dy=0 dh=-51 dv=0 dx=0 dy=0 dh=0 dv=0
PairPos2: "'kern' Horizontal Kerning in Latin lookup 0 per glyph data 1" W dx=0 dy=0 dh=-51 dv=0 dx=0 dy=0 dh=0 dv=0
PairPos2: "'kern' Horizontal Kerning in Latin lookup 0 per glyph data 1" W dx=0 dy=0 dh=-51 dv=0 dx=0 dy=0 dh=0 dv=0
PairPos2: "'kern' Horizontal Kerning in Latin lookup 0 per glyph data 1" W dx=0 dy=0 dh=-51 dv=0 dx=0 dy=0 dh=0 dv=0
PairPos2: "'kern' Horizontal Kerning in Latin lookup 0 per glyph data 1" W dx=0 dy=0 dh=-51 dv=0 dx=0 dy=0 dh=0 dv=0
PairPos2: "'kern' Horizontal Kerning in Latin lookup 0 per glyph data 1" V dx=0 dy=0 dh=-51 dv=0 dx=0 dy=0 dh=0 dv=0
PairPos2: "'kern' Horizontal Kerning in Latin lookup 0 per glyph data 1" V dx=0 dy=0 dh=-51 dv=0 dx=0 dy=0 dh=0 dv=0
PairPos2: "'kern' Horizontal Kerning in Latin lookup 0 per glyph data 1" V dx=0 dy=0 dh=-51 dv=0 dx=0 dy=0 dh=0 dv=0
PairPos2: "'kern' Horizontal Kerning in Latin lookup 0 per glyph data 1" V dx=0 dy=0 dh=-51 dv=0 dx=0 dy=0 dh=0 dv=0
PairPos2: "'kern' Horizontal Kerning in Latin lookup 0 per glyph data 1" V dx=0 dy=0 dh=-51 dv=0 dx=0 dy=0 dh=0 dv=0
PairPos2: "'kern' Horizontal Kerning in Latin lookup 0 per glyph data 1" V dx=0 dy=0 dh=-51 dv=0 dx=0 dy=0 dh=0 dv=0
PairPos2: "'kern' Horizontal Kerning in Latin lookup 0 per glyph data 1" A dx=0 dy=0 dh=-31 dv=0 dx=0 dy=0 dh=0 dv=0
PairPos2: "'kern' Horizontal Kerning in Latin lookup 0 per glyph data 1" A dx=0 dy=0 dh=-31 dv=0 dx=0 dy=0 dh=0 dv=0
PairPos2: "'kern' Horizontal Kerning in Latin lookup 0 per glyph data 1" A dx=0 dy=0 dh=-31 dv=0 dx=0 dy=0 dh=0 dv=0
PairPos2: "'kern' Horizontal Kerning in Latin lookup 0 per glyph data 1" A dx=0 dy=0 dh=-31 dv=0 dx=0 dy=0 dh=0 dv=0
PairPos2: "'kern' Horizontal Kerning in Latin lookup 0 per glyph data 1" A dx=0 dy=0 dh=-31 dv=0 dx=0 dy=0 dh=0 dv=0
PairPos2: "'kern' Horizontal Kerning in Latin lookup 0 per glyph data 1" A dx=0 dy=0 dh=-31 dv=0 dx=0 dy=0 dh=0 dv=0
PairPos2: "'kern' Horizontal Kerning in Latin lookup 0 per glyph data 1" question dx=0 dy=0 dh=-41 dv=0 dx=0 dy=0 dh=0 dv=0
PairPos2: "'kern' Horizontal Kerning in Latin lookup 0 per glyph data 1" question dx=0 dy=0 dh=-41 dv=0 dx=0 dy=0 dh=0 dv=0
PairPos2: "'kern' Horizontal Kerning in Latin lookup 0 per glyph data 1" question dx=0 dy=0 dh=-41 dv=0 dx=0 dy=0 dh=0 dv=0
PairPos2: "'kern' Horizontal Kerning in Latin lookup 0 per glyph data 1" question dx=0 dy=0 dh=-41 dv=0 dx=0 dy=0 dh=0 dv=0
PairPos2: "'kern' Horizontal Kerning in Latin lookup 0 per glyph data 1" question dx=0 dy=0 dh=-41 dv=0 dx=0 dy=0 dh=0 dv=0
PairPos2: "'kern' Horizontal Kerning in Latin lookup 0 per glyph data 1" question dx=0 dy=0 dh=-41 dv=0 dx=0 dy=0 dh=0 dv=0
EndChar

StartChar: C
Encoding: 67 67 39
Width: 1212
GlyphClass: 2
Flags: W
LayerCount: 2
Fore
SplineSet
92 717 m 0,0,1
 92 882 92 882 141.5 1021 c 128,-1,2
 191 1160 191 1160 276.5 1254.5 c 128,-1,3
 362 1349 362 1349 478.5 1401.5 c 128,-1,4
 595 1454 595 1454 727 1454 c 0,5,6
 948 1454 948 1454 1130 1346 c 1,7,-1
 1081 952 l 1,8,-1
 1073 952 l 1,9,10
 1055 1010 1055 1010 1037 1056 c 128,-1,11
 1019 1102 1019 1102 990 1154 c 128,-1,12
 961 1206 961 1206 929 1240.5 c 128,-1,13
 897 1275 897 1275 852 1298 c 128,-1,14
 807 1321 807 1321 756 1321 c 0,15,16
 594 1321 594 1321 512 1172.5 c 128,-1,17
 430 1024 430 1024 430 737 c 0,18,19
 430 113 430 113 754 113 c 0,20,21
 819 113 819 113 871.5 142.5 c 128,-1,22
 924 172 924 172 963 228 c 128,-1,23
 1002 284 1002 284 1029 342.5 c 128,-1,24
 1056 401 1056 401 1083 481 c 1,25,-1
 1092 481 l 1,26,-1
 1141 98 l 1,27,28
 956 -20 956 -20 725 -20 c 0,29,30
 587 -20 587 -20 472 27 c 128,-1,31
 357 74 357 74 272 164.5 c 128,-1,32
 187 255 187 255 139.5 396.5 c 128,-1,33
 92 538 92 538 92 717 c 0,0,1
EndSplineSet
Validated: 1
Substitution2: "Single Substitution lookup 7 subtable" c
Position2: "'cpsp' Capital Spacing in Latin lookup 1 subtable" dx=16 dy=0 dh=16 dv=0
EndChar

StartChar: D
Encoding: 68 68 40
Width: 1427
GlyphClass: 2
Flags: W
LayerCount: 2
Fore
SplineSet
92 0 m 1,0,-1
 92 8 l 1,1,-1
 205 78 l 1,2,-1
 205 1192 l 1,3,-1
 459 1192 l 1,4,-1
 459 1200 l 1,5,-1
 92 1425 l 1,6,-1
 92 1434 l 1,7,-1
 655 1434 l 2,8,9
 863 1434 863 1434 1017.5 1344 c 128,-1,10
 1172 1254 1172 1254 1253.5 1092 c 128,-1,11
 1335 930 1335 930 1335 717 c 0,12,13
 1335 375 1335 375 1154.5 187.5 c 128,-1,14
 974 0 974 0 655 0 c 2,15,-1
 92 0 l 1,0,-1
512 133 m 1,16,-1
 655 133 l 2,17,18
 829 133 829 133 913 277.5 c 128,-1,19
 997 422 997 422 997 717 c 0,20,21
 997 1023 997 1023 914 1161.5 c 128,-1,22
 831 1300 831 1300 655 1300 c 2,23,-1
 512 1300 l 1,24,-1
 512 133 l 1,16,-1
EndSplineSet
Validated: 1
Substitution2: "Single Substitution lookup 7 subtable" d
Position2: "'cpsp' Capital Spacing in Latin lookup 1 subtable" dx=16 dy=0 dh=16 dv=0
EndChar

StartChar: E
Encoding: 69 69 41
Width: 1112
GlyphClass: 2
Flags: W
LayerCount: 2
Fore
SplineSet
92 0 m 1,0,-1
 92 8 l 1,1,-1
 205 78 l 1,2,-1
 205 1356 l 1,3,-1
 92 1425 l 1,4,-1
 92 1434 l 1,5,-1
 989 1434 l 1,6,-1
 989 1014 l 1,7,-1
 981 1014 l 1,8,9
 968 1068 968 1068 945 1114 c 128,-1,10
 922 1160 922 1160 885.5 1201 c 128,-1,11
 849 1242 849 1242 792 1266 c 128,-1,12
 735 1290 735 1290 664 1290 c 2,13,-1
 512 1290 l 1,14,-1
 512 813 l 1,15,-1
 928 813 l 1,16,-1
 928 805 l 1,17,-1
 762 659 l 1,18,-1
 512 659 l 1,19,-1
 512 143 l 1,20,-1
 705 143 l 2,21,22
 775 143 775 143 832.5 170 c 128,-1,23
 890 197 890 197 926.5 242.5 c 128,-1,24
 963 288 963 288 986 336.5 c 128,-1,25
 1009 385 1009 385 1022 440 c 1,26,-1
 1030 440 l 1,27,-1
 1030 0 l 1,28,-1
 92 0 l 1,0,-1
EndSplineSet
Validated: 1
Substitution2: "Single Substitution lookup 7 subtable" e
Position2: "'cpsp' Capital Spacing in Latin lookup 1 subtable" dx=16 dy=0 dh=16 dv=0
EndChar

StartChar: F
Encoding: 70 70 42
Width: 1003
GlyphClass: 2
Flags: W
LayerCount: 2
Fore
SplineSet
92 0 m 1,0,-1
 92 8 l 1,1,-1
 205 78 l 1,2,-1
 205 1356 l 1,3,-1
 92 1425 l 1,4,-1
 92 1434 l 1,5,-1
 993 1434 l 1,6,-1
 993 1014 l 1,7,-1
 985 1014 l 1,8,9
 972 1068 972 1068 949 1114 c 128,-1,10
 926 1160 926 1160 889.5 1201 c 128,-1,11
 853 1242 853 1242 796 1266 c 128,-1,12
 739 1290 739 1290 668 1290 c 2,13,-1
 512 1290 l 1,14,-1
 512 803 l 1,15,-1
 901 803 l 1,16,-1
 901 795 l 1,17,-1
 735 649 l 1,18,-1
 512 649 l 1,19,-1
 512 244 l 2,20,21
 512 196 512 196 523 157 c 128,-1,22
 534 118 534 118 551 94 c 128,-1,23
 568 70 568 70 592.5 51.5 c 128,-1,24
 617 33 617 33 638.5 24 c 128,-1,25
 660 15 660 15 686 8 c 1,26,-1
 686 0 l 1,27,-1
 92 0 l 1,0,-1
EndSplineSet
Validated: 1
Substitution2: "Single Substitution lookup 7 subtable" f
Position2: "'cpsp' Capital Spacing in Latin lookup 1 subtable" dx=16 dy=0 dh=16 dv=0
PairPos2: "'kern' Horizontal Kerning in Latin lookup 0 per glyph data 1" trademark dx=0 dy=0 dh=102 dv=0 dx=0 dy=0 dh=0 dv=0
PairPos2: "'kern' Horizontal Kerning in Latin lookup 0 per glyph data 1" trademark dx=0 dy=0 dh=102 dv=0 dx=0 dy=0 dh=0 dv=0
PairPos2: "'kern' Horizontal Kerning in Latin lookup 0 per glyph data 1" trademark dx=0 dy=0 dh=102 dv=0 dx=0 dy=0 dh=0 dv=0
PairPos2: "'kern' Horizontal Kerning in Latin lookup 0 per glyph data 1" trademark dx=0 dy=0 dh=102 dv=0 dx=0 dy=0 dh=0 dv=0
PairPos2: "'kern' Horizontal Kerning in Latin lookup 0 per glyph data 1" trademark dx=0 dy=0 dh=102 dv=0 dx=0 dy=0 dh=0 dv=0
PairPos2: "'kern' Horizontal Kerning in Latin lookup 0 per glyph data 1" trademark dx=0 dy=0 dh=102 dv=0 dx=0 dy=0 dh=0 dv=0
PairPos2: "'kern' Horizontal Kerning in Latin lookup 0 per glyph data 1" guilsinglright dx=0 dy=0 dh=-61 dv=0 dx=0 dy=0 dh=0 dv=0
PairPos2: "'kern' Horizontal Kerning in Latin lookup 0 per glyph data 1" guilsinglright dx=0 dy=0 dh=-61 dv=0 dx=0 dy=0 dh=0 dv=0
PairPos2: "'kern' Horizontal Kerning in Latin lookup 0 per glyph data 1" guilsinglright dx=0 dy=0 dh=-61 dv=0 dx=0 dy=0 dh=0 dv=0
PairPos2: "'kern' Horizontal Kerning in Latin lookup 0 per glyph data 1" guilsinglright dx=0 dy=0 dh=-61 dv=0 dx=0 dy=0 dh=0 dv=0
PairPos2: "'kern' Horizontal Kerning in Latin lookup 0 per glyph data 1" guilsinglright dx=0 dy=0 dh=-61 dv=0 dx=0 dy=0 dh=0 dv=0
PairPos2: "'kern' Horizontal Kerning in Latin lookup 0 per glyph data 1" guilsinglright dx=0 dy=0 dh=-61 dv=0 dx=0 dy=0 dh=0 dv=0
PairPos2: "'kern' Horizontal Kerning in Latin lookup 0 per glyph data 1" guilsinglleft dx=0 dy=0 dh=-123 dv=0 dx=0 dy=0 dh=0 dv=0
PairPos2: "'kern' Horizontal Kerning in Latin lookup 0 per glyph data 1" guilsinglleft dx=0 dy=0 dh=-123 dv=0 dx=0 dy=0 dh=0 dv=0
PairPos2: "'kern' Horizontal Kerning in Latin lookup 0 per glyph data 1" guilsinglleft dx=0 dy=0 dh=-123 dv=0 dx=0 dy=0 dh=0 dv=0
PairPos2: "'kern' Horizontal Kerning in Latin lookup 0 per glyph data 1" guilsinglleft dx=0 dy=0 dh=-123 dv=0 dx=0 dy=0 dh=0 dv=0
PairPos2: "'kern' Horizontal Kerning in Latin lookup 0 per glyph data 1" guilsinglleft dx=0 dy=0 dh=-123 dv=0 dx=0 dy=0 dh=0 dv=0
PairPos2: "'kern' Horizontal Kerning in Latin lookup 0 per glyph data 1" guilsinglleft dx=0 dy=0 dh=-123 dv=0 dx=0 dy=0 dh=0 dv=0
PairPos2: "'kern' Horizontal Kerning in Latin lookup 0 per glyph data 1" ellipsis dx=0 dy=0 dh=-184 dv=0 dx=0 dy=0 dh=0 dv=0
PairPos2: "'kern' Horizontal Kerning in Latin lookup 0 per glyph data 1" ellipsis dx=0 dy=0 dh=-184 dv=0 dx=0 dy=0 dh=0 dv=0
PairPos2: "'kern' Horizontal Kerning in Latin lookup 0 per glyph data 1" ellipsis dx=0 dy=0 dh=-184 dv=0 dx=0 dy=0 dh=0 dv=0
PairPos2: "'kern' Horizontal Kerning in Latin lookup 0 per glyph data 1" ellipsis dx=0 dy=0 dh=-184 dv=0 dx=0 dy=0 dh=0 dv=0
PairPos2: "'kern' Horizontal Kerning in Latin lookup 0 per glyph data 1" ellipsis dx=0 dy=0 dh=-184 dv=0 dx=0 dy=0 dh=0 dv=0
PairPos2: "'kern' Horizontal Kerning in Latin lookup 0 per glyph data 1" ellipsis dx=0 dy=0 dh=-184 dv=0 dx=0 dy=0 dh=0 dv=0
PairPos2: "'kern' Horizontal Kerning in Latin lookup 0 per glyph data 1" quotedblbase dx=0 dy=0 dh=-184 dv=0 dx=0 dy=0 dh=0 dv=0
PairPos2: "'kern' Horizontal Kerning in Latin lookup 0 per glyph data 1" quotedblbase dx=0 dy=0 dh=-184 dv=0 dx=0 dy=0 dh=0 dv=0
PairPos2: "'kern' Horizontal Kerning in Latin lookup 0 per glyph data 1" quotedblbase dx=0 dy=0 dh=-184 dv=0 dx=0 dy=0 dh=0 dv=0
PairPos2: "'kern' Horizontal Kerning in Latin lookup 0 per glyph data 1" quotedblbase dx=0 dy=0 dh=-184 dv=0 dx=0 dy=0 dh=0 dv=0
PairPos2: "'kern' Horizontal Kerning in Latin lookup 0 per glyph data 1" quotedblbase dx=0 dy=0 dh=-184 dv=0 dx=0 dy=0 dh=0 dv=0
PairPos2: "'kern' Horizontal Kerning in Latin lookup 0 per glyph data 1" quotedblbase dx=0 dy=0 dh=-184 dv=0 dx=0 dy=0 dh=0 dv=0
PairPos2: "'kern' Horizontal Kerning in Latin lookup 0 per glyph data 1" quotedblright dx=0 dy=0 dh=82 dv=0 dx=0 dy=0 dh=0 dv=0
PairPos2: "'kern' Horizontal Kerning in Latin lookup 0 per glyph data 1" quotedblright dx=0 dy=0 dh=82 dv=0 dx=0 dy=0 dh=0 dv=0
PairPos2: "'kern' Horizontal Kerning in Latin lookup 0 per glyph data 1" quotedblright dx=0 dy=0 dh=82 dv=0 dx=0 dy=0 dh=0 dv=0
PairPos2: "'kern' Horizontal Kerning in Latin lookup 0 per glyph data 1" quotedblright dx=0 dy=0 dh=82 dv=0 dx=0 dy=0 dh=0 dv=0
PairPos2: "'kern' Horizontal Kerning in Latin lookup 0 per glyph data 1" quotedblright dx=0 dy=0 dh=82 dv=0 dx=0 dy=0 dh=0 dv=0
PairPos2: "'kern' Horizontal Kerning in Latin lookup 0 per glyph data 1" quotedblright dx=0 dy=0 dh=82 dv=0 dx=0 dy=0 dh=0 dv=0
PairPos2: "'kern' Horizontal Kerning in Latin lookup 0 per glyph data 1" quotedblleft dx=0 dy=0 dh=82 dv=0 dx=0 dy=0 dh=0 dv=0
PairPos2: "'kern' Horizontal Kerning in Latin lookup 0 per glyph data 1" quotedblleft dx=0 dy=0 dh=82 dv=0 dx=0 dy=0 dh=0 dv=0
PairPos2: "'kern' Horizontal Kerning in Latin lookup 0 per glyph data 1" quotedblleft dx=0 dy=0 dh=82 dv=0 dx=0 dy=0 dh=0 dv=0
PairPos2: "'kern' Horizontal Kerning in Latin lookup 0 per glyph data 1" quotedblleft dx=0 dy=0 dh=82 dv=0 dx=0 dy=0 dh=0 dv=0
PairPos2: "'kern' Horizontal Kerning in Latin lookup 0 per glyph data 1" quotedblleft dx=0 dy=0 dh=82 dv=0 dx=0 dy=0 dh=0 dv=0
PairPos2: "'kern' Horizontal Kerning in Latin lookup 0 per glyph data 1" quotedblleft dx=0 dy=0 dh=82 dv=0 dx=0 dy=0 dh=0 dv=0
PairPos2: "'kern' Horizontal Kerning in Latin lookup 0 per glyph data 1" quotesinglbase dx=0 dy=0 dh=-184 dv=0 dx=0 dy=0 dh=0 dv=0
PairPos2: "'kern' Horizontal Kerning in Latin lookup 0 per glyph data 1" quotesinglbase dx=0 dy=0 dh=-184 dv=0 dx=0 dy=0 dh=0 dv=0
PairPos2: "'kern' Horizontal Kerning in Latin lookup 0 per glyph data 1" quotesinglbase dx=0 dy=0 dh=-184 dv=0 dx=0 dy=0 dh=0 dv=0
PairPos2: "'kern' Horizontal Kerning in Latin lookup 0 per glyph data 1" quotesinglbase dx=0 dy=0 dh=-184 dv=0 dx=0 dy=0 dh=0 dv=0
PairPos2: "'kern' Horizontal Kerning in Latin lookup 0 per glyph data 1" quotesinglbase dx=0 dy=0 dh=-184 dv=0 dx=0 dy=0 dh=0 dv=0
PairPos2: "'kern' Horizontal Kerning in Latin lookup 0 per glyph data 1" quotesinglbase dx=0 dy=0 dh=-184 dv=0 dx=0 dy=0 dh=0 dv=0
PairPos2: "'kern' Horizontal Kerning in Latin lookup 0 per glyph data 1" quoteright dx=0 dy=0 dh=82 dv=0 dx=0 dy=0 dh=0 dv=0
PairPos2: "'kern' Horizontal Kerning in Latin lookup 0 per glyph data 1" quoteright dx=0 dy=0 dh=82 dv=0 dx=0 dy=0 dh=0 dv=0
PairPos2: "'kern' Horizontal Kerning in Latin lookup 0 per glyph data 1" quoteright dx=0 dy=0 dh=82 dv=0 dx=0 dy=0 dh=0 dv=0
PairPos2: "'kern' Horizontal Kerning in Latin lookup 0 per glyph data 1" quoteright dx=0 dy=0 dh=82 dv=0 dx=0 dy=0 dh=0 dv=0
PairPos2: "'kern' Horizontal Kerning in Latin lookup 0 per glyph data 1" quoteright dx=0 dy=0 dh=82 dv=0 dx=0 dy=0 dh=0 dv=0
PairPos2: "'kern' Horizontal Kerning in Latin lookup 0 per glyph data 1" quoteright dx=0 dy=0 dh=82 dv=0 dx=0 dy=0 dh=0 dv=0
PairPos2: "'kern' Horizontal Kerning in Latin lookup 0 per glyph data 1" quoteleft dx=0 dy=0 dh=82 dv=0 dx=0 dy=0 dh=0 dv=0
PairPos2: "'kern' Horizontal Kerning in Latin lookup 0 per glyph data 1" quoteleft dx=0 dy=0 dh=82 dv=0 dx=0 dy=0 dh=0 dv=0
PairPos2: "'kern' Horizontal Kerning in Latin lookup 0 per glyph data 1" quoteleft dx=0 dy=0 dh=82 dv=0 dx=0 dy=0 dh=0 dv=0
PairPos2: "'kern' Horizontal Kerning in Latin lookup 0 per glyph data 1" quoteleft dx=0 dy=0 dh=82 dv=0 dx=0 dy=0 dh=0 dv=0
PairPos2: "'kern' Horizontal Kerning in Latin lookup 0 per glyph data 1" quoteleft dx=0 dy=0 dh=82 dv=0 dx=0 dy=0 dh=0 dv=0
PairPos2: "'kern' Horizontal Kerning in Latin lookup 0 per glyph data 1" quoteleft dx=0 dy=0 dh=82 dv=0 dx=0 dy=0 dh=0 dv=0
PairPos2: "'kern' Horizontal Kerning in Latin lookup 0 per glyph data 1" emdash dx=0 dy=0 dh=-61 dv=0 dx=0 dy=0 dh=0 dv=0
PairPos2: "'kern' Horizontal Kerning in Latin lookup 0 per glyph data 1" emdash dx=0 dy=0 dh=-61 dv=0 dx=0 dy=0 dh=0 dv=0
PairPos2: "'kern' Horizontal Kerning in Latin lookup 0 per glyph data 1" emdash dx=0 dy=0 dh=-61 dv=0 dx=0 dy=0 dh=0 dv=0
PairPos2: "'kern' Horizontal Kerning in Latin lookup 0 per glyph data 1" emdash dx=0 dy=0 dh=-61 dv=0 dx=0 dy=0 dh=0 dv=0
PairPos2: "'kern' Horizontal Kerning in Latin lookup 0 per glyph data 1" emdash dx=0 dy=0 dh=-61 dv=0 dx=0 dy=0 dh=0 dv=0
PairPos2: "'kern' Horizontal Kerning in Latin lookup 0 per glyph data 1" emdash dx=0 dy=0 dh=-61 dv=0 dx=0 dy=0 dh=0 dv=0
PairPos2: "'kern' Horizontal Kerning in Latin lookup 0 per glyph data 1" endash dx=0 dy=0 dh=-61 dv=0 dx=0 dy=0 dh=0 dv=0
PairPos2: "'kern' Horizontal Kerning in Latin lookup 0 per glyph data 1" endash dx=0 dy=0 dh=-61 dv=0 dx=0 dy=0 dh=0 dv=0
PairPos2: "'kern' Horizontal Kerning in Latin lookup 0 per glyph data 1" endash dx=0 dy=0 dh=-61 dv=0 dx=0 dy=0 dh=0 dv=0
PairPos2: "'kern' Horizontal Kerning in Latin lookup 0 per glyph data 1" endash dx=0 dy=0 dh=-61 dv=0 dx=0 dy=0 dh=0 dv=0
PairPos2: "'kern' Horizontal Kerning in Latin lookup 0 per glyph data 1" endash dx=0 dy=0 dh=-61 dv=0 dx=0 dy=0 dh=0 dv=0
PairPos2: "'kern' Horizontal Kerning in Latin lookup 0 per glyph data 1" endash dx=0 dy=0 dh=-61 dv=0 dx=0 dy=0 dh=0 dv=0
PairPos2: "'kern' Horizontal Kerning in Latin lookup 0 per glyph data 1" Ydieresis dx=0 dy=0 dh=61 dv=0 dx=0 dy=0 dh=0 dv=0
PairPos2: "'kern' Horizontal Kerning in Latin lookup 0 per glyph data 1" Ydieresis dx=0 dy=0 dh=61 dv=0 dx=0 dy=0 dh=0 dv=0
PairPos2: "'kern' Horizontal Kerning in Latin lookup 0 per glyph data 1" Ydieresis dx=0 dy=0 dh=61 dv=0 dx=0 dy=0 dh=0 dv=0
PairPos2: "'kern' Horizontal Kerning in Latin lookup 0 per glyph data 1" Ydieresis dx=0 dy=0 dh=61 dv=0 dx=0 dy=0 dh=0 dv=0
PairPos2: "'kern' Horizontal Kerning in Latin lookup 0 per glyph data 1" Ydieresis dx=0 dy=0 dh=61 dv=0 dx=0 dy=0 dh=0 dv=0
PairPos2: "'kern' Horizontal Kerning in Latin lookup 0 per glyph data 1" Ydieresis dx=0 dy=0 dh=61 dv=0 dx=0 dy=0 dh=0 dv=0
PairPos2: "'kern' Horizontal Kerning in Latin lookup 0 per glyph data 1" oe dx=0 dy=0 dh=-61 dv=0 dx=0 dy=0 dh=0 dv=0
PairPos2: "'kern' Horizontal Kerning in Latin lookup 0 per glyph data 1" oe dx=0 dy=0 dh=-61 dv=0 dx=0 dy=0 dh=0 dv=0
PairPos2: "'kern' Horizontal Kerning in Latin lookup 0 per glyph data 1" oe dx=0 dy=0 dh=-61 dv=0 dx=0 dy=0 dh=0 dv=0
PairPos2: "'kern' Horizontal Kerning in Latin lookup 0 per glyph data 1" oe dx=0 dy=0 dh=-61 dv=0 dx=0 dy=0 dh=0 dv=0
PairPos2: "'kern' Horizontal Kerning in Latin lookup 0 per glyph data 1" oe dx=0 dy=0 dh=-61 dv=0 dx=0 dy=0 dh=0 dv=0
PairPos2: "'kern' Horizontal Kerning in Latin lookup 0 per glyph data 1" oe dx=0 dy=0 dh=-61 dv=0 dx=0 dy=0 dh=0 dv=0
PairPos2: "'kern' Horizontal Kerning in Latin lookup 0 per glyph data 1" ydieresis dx=0 dy=0 dh=92 dv=0 dx=0 dy=0 dh=0 dv=0
PairPos2: "'kern' Horizontal Kerning in Latin lookup 0 per glyph data 1" ydieresis dx=0 dy=0 dh=92 dv=0 dx=0 dy=0 dh=0 dv=0
PairPos2: "'kern' Horizontal Kerning in Latin lookup 0 per glyph data 1" ydieresis dx=0 dy=0 dh=92 dv=0 dx=0 dy=0 dh=0 dv=0
PairPos2: "'kern' Horizontal Kerning in Latin lookup 0 per glyph data 1" ydieresis dx=0 dy=0 dh=92 dv=0 dx=0 dy=0 dh=0 dv=0
PairPos2: "'kern' Horizontal Kerning in Latin lookup 0 per glyph data 1" ydieresis dx=0 dy=0 dh=92 dv=0 dx=0 dy=0 dh=0 dv=0
PairPos2: "'kern' Horizontal Kerning in Latin lookup 0 per glyph data 1" ydieresis dx=0 dy=0 dh=92 dv=0 dx=0 dy=0 dh=0 dv=0
PairPos2: "'kern' Horizontal Kerning in Latin lookup 0 per glyph data 1" yacute dx=0 dy=0 dh=92 dv=0 dx=0 dy=0 dh=0 dv=0
PairPos2: "'kern' Horizontal Kerning in Latin lookup 0 per glyph data 1" yacute dx=0 dy=0 dh=92 dv=0 dx=0 dy=0 dh=0 dv=0
PairPos2: "'kern' Horizontal Kerning in Latin lookup 0 per glyph data 1" yacute dx=0 dy=0 dh=92 dv=0 dx=0 dy=0 dh=0 dv=0
PairPos2: "'kern' Horizontal Kerning in Latin lookup 0 per glyph data 1" yacute dx=0 dy=0 dh=92 dv=0 dx=0 dy=0 dh=0 dv=0
PairPos2: "'kern' Horizontal Kerning in Latin lookup 0 per glyph data 1" yacute dx=0 dy=0 dh=92 dv=0 dx=0 dy=0 dh=0 dv=0
PairPos2: "'kern' Horizontal Kerning in Latin lookup 0 per glyph data 1" yacute dx=0 dy=0 dh=92 dv=0 dx=0 dy=0 dh=0 dv=0
PairPos2: "'kern' Horizontal Kerning in Latin lookup 0 per glyph data 1" oslash dx=0 dy=0 dh=-61 dv=0 dx=0 dy=0 dh=0 dv=0
PairPos2: "'kern' Horizontal Kerning in Latin lookup 0 per glyph data 1" oslash dx=0 dy=0 dh=-61 dv=0 dx=0 dy=0 dh=0 dv=0
PairPos2: "'kern' Horizontal Kerning in Latin lookup 0 per glyph data 1" oslash dx=0 dy=0 dh=-61 dv=0 dx=0 dy=0 dh=0 dv=0
PairPos2: "'kern' Horizontal Kerning in Latin lookup 0 per glyph data 1" oslash dx=0 dy=0 dh=-61 dv=0 dx=0 dy=0 dh=0 dv=0
PairPos2: "'kern' Horizontal Kerning in Latin lookup 0 per glyph data 1" oslash dx=0 dy=0 dh=-61 dv=0 dx=0 dy=0 dh=0 dv=0
PairPos2: "'kern' Horizontal Kerning in Latin lookup 0 per glyph data 1" oslash dx=0 dy=0 dh=-61 dv=0 dx=0 dy=0 dh=0 dv=0
PairPos2: "'kern' Horizontal Kerning in Latin lookup 0 per glyph data 1" odieresis dx=0 dy=0 dh=-61 dv=0 dx=0 dy=0 dh=0 dv=0
PairPos2: "'kern' Horizontal Kerning in Latin lookup 0 per glyph data 1" odieresis dx=0 dy=0 dh=-61 dv=0 dx=0 dy=0 dh=0 dv=0
PairPos2: "'kern' Horizontal Kerning in Latin lookup 0 per glyph data 1" odieresis dx=0 dy=0 dh=-61 dv=0 dx=0 dy=0 dh=0 dv=0
PairPos2: "'kern' Horizontal Kerning in Latin lookup 0 per glyph data 1" odieresis dx=0 dy=0 dh=-61 dv=0 dx=0 dy=0 dh=0 dv=0
PairPos2: "'kern' Horizontal Kerning in Latin lookup 0 per glyph data 1" odieresis dx=0 dy=0 dh=-61 dv=0 dx=0 dy=0 dh=0 dv=0
PairPos2: "'kern' Horizontal Kerning in Latin lookup 0 per glyph data 1" odieresis dx=0 dy=0 dh=-61 dv=0 dx=0 dy=0 dh=0 dv=0
PairPos2: "'kern' Horizontal Kerning in Latin lookup 0 per glyph data 1" otilde dx=0 dy=0 dh=-61 dv=0 dx=0 dy=0 dh=0 dv=0
PairPos2: "'kern' Horizontal Kerning in Latin lookup 0 per glyph data 1" otilde dx=0 dy=0 dh=-61 dv=0 dx=0 dy=0 dh=0 dv=0
PairPos2: "'kern' Horizontal Kerning in Latin lookup 0 per glyph data 1" otilde dx=0 dy=0 dh=-61 dv=0 dx=0 dy=0 dh=0 dv=0
PairPos2: "'kern' Horizontal Kerning in Latin lookup 0 per glyph data 1" otilde dx=0 dy=0 dh=-61 dv=0 dx=0 dy=0 dh=0 dv=0
PairPos2: "'kern' Horizontal Kerning in Latin lookup 0 per glyph data 1" otilde dx=0 dy=0 dh=-61 dv=0 dx=0 dy=0 dh=0 dv=0
PairPos2: "'kern' Horizontal Kerning in Latin lookup 0 per glyph data 1" otilde dx=0 dy=0 dh=-61 dv=0 dx=0 dy=0 dh=0 dv=0
PairPos2: "'kern' Horizontal Kerning in Latin lookup 0 per glyph data 1" ocircumflex dx=0 dy=0 dh=-61 dv=0 dx=0 dy=0 dh=0 dv=0
PairPos2: "'kern' Horizontal Kerning in Latin lookup 0 per glyph data 1" ocircumflex dx=0 dy=0 dh=-61 dv=0 dx=0 dy=0 dh=0 dv=0
PairPos2: "'kern' Horizontal Kerning in Latin lookup 0 per glyph data 1" ocircumflex dx=0 dy=0 dh=-61 dv=0 dx=0 dy=0 dh=0 dv=0
PairPos2: "'kern' Horizontal Kerning in Latin lookup 0 per glyph data 1" ocircumflex dx=0 dy=0 dh=-61 dv=0 dx=0 dy=0 dh=0 dv=0
PairPos2: "'kern' Horizontal Kerning in Latin lookup 0 per glyph data 1" ocircumflex dx=0 dy=0 dh=-61 dv=0 dx=0 dy=0 dh=0 dv=0
PairPos2: "'kern' Horizontal Kerning in Latin lookup 0 per glyph data 1" ocircumflex dx=0 dy=0 dh=-61 dv=0 dx=0 dy=0 dh=0 dv=0
PairPos2: "'kern' Horizontal Kerning in Latin lookup 0 per glyph data 1" oacute dx=0 dy=0 dh=-61 dv=0 dx=0 dy=0 dh=0 dv=0
PairPos2: "'kern' Horizontal Kerning in Latin lookup 0 per glyph data 1" oacute dx=0 dy=0 dh=-61 dv=0 dx=0 dy=0 dh=0 dv=0
PairPos2: "'kern' Horizontal Kerning in Latin lookup 0 per glyph data 1" oacute dx=0 dy=0 dh=-61 dv=0 dx=0 dy=0 dh=0 dv=0
PairPos2: "'kern' Horizontal Kerning in Latin lookup 0 per glyph data 1" oacute dx=0 dy=0 dh=-61 dv=0 dx=0 dy=0 dh=0 dv=0
PairPos2: "'kern' Horizontal Kerning in Latin lookup 0 per glyph data 1" oacute dx=0 dy=0 dh=-61 dv=0 dx=0 dy=0 dh=0 dv=0
PairPos2: "'kern' Horizontal Kerning in Latin lookup 0 per glyph data 1" oacute dx=0 dy=0 dh=-61 dv=0 dx=0 dy=0 dh=0 dv=0
PairPos2: "'kern' Horizontal Kerning in Latin lookup 0 per glyph data 1" ograve dx=0 dy=0 dh=-61 dv=0 dx=0 dy=0 dh=0 dv=0
PairPos2: "'kern' Horizontal Kerning in Latin lookup 0 per glyph data 1" ograve dx=0 dy=0 dh=-61 dv=0 dx=0 dy=0 dh=0 dv=0
PairPos2: "'kern' Horizontal Kerning in Latin lookup 0 per glyph data 1" ograve dx=0 dy=0 dh=-61 dv=0 dx=0 dy=0 dh=0 dv=0
PairPos2: "'kern' Horizontal Kerning in Latin lookup 0 per glyph data 1" ograve dx=0 dy=0 dh=-61 dv=0 dx=0 dy=0 dh=0 dv=0
PairPos2: "'kern' Horizontal Kerning in Latin lookup 0 per glyph data 1" ograve dx=0 dy=0 dh=-61 dv=0 dx=0 dy=0 dh=0 dv=0
PairPos2: "'kern' Horizontal Kerning in Latin lookup 0 per glyph data 1" ograve dx=0 dy=0 dh=-61 dv=0 dx=0 dy=0 dh=0 dv=0
PairPos2: "'kern' Horizontal Kerning in Latin lookup 0 per glyph data 1" ccedilla dx=0 dy=0 dh=-61 dv=0 dx=0 dy=0 dh=0 dv=0
PairPos2: "'kern' Horizontal Kerning in Latin lookup 0 per glyph data 1" ccedilla dx=0 dy=0 dh=-61 dv=0 dx=0 dy=0 dh=0 dv=0
PairPos2: "'kern' Horizontal Kerning in Latin lookup 0 per glyph data 1" ccedilla dx=0 dy=0 dh=-61 dv=0 dx=0 dy=0 dh=0 dv=0
PairPos2: "'kern' Horizontal Kerning in Latin lookup 0 per glyph data 1" ccedilla dx=0 dy=0 dh=-61 dv=0 dx=0 dy=0 dh=0 dv=0
PairPos2: "'kern' Horizontal Kerning in Latin lookup 0 per glyph data 1" ccedilla dx=0 dy=0 dh=-61 dv=0 dx=0 dy=0 dh=0 dv=0
PairPos2: "'kern' Horizontal Kerning in Latin lookup 0 per glyph data 1" ccedilla dx=0 dy=0 dh=-61 dv=0 dx=0 dy=0 dh=0 dv=0
PairPos2: "'kern' Horizontal Kerning in Latin lookup 0 per glyph data 1" aacute dx=0 dy=0 dh=-215 dv=0 dx=0 dy=0 dh=0 dv=0
PairPos2: "'kern' Horizontal Kerning in Latin lookup 0 per glyph data 1" aacute dx=0 dy=0 dh=-215 dv=0 dx=0 dy=0 dh=0 dv=0
PairPos2: "'kern' Horizontal Kerning in Latin lookup 0 per glyph data 1" aacute dx=0 dy=0 dh=-215 dv=0 dx=0 dy=0 dh=0 dv=0
PairPos2: "'kern' Horizontal Kerning in Latin lookup 0 per glyph data 1" aacute dx=0 dy=0 dh=-215 dv=0 dx=0 dy=0 dh=0 dv=0
PairPos2: "'kern' Horizontal Kerning in Latin lookup 0 per glyph data 1" aacute dx=0 dy=0 dh=-215 dv=0 dx=0 dy=0 dh=0 dv=0
PairPos2: "'kern' Horizontal Kerning in Latin lookup 0 per glyph data 1" aacute dx=0 dy=0 dh=-215 dv=0 dx=0 dy=0 dh=0 dv=0
PairPos2: "'kern' Horizontal Kerning in Latin lookup 0 per glyph data 1" Yacute dx=0 dy=0 dh=61 dv=0 dx=0 dy=0 dh=0 dv=0
PairPos2: "'kern' Horizontal Kerning in Latin lookup 0 per glyph data 1" Yacute dx=0 dy=0 dh=61 dv=0 dx=0 dy=0 dh=0 dv=0
PairPos2: "'kern' Horizontal Kerning in Latin lookup 0 per glyph data 1" Yacute dx=0 dy=0 dh=61 dv=0 dx=0 dy=0 dh=0 dv=0
PairPos2: "'kern' Horizontal Kerning in Latin lookup 0 per glyph data 1" Yacute dx=0 dy=0 dh=61 dv=0 dx=0 dy=0 dh=0 dv=0
PairPos2: "'kern' Horizontal Kerning in Latin lookup 0 per glyph data 1" Yacute dx=0 dy=0 dh=61 dv=0 dx=0 dy=0 dh=0 dv=0
PairPos2: "'kern' Horizontal Kerning in Latin lookup 0 per glyph data 1" Yacute dx=0 dy=0 dh=61 dv=0 dx=0 dy=0 dh=0 dv=0
PairPos2: "'kern' Horizontal Kerning in Latin lookup 0 per glyph data 1" Aring dx=0 dy=0 dh=-205 dv=0 dx=0 dy=0 dh=0 dv=0
PairPos2: "'kern' Horizontal Kerning in Latin lookup 0 per glyph data 1" Aring dx=0 dy=0 dh=-205 dv=0 dx=0 dy=0 dh=0 dv=0
PairPos2: "'kern' Horizontal Kerning in Latin lookup 0 per glyph data 1" Aring dx=0 dy=0 dh=-205 dv=0 dx=0 dy=0 dh=0 dv=0
PairPos2: "'kern' Horizontal Kerning in Latin lookup 0 per glyph data 1" Aring dx=0 dy=0 dh=-205 dv=0 dx=0 dy=0 dh=0 dv=0
PairPos2: "'kern' Horizontal Kerning in Latin lookup 0 per glyph data 1" Aring dx=0 dy=0 dh=-205 dv=0 dx=0 dy=0 dh=0 dv=0
PairPos2: "'kern' Horizontal Kerning in Latin lookup 0 per glyph data 1" Aring dx=0 dy=0 dh=-205 dv=0 dx=0 dy=0 dh=0 dv=0
PairPos2: "'kern' Horizontal Kerning in Latin lookup 0 per glyph data 1" Adieresis dx=0 dy=0 dh=-205 dv=0 dx=0 dy=0 dh=0 dv=0
PairPos2: "'kern' Horizontal Kerning in Latin lookup 0 per glyph data 1" Adieresis dx=0 dy=0 dh=-205 dv=0 dx=0 dy=0 dh=0 dv=0
PairPos2: "'kern' Horizontal Kerning in Latin lookup 0 per glyph data 1" Adieresis dx=0 dy=0 dh=-205 dv=0 dx=0 dy=0 dh=0 dv=0
PairPos2: "'kern' Horizontal Kerning in Latin lookup 0 per glyph data 1" Adieresis dx=0 dy=0 dh=-205 dv=0 dx=0 dy=0 dh=0 dv=0
PairPos2: "'kern' Horizontal Kerning in Latin lookup 0 per glyph data 1" Adieresis dx=0 dy=0 dh=-205 dv=0 dx=0 dy=0 dh=0 dv=0
PairPos2: "'kern' Horizontal Kerning in Latin lookup 0 per glyph data 1" Adieresis dx=0 dy=0 dh=-205 dv=0 dx=0 dy=0 dh=0 dv=0
PairPos2: "'kern' Horizontal Kerning in Latin lookup 0 per glyph data 1" Atilde dx=0 dy=0 dh=-205 dv=0 dx=0 dy=0 dh=0 dv=0
PairPos2: "'kern' Horizontal Kerning in Latin lookup 0 per glyph data 1" Atilde dx=0 dy=0 dh=-205 dv=0 dx=0 dy=0 dh=0 dv=0
PairPos2: "'kern' Horizontal Kerning in Latin lookup 0 per glyph data 1" Atilde dx=0 dy=0 dh=-205 dv=0 dx=0 dy=0 dh=0 dv=0
PairPos2: "'kern' Horizontal Kerning in Latin lookup 0 per glyph data 1" Atilde dx=0 dy=0 dh=-205 dv=0 dx=0 dy=0 dh=0 dv=0
PairPos2: "'kern' Horizontal Kerning in Latin lookup 0 per glyph data 1" Atilde dx=0 dy=0 dh=-205 dv=0 dx=0 dy=0 dh=0 dv=0
PairPos2: "'kern' Horizontal Kerning in Latin lookup 0 per glyph data 1" Atilde dx=0 dy=0 dh=-205 dv=0 dx=0 dy=0 dh=0 dv=0
PairPos2: "'kern' Horizontal Kerning in Latin lookup 0 per glyph data 1" Acircumflex dx=0 dy=0 dh=-205 dv=0 dx=0 dy=0 dh=0 dv=0
PairPos2: "'kern' Horizontal Kerning in Latin lookup 0 per glyph data 1" Acircumflex dx=0 dy=0 dh=-205 dv=0 dx=0 dy=0 dh=0 dv=0
PairPos2: "'kern' Horizontal Kerning in Latin lookup 0 per glyph data 1" Acircumflex dx=0 dy=0 dh=-205 dv=0 dx=0 dy=0 dh=0 dv=0
PairPos2: "'kern' Horizontal Kerning in Latin lookup 0 per glyph data 1" Acircumflex dx=0 dy=0 dh=-205 dv=0 dx=0 dy=0 dh=0 dv=0
PairPos2: "'kern' Horizontal Kerning in Latin lookup 0 per glyph data 1" Acircumflex dx=0 dy=0 dh=-205 dv=0 dx=0 dy=0 dh=0 dv=0
PairPos2: "'kern' Horizontal Kerning in Latin lookup 0 per glyph data 1" Acircumflex dx=0 dy=0 dh=-205 dv=0 dx=0 dy=0 dh=0 dv=0
PairPos2: "'kern' Horizontal Kerning in Latin lookup 0 per glyph data 1" Aacute dx=0 dy=0 dh=-205 dv=0 dx=0 dy=0 dh=0 dv=0
PairPos2: "'kern' Horizontal Kerning in Latin lookup 0 per glyph data 1" Aacute dx=0 dy=0 dh=-205 dv=0 dx=0 dy=0 dh=0 dv=0
PairPos2: "'kern' Horizontal Kerning in Latin lookup 0 per glyph data 1" Aacute dx=0 dy=0 dh=-205 dv=0 dx=0 dy=0 dh=0 dv=0
PairPos2: "'kern' Horizontal Kerning in Latin lookup 0 per glyph data 1" Aacute dx=0 dy=0 dh=-205 dv=0 dx=0 dy=0 dh=0 dv=0
PairPos2: "'kern' Horizontal Kerning in Latin lookup 0 per glyph data 1" Aacute dx=0 dy=0 dh=-205 dv=0 dx=0 dy=0 dh=0 dv=0
PairPos2: "'kern' Horizontal Kerning in Latin lookup 0 per glyph data 1" Aacute dx=0 dy=0 dh=-205 dv=0 dx=0 dy=0 dh=0 dv=0
PairPos2: "'kern' Horizontal Kerning in Latin lookup 0 per glyph data 1" Agrave dx=0 dy=0 dh=-205 dv=0 dx=0 dy=0 dh=0 dv=0
PairPos2: "'kern' Horizontal Kerning in Latin lookup 0 per glyph data 1" Agrave dx=0 dy=0 dh=-205 dv=0 dx=0 dy=0 dh=0 dv=0
PairPos2: "'kern' Horizontal Kerning in Latin lookup 0 per glyph data 1" Agrave dx=0 dy=0 dh=-205 dv=0 dx=0 dy=0 dh=0 dv=0
PairPos2: "'kern' Horizontal Kerning in Latin lookup 0 per glyph data 1" Agrave dx=0 dy=0 dh=-205 dv=0 dx=0 dy=0 dh=0 dv=0
PairPos2: "'kern' Horizontal Kerning in Latin lookup 0 per glyph data 1" Agrave dx=0 dy=0 dh=-205 dv=0 dx=0 dy=0 dh=0 dv=0
PairPos2: "'kern' Horizontal Kerning in Latin lookup 0 per glyph data 1" Agrave dx=0 dy=0 dh=-205 dv=0 dx=0 dy=0 dh=0 dv=0
PairPos2: "'kern' Horizontal Kerning in Latin lookup 0 per glyph data 1" guillemotright dx=0 dy=0 dh=-61 dv=0 dx=0 dy=0 dh=0 dv=0
PairPos2: "'kern' Horizontal Kerning in Latin lookup 0 per glyph data 1" guillemotright dx=0 dy=0 dh=-61 dv=0 dx=0 dy=0 dh=0 dv=0
PairPos2: "'kern' Horizontal Kerning in Latin lookup 0 per glyph data 1" guillemotright dx=0 dy=0 dh=-61 dv=0 dx=0 dy=0 dh=0 dv=0
PairPos2: "'kern' Horizontal Kerning in Latin lookup 0 per glyph data 1" guillemotright dx=0 dy=0 dh=-61 dv=0 dx=0 dy=0 dh=0 dv=0
PairPos2: "'kern' Horizontal Kerning in Latin lookup 0 per glyph data 1" guillemotright dx=0 dy=0 dh=-61 dv=0 dx=0 dy=0 dh=0 dv=0
PairPos2: "'kern' Horizontal Kerning in Latin lookup 0 per glyph data 1" guillemotright dx=0 dy=0 dh=-61 dv=0 dx=0 dy=0 dh=0 dv=0
PairPos2: "'kern' Horizontal Kerning in Latin lookup 0 per glyph data 1" registered dx=0 dy=0 dh=102 dv=0 dx=0 dy=0 dh=0 dv=0
PairPos2: "'kern' Horizontal Kerning in Latin lookup 0 per glyph data 1" registered dx=0 dy=0 dh=102 dv=0 dx=0 dy=0 dh=0 dv=0
PairPos2: "'kern' Horizontal Kerning in Latin lookup 0 per glyph data 1" registered dx=0 dy=0 dh=102 dv=0 dx=0 dy=0 dh=0 dv=0
PairPos2: "'kern' Horizontal Kerning in Latin lookup 0 per glyph data 1" registered dx=0 dy=0 dh=102 dv=0 dx=0 dy=0 dh=0 dv=0
PairPos2: "'kern' Horizontal Kerning in Latin lookup 0 per glyph data 1" registered dx=0 dy=0 dh=102 dv=0 dx=0 dy=0 dh=0 dv=0
PairPos2: "'kern' Horizontal Kerning in Latin lookup 0 per glyph data 1" registered dx=0 dy=0 dh=102 dv=0 dx=0 dy=0 dh=0 dv=0
PairPos2: "'kern' Horizontal Kerning in Latin lookup 0 per glyph data 1" guillemotleft dx=0 dy=0 dh=-123 dv=0 dx=0 dy=0 dh=0 dv=0
PairPos2: "'kern' Horizontal Kerning in Latin lookup 0 per glyph data 1" guillemotleft dx=0 dy=0 dh=-123 dv=0 dx=0 dy=0 dh=0 dv=0
PairPos2: "'kern' Horizontal Kerning in Latin lookup 0 per glyph data 1" guillemotleft dx=0 dy=0 dh=-123 dv=0 dx=0 dy=0 dh=0 dv=0
PairPos2: "'kern' Horizontal Kerning in Latin lookup 0 per glyph data 1" guillemotleft dx=0 dy=0 dh=-123 dv=0 dx=0 dy=0 dh=0 dv=0
PairPos2: "'kern' Horizontal Kerning in Latin lookup 0 per glyph data 1" guillemotleft dx=0 dy=0 dh=-123 dv=0 dx=0 dy=0 dh=0 dv=0
PairPos2: "'kern' Horizontal Kerning in Latin lookup 0 per glyph data 1" guillemotleft dx=0 dy=0 dh=-123 dv=0 dx=0 dy=0 dh=0 dv=0
PairPos2: "'kern' Horizontal Kerning in Latin lookup 0 per glyph data 1" copyright dx=0 dy=0 dh=51 dv=0 dx=0 dy=0 dh=0 dv=0
PairPos2: "'kern' Horizontal Kerning in Latin lookup 0 per glyph data 1" copyright dx=0 dy=0 dh=51 dv=0 dx=0 dy=0 dh=0 dv=0
PairPos2: "'kern' Horizontal Kerning in Latin lookup 0 per glyph data 1" copyright dx=0 dy=0 dh=51 dv=0 dx=0 dy=0 dh=0 dv=0
PairPos2: "'kern' Horizontal Kerning in Latin lookup 0 per glyph data 1" copyright dx=0 dy=0 dh=51 dv=0 dx=0 dy=0 dh=0 dv=0
PairPos2: "'kern' Horizontal Kerning in Latin lookup 0 per glyph data 1" copyright dx=0 dy=0 dh=51 dv=0 dx=0 dy=0 dh=0 dv=0
PairPos2: "'kern' Horizontal Kerning in Latin lookup 0 per glyph data 1" copyright dx=0 dy=0 dh=51 dv=0 dx=0 dy=0 dh=0 dv=0
PairPos2: "'kern' Horizontal Kerning in Latin lookup 0 per glyph data 1" z dx=0 dy=0 dh=20 dv=0 dx=0 dy=0 dh=0 dv=0
PairPos2: "'kern' Horizontal Kerning in Latin lookup 0 per glyph data 1" z dx=0 dy=0 dh=20 dv=0 dx=0 dy=0 dh=0 dv=0
PairPos2: "'kern' Horizontal Kerning in Latin lookup 0 per glyph data 1" z dx=0 dy=0 dh=20 dv=0 dx=0 dy=0 dh=0 dv=0
PairPos2: "'kern' Horizontal Kerning in Latin lookup 0 per glyph data 1" z dx=0 dy=0 dh=20 dv=0 dx=0 dy=0 dh=0 dv=0
PairPos2: "'kern' Horizontal Kerning in Latin lookup 0 per glyph data 1" z dx=0 dy=0 dh=20 dv=0 dx=0 dy=0 dh=0 dv=0
PairPos2: "'kern' Horizontal Kerning in Latin lookup 0 per glyph data 1" z dx=0 dy=0 dh=20 dv=0 dx=0 dy=0 dh=0 dv=0
PairPos2: "'kern' Horizontal Kerning in Latin lookup 0 per glyph data 1" y dx=0 dy=0 dh=92 dv=0 dx=0 dy=0 dh=0 dv=0
PairPos2: "'kern' Horizontal Kerning in Latin lookup 0 per glyph data 1" y dx=0 dy=0 dh=92 dv=0 dx=0 dy=0 dh=0 dv=0
PairPos2: "'kern' Horizontal Kerning in Latin lookup 0 per glyph data 1" y dx=0 dy=0 dh=92 dv=0 dx=0 dy=0 dh=0 dv=0
PairPos2: "'kern' Horizontal Kerning in Latin lookup 0 per glyph data 1" y dx=0 dy=0 dh=92 dv=0 dx=0 dy=0 dh=0 dv=0
PairPos2: "'kern' Horizontal Kerning in Latin lookup 0 per glyph data 1" y dx=0 dy=0 dh=92 dv=0 dx=0 dy=0 dh=0 dv=0
PairPos2: "'kern' Horizontal Kerning in Latin lookup 0 per glyph data 1" y dx=0 dy=0 dh=92 dv=0 dx=0 dy=0 dh=0 dv=0
PairPos2: "'kern' Horizontal Kerning in Latin lookup 0 per glyph data 1" x dx=0 dy=0 dh=51 dv=0 dx=0 dy=0 dh=0 dv=0
PairPos2: "'kern' Horizontal Kerning in Latin lookup 0 per glyph data 1" x dx=0 dy=0 dh=51 dv=0 dx=0 dy=0 dh=0 dv=0
PairPos2: "'kern' Horizontal Kerning in Latin lookup 0 per glyph data 1" x dx=0 dy=0 dh=51 dv=0 dx=0 dy=0 dh=0 dv=0
PairPos2: "'kern' Horizontal Kerning in Latin lookup 0 per glyph data 1" x dx=0 dy=0 dh=51 dv=0 dx=0 dy=0 dh=0 dv=0
PairPos2: "'kern' Horizontal Kerning in Latin lookup 0 per glyph data 1" x dx=0 dy=0 dh=51 dv=0 dx=0 dy=0 dh=0 dv=0
PairPos2: "'kern' Horizontal Kerning in Latin lookup 0 per glyph data 1" x dx=0 dy=0 dh=51 dv=0 dx=0 dy=0 dh=0 dv=0
PairPos2: "'kern' Horizontal Kerning in Latin lookup 0 per glyph data 1" w dx=0 dy=0 dh=82 dv=0 dx=0 dy=0 dh=0 dv=0
PairPos2: "'kern' Horizontal Kerning in Latin lookup 0 per glyph data 1" w dx=0 dy=0 dh=82 dv=0 dx=0 dy=0 dh=0 dv=0
PairPos2: "'kern' Horizontal Kerning in Latin lookup 0 per glyph data 1" w dx=0 dy=0 dh=82 dv=0 dx=0 dy=0 dh=0 dv=0
PairPos2: "'kern' Horizontal Kerning in Latin lookup 0 per glyph data 1" w dx=0 dy=0 dh=82 dv=0 dx=0 dy=0 dh=0 dv=0
PairPos2: "'kern' Horizontal Kerning in Latin lookup 0 per glyph data 1" w dx=0 dy=0 dh=82 dv=0 dx=0 dy=0 dh=0 dv=0
PairPos2: "'kern' Horizontal Kerning in Latin lookup 0 per glyph data 1" w dx=0 dy=0 dh=82 dv=0 dx=0 dy=0 dh=0 dv=0
PairPos2: "'kern' Horizontal Kerning in Latin lookup 0 per glyph data 1" v dx=0 dy=0 dh=82 dv=0 dx=0 dy=0 dh=0 dv=0
PairPos2: "'kern' Horizontal Kerning in Latin lookup 0 per glyph data 1" v dx=0 dy=0 dh=82 dv=0 dx=0 dy=0 dh=0 dv=0
PairPos2: "'kern' Horizontal Kerning in Latin lookup 0 per glyph data 1" v dx=0 dy=0 dh=82 dv=0 dx=0 dy=0 dh=0 dv=0
PairPos2: "'kern' Horizontal Kerning in Latin lookup 0 per glyph data 1" v dx=0 dy=0 dh=82 dv=0 dx=0 dy=0 dh=0 dv=0
PairPos2: "'kern' Horizontal Kerning in Latin lookup 0 per glyph data 1" v dx=0 dy=0 dh=82 dv=0 dx=0 dy=0 dh=0 dv=0
PairPos2: "'kern' Horizontal Kerning in Latin lookup 0 per glyph data 1" v dx=0 dy=0 dh=82 dv=0 dx=0 dy=0 dh=0 dv=0
PairPos2: "'kern' Horizontal Kerning in Latin lookup 0 per glyph data 1" t dx=0 dy=0 dh=102 dv=0 dx=0 dy=0 dh=0 dv=0
PairPos2: "'kern' Horizontal Kerning in Latin lookup 0 per glyph data 1" t dx=0 dy=0 dh=102 dv=0 dx=0 dy=0 dh=0 dv=0
PairPos2: "'kern' Horizontal Kerning in Latin lookup 0 per glyph data 1" t dx=0 dy=0 dh=102 dv=0 dx=0 dy=0 dh=0 dv=0
PairPos2: "'kern' Horizontal Kerning in Latin lookup 0 per glyph data 1" t dx=0 dy=0 dh=102 dv=0 dx=0 dy=0 dh=0 dv=0
PairPos2: "'kern' Horizontal Kerning in Latin lookup 0 per glyph data 1" t dx=0 dy=0 dh=102 dv=0 dx=0 dy=0 dh=0 dv=0
PairPos2: "'kern' Horizontal Kerning in Latin lookup 0 per glyph data 1" t dx=0 dy=0 dh=102 dv=0 dx=0 dy=0 dh=0 dv=0
PairPos2: "'kern' Horizontal Kerning in Latin lookup 0 per glyph data 1" q dx=0 dy=0 dh=-61 dv=0 dx=0 dy=0 dh=0 dv=0
PairPos2: "'kern' Horizontal Kerning in Latin lookup 0 per glyph data 1" q dx=0 dy=0 dh=-61 dv=0 dx=0 dy=0 dh=0 dv=0
PairPos2: "'kern' Horizontal Kerning in Latin lookup 0 per glyph data 1" q dx=0 dy=0 dh=-61 dv=0 dx=0 dy=0 dh=0 dv=0
PairPos2: "'kern' Horizontal Kerning in Latin lookup 0 per glyph data 1" q dx=0 dy=0 dh=-61 dv=0 dx=0 dy=0 dh=0 dv=0
PairPos2: "'kern' Horizontal Kerning in Latin lookup 0 per glyph data 1" q dx=0 dy=0 dh=-61 dv=0 dx=0 dy=0 dh=0 dv=0
PairPos2: "'kern' Horizontal Kerning in Latin lookup 0 per glyph data 1" q dx=0 dy=0 dh=-61 dv=0 dx=0 dy=0 dh=0 dv=0
PairPos2: "'kern' Horizontal Kerning in Latin lookup 0 per glyph data 1" o dx=0 dy=0 dh=-61 dv=0 dx=0 dy=0 dh=0 dv=0
PairPos2: "'kern' Horizontal Kerning in Latin lookup 0 per glyph data 1" o dx=0 dy=0 dh=-61 dv=0 dx=0 dy=0 dh=0 dv=0
PairPos2: "'kern' Horizontal Kerning in Latin lookup 0 per glyph data 1" o dx=0 dy=0 dh=-61 dv=0 dx=0 dy=0 dh=0 dv=0
PairPos2: "'kern' Horizontal Kerning in Latin lookup 0 per glyph data 1" o dx=0 dy=0 dh=-61 dv=0 dx=0 dy=0 dh=0 dv=0
PairPos2: "'kern' Horizontal Kerning in Latin lookup 0 per glyph data 1" o dx=0 dy=0 dh=-61 dv=0 dx=0 dy=0 dh=0 dv=0
PairPos2: "'kern' Horizontal Kerning in Latin lookup 0 per glyph data 1" o dx=0 dy=0 dh=-61 dv=0 dx=0 dy=0 dh=0 dv=0
PairPos2: "'kern' Horizontal Kerning in Latin lookup 0 per glyph data 1" j dx=0 dy=0 dh=82 dv=0 dx=0 dy=0 dh=0 dv=0
PairPos2: "'kern' Horizontal Kerning in Latin lookup 0 per glyph data 1" j dx=0 dy=0 dh=82 dv=0 dx=0 dy=0 dh=0 dv=0
PairPos2: "'kern' Horizontal Kerning in Latin lookup 0 per glyph data 1" j dx=0 dy=0 dh=82 dv=0 dx=0 dy=0 dh=0 dv=0
PairPos2: "'kern' Horizontal Kerning in Latin lookup 0 per glyph data 1" j dx=0 dy=0 dh=82 dv=0 dx=0 dy=0 dh=0 dv=0
PairPos2: "'kern' Horizontal Kerning in Latin lookup 0 per glyph data 1" j dx=0 dy=0 dh=82 dv=0 dx=0 dy=0 dh=0 dv=0
PairPos2: "'kern' Horizontal Kerning in Latin lookup 0 per glyph data 1" j dx=0 dy=0 dh=82 dv=0 dx=0 dy=0 dh=0 dv=0
PairPos2: "'kern' Horizontal Kerning in Latin lookup 0 per glyph data 1" g dx=0 dy=0 dh=-61 dv=0 dx=0 dy=0 dh=0 dv=0
PairPos2: "'kern' Horizontal Kerning in Latin lookup 0 per glyph data 1" g dx=0 dy=0 dh=-61 dv=0 dx=0 dy=0 dh=0 dv=0
PairPos2: "'kern' Horizontal Kerning in Latin lookup 0 per glyph data 1" g dx=0 dy=0 dh=-61 dv=0 dx=0 dy=0 dh=0 dv=0
PairPos2: "'kern' Horizontal Kerning in Latin lookup 0 per glyph data 1" g dx=0 dy=0 dh=-61 dv=0 dx=0 dy=0 dh=0 dv=0
PairPos2: "'kern' Horizontal Kerning in Latin lookup 0 per glyph data 1" g dx=0 dy=0 dh=-61 dv=0 dx=0 dy=0 dh=0 dv=0
PairPos2: "'kern' Horizontal Kerning in Latin lookup 0 per glyph data 1" g dx=0 dy=0 dh=-61 dv=0 dx=0 dy=0 dh=0 dv=0
PairPos2: "'kern' Horizontal Kerning in Latin lookup 0 per glyph data 1" c dx=0 dy=0 dh=-61 dv=0 dx=0 dy=0 dh=0 dv=0
PairPos2: "'kern' Horizontal Kerning in Latin lookup 0 per glyph data 1" c dx=0 dy=0 dh=-61 dv=0 dx=0 dy=0 dh=0 dv=0
PairPos2: "'kern' Horizontal Kerning in Latin lookup 0 per glyph data 1" c dx=0 dy=0 dh=-61 dv=0 dx=0 dy=0 dh=0 dv=0
PairPos2: "'kern' Horizontal Kerning in Latin lookup 0 per glyph data 1" c dx=0 dy=0 dh=-61 dv=0 dx=0 dy=0 dh=0 dv=0
PairPos2: "'kern' Horizontal Kerning in Latin lookup 0 per glyph data 1" c dx=0 dy=0 dh=-61 dv=0 dx=0 dy=0 dh=0 dv=0
PairPos2: "'kern' Horizontal Kerning in Latin lookup 0 per glyph data 1" c dx=0 dy=0 dh=-61 dv=0 dx=0 dy=0 dh=0 dv=0
PairPos2: "'kern' Horizontal Kerning in Latin lookup 0 per glyph data 1" a dx=0 dy=0 dh=-215 dv=0 dx=0 dy=0 dh=0 dv=0
PairPos2: "'kern' Horizontal Kerning in Latin lookup 0 per glyph data 1" a dx=0 dy=0 dh=-215 dv=0 dx=0 dy=0 dh=0 dv=0
PairPos2: "'kern' Horizontal Kerning in Latin lookup 0 per glyph data 1" a dx=0 dy=0 dh=-215 dv=0 dx=0 dy=0 dh=0 dv=0
PairPos2: "'kern' Horizontal Kerning in Latin lookup 0 per glyph data 1" a dx=0 dy=0 dh=-215 dv=0 dx=0 dy=0 dh=0 dv=0
PairPos2: "'kern' Horizontal Kerning in Latin lookup 0 per glyph data 1" a dx=0 dy=0 dh=-215 dv=0 dx=0 dy=0 dh=0 dv=0
PairPos2: "'kern' Horizontal Kerning in Latin lookup 0 per glyph data 1" a dx=0 dy=0 dh=-215 dv=0 dx=0 dy=0 dh=0 dv=0
PairPos2: "'kern' Horizontal Kerning in Latin lookup 0 per glyph data 1" Y dx=0 dy=0 dh=61 dv=0 dx=0 dy=0 dh=0 dv=0
PairPos2: "'kern' Horizontal Kerning in Latin lookup 0 per glyph data 1" Y dx=0 dy=0 dh=61 dv=0 dx=0 dy=0 dh=0 dv=0
PairPos2: "'kern' Horizontal Kerning in Latin lookup 0 per glyph data 1" Y dx=0 dy=0 dh=61 dv=0 dx=0 dy=0 dh=0 dv=0
PairPos2: "'kern' Horizontal Kerning in Latin lookup 0 per glyph data 1" Y dx=0 dy=0 dh=61 dv=0 dx=0 dy=0 dh=0 dv=0
PairPos2: "'kern' Horizontal Kerning in Latin lookup 0 per glyph data 1" Y dx=0 dy=0 dh=61 dv=0 dx=0 dy=0 dh=0 dv=0
PairPos2: "'kern' Horizontal Kerning in Latin lookup 0 per glyph data 1" Y dx=0 dy=0 dh=61 dv=0 dx=0 dy=0 dh=0 dv=0
PairPos2: "'kern' Horizontal Kerning in Latin lookup 0 per glyph data 1" X dx=0 dy=0 dh=20 dv=0 dx=0 dy=0 dh=0 dv=0
PairPos2: "'kern' Horizontal Kerning in Latin lookup 0 per glyph data 1" X dx=0 dy=0 dh=20 dv=0 dx=0 dy=0 dh=0 dv=0
PairPos2: "'kern' Horizontal Kerning in Latin lookup 0 per glyph data 1" X dx=0 dy=0 dh=20 dv=0 dx=0 dy=0 dh=0 dv=0
PairPos2: "'kern' Horizontal Kerning in Latin lookup 0 per glyph data 1" X dx=0 dy=0 dh=20 dv=0 dx=0 dy=0 dh=0 dv=0
PairPos2: "'kern' Horizontal Kerning in Latin lookup 0 per glyph data 1" X dx=0 dy=0 dh=20 dv=0 dx=0 dy=0 dh=0 dv=0
PairPos2: "'kern' Horizontal Kerning in Latin lookup 0 per glyph data 1" X dx=0 dy=0 dh=20 dv=0 dx=0 dy=0 dh=0 dv=0
PairPos2: "'kern' Horizontal Kerning in Latin lookup 0 per glyph data 1" W dx=0 dy=0 dh=61 dv=0 dx=0 dy=0 dh=0 dv=0
PairPos2: "'kern' Horizontal Kerning in Latin lookup 0 per glyph data 1" W dx=0 dy=0 dh=61 dv=0 dx=0 dy=0 dh=0 dv=0
PairPos2: "'kern' Horizontal Kerning in Latin lookup 0 per glyph data 1" W dx=0 dy=0 dh=61 dv=0 dx=0 dy=0 dh=0 dv=0
PairPos2: "'kern' Horizontal Kerning in Latin lookup 0 per glyph data 1" W dx=0 dy=0 dh=61 dv=0 dx=0 dy=0 dh=0 dv=0
PairPos2: "'kern' Horizontal Kerning in Latin lookup 0 per glyph data 1" W dx=0 dy=0 dh=61 dv=0 dx=0 dy=0 dh=0 dv=0
PairPos2: "'kern' Horizontal Kerning in Latin lookup 0 per glyph data 1" W dx=0 dy=0 dh=61 dv=0 dx=0 dy=0 dh=0 dv=0
PairPos2: "'kern' Horizontal Kerning in Latin lookup 0 per glyph data 1" V dx=0 dy=0 dh=61 dv=0 dx=0 dy=0 dh=0 dv=0
PairPos2: "'kern' Horizontal Kerning in Latin lookup 0 per glyph data 1" V dx=0 dy=0 dh=61 dv=0 dx=0 dy=0 dh=0 dv=0
PairPos2: "'kern' Horizontal Kerning in Latin lookup 0 per glyph data 1" V dx=0 dy=0 dh=61 dv=0 dx=0 dy=0 dh=0 dv=0
PairPos2: "'kern' Horizontal Kerning in Latin lookup 0 per glyph data 1" V dx=0 dy=0 dh=61 dv=0 dx=0 dy=0 dh=0 dv=0
PairPos2: "'kern' Horizontal Kerning in Latin lookup 0 per glyph data 1" V dx=0 dy=0 dh=61 dv=0 dx=0 dy=0 dh=0 dv=0
PairPos2: "'kern' Horizontal Kerning in Latin lookup 0 per glyph data 1" V dx=0 dy=0 dh=61 dv=0 dx=0 dy=0 dh=0 dv=0
PairPos2: "'kern' Horizontal Kerning in Latin lookup 0 per glyph data 1" T dx=0 dy=0 dh=102 dv=0 dx=0 dy=0 dh=0 dv=0
PairPos2: "'kern' Horizontal Kerning in Latin lookup 0 per glyph data 1" T dx=0 dy=0 dh=102 dv=0 dx=0 dy=0 dh=0 dv=0
PairPos2: "'kern' Horizontal Kerning in Latin lookup 0 per glyph data 1" T dx=0 dy=0 dh=102 dv=0 dx=0 dy=0 dh=0 dv=0
PairPos2: "'kern' Horizontal Kerning in Latin lookup 0 per glyph data 1" T dx=0 dy=0 dh=102 dv=0 dx=0 dy=0 dh=0 dv=0
PairPos2: "'kern' Horizontal Kerning in Latin lookup 0 per glyph data 1" T dx=0 dy=0 dh=102 dv=0 dx=0 dy=0 dh=0 dv=0
PairPos2: "'kern' Horizontal Kerning in Latin lookup 0 per glyph data 1" T dx=0 dy=0 dh=102 dv=0 dx=0 dy=0 dh=0 dv=0
PairPos2: "'kern' Horizontal Kerning in Latin lookup 0 per glyph data 1" S dx=0 dy=0 dh=20 dv=0 dx=0 dy=0 dh=0 dv=0
PairPos2: "'kern' Horizontal Kerning in Latin lookup 0 per glyph data 1" S dx=0 dy=0 dh=20 dv=0 dx=0 dy=0 dh=0 dv=0
PairPos2: "'kern' Horizontal Kerning in Latin lookup 0 per glyph data 1" S dx=0 dy=0 dh=20 dv=0 dx=0 dy=0 dh=0 dv=0
PairPos2: "'kern' Horizontal Kerning in Latin lookup 0 per glyph data 1" S dx=0 dy=0 dh=20 dv=0 dx=0 dy=0 dh=0 dv=0
PairPos2: "'kern' Horizontal Kerning in Latin lookup 0 per glyph data 1" S dx=0 dy=0 dh=20 dv=0 dx=0 dy=0 dh=0 dv=0
PairPos2: "'kern' Horizontal Kerning in Latin lookup 0 per glyph data 1" S dx=0 dy=0 dh=20 dv=0 dx=0 dy=0 dh=0 dv=0
PairPos2: "'kern' Horizontal Kerning in Latin lookup 0 per glyph data 1" J dx=0 dy=0 dh=82 dv=0 dx=0 dy=0 dh=0 dv=0
PairPos2: "'kern' Horizontal Kerning in Latin lookup 0 per glyph data 1" J dx=0 dy=0 dh=82 dv=0 dx=0 dy=0 dh=0 dv=0
PairPos2: "'kern' Horizontal Kerning in Latin lookup 0 per glyph data 1" J dx=0 dy=0 dh=82 dv=0 dx=0 dy=0 dh=0 dv=0
PairPos2: "'kern' Horizontal Kerning in Latin lookup 0 per glyph data 1" J dx=0 dy=0 dh=82 dv=0 dx=0 dy=0 dh=0 dv=0
PairPos2: "'kern' Horizontal Kerning in Latin lookup 0 per glyph data 1" J dx=0 dy=0 dh=82 dv=0 dx=0 dy=0 dh=0 dv=0
PairPos2: "'kern' Horizontal Kerning in Latin lookup 0 per glyph data 1" J dx=0 dy=0 dh=82 dv=0 dx=0 dy=0 dh=0 dv=0
PairPos2: "'kern' Horizontal Kerning in Latin lookup 0 per glyph data 1" A dx=0 dy=0 dh=-205 dv=0 dx=0 dy=0 dh=0 dv=0
PairPos2: "'kern' Horizontal Kerning in Latin lookup 0 per glyph data 1" A dx=0 dy=0 dh=-205 dv=0 dx=0 dy=0 dh=0 dv=0
PairPos2: "'kern' Horizontal Kerning in Latin lookup 0 per glyph data 1" A dx=0 dy=0 dh=-205 dv=0 dx=0 dy=0 dh=0 dv=0
PairPos2: "'kern' Horizontal Kerning in Latin lookup 0 per glyph data 1" A dx=0 dy=0 dh=-205 dv=0 dx=0 dy=0 dh=0 dv=0
PairPos2: "'kern' Horizontal Kerning in Latin lookup 0 per glyph data 1" A dx=0 dy=0 dh=-205 dv=0 dx=0 dy=0 dh=0 dv=0
PairPos2: "'kern' Horizontal Kerning in Latin lookup 0 per glyph data 1" A dx=0 dy=0 dh=-205 dv=0 dx=0 dy=0 dh=0 dv=0
PairPos2: "'kern' Horizontal Kerning in Latin lookup 0 per glyph data 1" period dx=0 dy=0 dh=-184 dv=0 dx=0 dy=0 dh=0 dv=0
PairPos2: "'kern' Horizontal Kerning in Latin lookup 0 per glyph data 1" period dx=0 dy=0 dh=-184 dv=0 dx=0 dy=0 dh=0 dv=0
PairPos2: "'kern' Horizontal Kerning in Latin lookup 0 per glyph data 1" period dx=0 dy=0 dh=-184 dv=0 dx=0 dy=0 dh=0 dv=0
PairPos2: "'kern' Horizontal Kerning in Latin lookup 0 per glyph data 1" period dx=0 dy=0 dh=-184 dv=0 dx=0 dy=0 dh=0 dv=0
PairPos2: "'kern' Horizontal Kerning in Latin lookup 0 per glyph data 1" period dx=0 dy=0 dh=-184 dv=0 dx=0 dy=0 dh=0 dv=0
PairPos2: "'kern' Horizontal Kerning in Latin lookup 0 per glyph data 1" period dx=0 dy=0 dh=-184 dv=0 dx=0 dy=0 dh=0 dv=0
PairPos2: "'kern' Horizontal Kerning in Latin lookup 0 per glyph data 1" hyphen dx=0 dy=0 dh=-61 dv=0 dx=0 dy=0 dh=0 dv=0
PairPos2: "'kern' Horizontal Kerning in Latin lookup 0 per glyph data 1" hyphen dx=0 dy=0 dh=-61 dv=0 dx=0 dy=0 dh=0 dv=0
PairPos2: "'kern' Horizontal Kerning in Latin lookup 0 per glyph data 1" hyphen dx=0 dy=0 dh=-61 dv=0 dx=0 dy=0 dh=0 dv=0
PairPos2: "'kern' Horizontal Kerning in Latin lookup 0 per glyph data 1" hyphen dx=0 dy=0 dh=-61 dv=0 dx=0 dy=0 dh=0 dv=0
PairPos2: "'kern' Horizontal Kerning in Latin lookup 0 per glyph data 1" hyphen dx=0 dy=0 dh=-61 dv=0 dx=0 dy=0 dh=0 dv=0
PairPos2: "'kern' Horizontal Kerning in Latin lookup 0 per glyph data 1" hyphen dx=0 dy=0 dh=-61 dv=0 dx=0 dy=0 dh=0 dv=0
PairPos2: "'kern' Horizontal Kerning in Latin lookup 0 per glyph data 1" comma dx=0 dy=0 dh=-184 dv=0 dx=0 dy=0 dh=0 dv=0
PairPos2: "'kern' Horizontal Kerning in Latin lookup 0 per glyph data 1" comma dx=0 dy=0 dh=-184 dv=0 dx=0 dy=0 dh=0 dv=0
PairPos2: "'kern' Horizontal Kerning in Latin lookup 0 per glyph data 1" comma dx=0 dy=0 dh=-184 dv=0 dx=0 dy=0 dh=0 dv=0
PairPos2: "'kern' Horizontal Kerning in Latin lookup 0 per glyph data 1" comma dx=0 dy=0 dh=-184 dv=0 dx=0 dy=0 dh=0 dv=0
PairPos2: "'kern' Horizontal Kerning in Latin lookup 0 per glyph data 1" comma dx=0 dy=0 dh=-184 dv=0 dx=0 dy=0 dh=0 dv=0
PairPos2: "'kern' Horizontal Kerning in Latin lookup 0 per glyph data 1" comma dx=0 dy=0 dh=-184 dv=0 dx=0 dy=0 dh=0 dv=0
PairPos2: "'kern' Horizontal Kerning in Latin lookup 0 per glyph data 1" asterisk dx=0 dy=0 dh=102 dv=0 dx=0 dy=0 dh=0 dv=0
PairPos2: "'kern' Horizontal Kerning in Latin lookup 0 per glyph data 1" asterisk dx=0 dy=0 dh=102 dv=0 dx=0 dy=0 dh=0 dv=0
PairPos2: "'kern' Horizontal Kerning in Latin lookup 0 per glyph data 1" asterisk dx=0 dy=0 dh=102 dv=0 dx=0 dy=0 dh=0 dv=0
PairPos2: "'kern' Horizontal Kerning in Latin lookup 0 per glyph data 1" asterisk dx=0 dy=0 dh=102 dv=0 dx=0 dy=0 dh=0 dv=0
PairPos2: "'kern' Horizontal Kerning in Latin lookup 0 per glyph data 1" asterisk dx=0 dy=0 dh=102 dv=0 dx=0 dy=0 dh=0 dv=0
PairPos2: "'kern' Horizontal Kerning in Latin lookup 0 per glyph data 1" asterisk dx=0 dy=0 dh=102 dv=0 dx=0 dy=0 dh=0 dv=0
PairPos2: "'kern' Horizontal Kerning in Latin lookup 0 per glyph data 1" ampersand dx=0 dy=0 dh=-102 dv=0 dx=0 dy=0 dh=0 dv=0
PairPos2: "'kern' Horizontal Kerning in Latin lookup 0 per glyph data 1" ampersand dx=0 dy=0 dh=-102 dv=0 dx=0 dy=0 dh=0 dv=0
PairPos2: "'kern' Horizontal Kerning in Latin lookup 0 per glyph data 1" ampersand dx=0 dy=0 dh=-102 dv=0 dx=0 dy=0 dh=0 dv=0
PairPos2: "'kern' Horizontal Kerning in Latin lookup 0 per glyph data 1" ampersand dx=0 dy=0 dh=-102 dv=0 dx=0 dy=0 dh=0 dv=0
PairPos2: "'kern' Horizontal Kerning in Latin lookup 0 per glyph data 1" ampersand dx=0 dy=0 dh=-102 dv=0 dx=0 dy=0 dh=0 dv=0
PairPos2: "'kern' Horizontal Kerning in Latin lookup 0 per glyph data 1" ampersand dx=0 dy=0 dh=-102 dv=0 dx=0 dy=0 dh=0 dv=0
EndChar

StartChar: G
Encoding: 71 71 43
Width: 1411
GlyphClass: 2
Flags: W
LayerCount: 2
Fore
SplineSet
92 717 m 0,0,1
 92 881 92 881 146 1020.5 c 128,-1,2
 200 1160 200 1160 292.5 1254.5 c 128,-1,3
 385 1349 385 1349 508.5 1401.5 c 128,-1,4
 632 1454 632 1454 770 1454 c 0,5,6
 1077 1454 1077 1454 1253 1278 c 1,7,-1
 1026 963 l 1,8,-1
 1020 969 l 1,9,10
 1026 1023 1026 1023 1026 1059 c 0,11,12
 1026 1174 1026 1174 964.5 1247.5 c 128,-1,13
 903 1321 903 1321 780 1321 c 0,14,15
 620 1321 620 1321 525 1169 c 128,-1,16
 430 1017 430 1017 430 737 c 0,17,18
 430 418 430 418 519 265.5 c 128,-1,19
 608 113 608 113 799 113 c 0,20,21
 903 113 903 113 991 156 c 1,22,-1
 991 371 l 2,23,24
 991 511 991 511 926 589.5 c 128,-1,25
 861 668 861 668 737 709 c 1,26,-1
 737 717 l 1,27,-1
 1278 717 l 1,28,-1
 1278 -20 l 1,29,-1
 1270 -20 l 1,30,-1
 1085 78 l 1,31,32
 932 -20 932 -20 737 -20 c 0,33,34
 597 -20 597 -20 480 27 c 128,-1,35
 363 74 363 74 276 164.5 c 128,-1,36
 189 255 189 255 140.5 396.5 c 128,-1,37
 92 538 92 538 92 717 c 0,0,1
EndSplineSet
Validated: 1
Substitution2: "Single Substitution lookup 7 subtable" g
Position2: "'cpsp' Capital Spacing in Latin lookup 1 subtable" dx=16 dy=0 dh=16 dv=0
PairPos2: "'kern' Horizontal Kerning in Latin lookup 0 per glyph data 1" quotedblright dx=0 dy=0 dh=-82 dv=0 dx=0 dy=0 dh=0 dv=0
PairPos2: "'kern' Horizontal Kerning in Latin lookup 0 per glyph data 1" quotedblright dx=0 dy=0 dh=-82 dv=0 dx=0 dy=0 dh=0 dv=0
PairPos2: "'kern' Horizontal Kerning in Latin lookup 0 per glyph data 1" quotedblright dx=0 dy=0 dh=-82 dv=0 dx=0 dy=0 dh=0 dv=0
PairPos2: "'kern' Horizontal Kerning in Latin lookup 0 per glyph data 1" quotedblright dx=0 dy=0 dh=-82 dv=0 dx=0 dy=0 dh=0 dv=0
PairPos2: "'kern' Horizontal Kerning in Latin lookup 0 per glyph data 1" quotedblright dx=0 dy=0 dh=-82 dv=0 dx=0 dy=0 dh=0 dv=0
PairPos2: "'kern' Horizontal Kerning in Latin lookup 0 per glyph data 1" quotedblright dx=0 dy=0 dh=-82 dv=0 dx=0 dy=0 dh=0 dv=0
PairPos2: "'kern' Horizontal Kerning in Latin lookup 0 per glyph data 1" quotedblleft dx=0 dy=0 dh=-82 dv=0 dx=0 dy=0 dh=0 dv=0
PairPos2: "'kern' Horizontal Kerning in Latin lookup 0 per glyph data 1" quotedblleft dx=0 dy=0 dh=-82 dv=0 dx=0 dy=0 dh=0 dv=0
PairPos2: "'kern' Horizontal Kerning in Latin lookup 0 per glyph data 1" quotedblleft dx=0 dy=0 dh=-82 dv=0 dx=0 dy=0 dh=0 dv=0
PairPos2: "'kern' Horizontal Kerning in Latin lookup 0 per glyph data 1" quotedblleft dx=0 dy=0 dh=-82 dv=0 dx=0 dy=0 dh=0 dv=0
PairPos2: "'kern' Horizontal Kerning in Latin lookup 0 per glyph data 1" quotedblleft dx=0 dy=0 dh=-82 dv=0 dx=0 dy=0 dh=0 dv=0
PairPos2: "'kern' Horizontal Kerning in Latin lookup 0 per glyph data 1" quotedblleft dx=0 dy=0 dh=-82 dv=0 dx=0 dy=0 dh=0 dv=0
PairPos2: "'kern' Horizontal Kerning in Latin lookup 0 per glyph data 1" quoteright dx=0 dy=0 dh=-82 dv=0 dx=0 dy=0 dh=0 dv=0
PairPos2: "'kern' Horizontal Kerning in Latin lookup 0 per glyph data 1" quoteright dx=0 dy=0 dh=-82 dv=0 dx=0 dy=0 dh=0 dv=0
PairPos2: "'kern' Horizontal Kerning in Latin lookup 0 per glyph data 1" quoteright dx=0 dy=0 dh=-82 dv=0 dx=0 dy=0 dh=0 dv=0
PairPos2: "'kern' Horizontal Kerning in Latin lookup 0 per glyph data 1" quoteright dx=0 dy=0 dh=-82 dv=0 dx=0 dy=0 dh=0 dv=0
PairPos2: "'kern' Horizontal Kerning in Latin lookup 0 per glyph data 1" quoteright dx=0 dy=0 dh=-82 dv=0 dx=0 dy=0 dh=0 dv=0
PairPos2: "'kern' Horizontal Kerning in Latin lookup 0 per glyph data 1" quoteright dx=0 dy=0 dh=-82 dv=0 dx=0 dy=0 dh=0 dv=0
PairPos2: "'kern' Horizontal Kerning in Latin lookup 0 per glyph data 1" quoteleft dx=0 dy=0 dh=-82 dv=0 dx=0 dy=0 dh=0 dv=0
PairPos2: "'kern' Horizontal Kerning in Latin lookup 0 per glyph data 1" quoteleft dx=0 dy=0 dh=-82 dv=0 dx=0 dy=0 dh=0 dv=0
PairPos2: "'kern' Horizontal Kerning in Latin lookup 0 per glyph data 1" quoteleft dx=0 dy=0 dh=-82 dv=0 dx=0 dy=0 dh=0 dv=0
PairPos2: "'kern' Horizontal Kerning in Latin lookup 0 per glyph data 1" quoteleft dx=0 dy=0 dh=-82 dv=0 dx=0 dy=0 dh=0 dv=0
PairPos2: "'kern' Horizontal Kerning in Latin lookup 0 per glyph data 1" quoteleft dx=0 dy=0 dh=-82 dv=0 dx=0 dy=0 dh=0 dv=0
PairPos2: "'kern' Horizontal Kerning in Latin lookup 0 per glyph data 1" quoteleft dx=0 dy=0 dh=-82 dv=0 dx=0 dy=0 dh=0 dv=0
PairPos2: "'kern' Horizontal Kerning in Latin lookup 0 per glyph data 1" Ydieresis dx=0 dy=0 dh=-92 dv=0 dx=0 dy=0 dh=0 dv=0
PairPos2: "'kern' Horizontal Kerning in Latin lookup 0 per glyph data 1" Ydieresis dx=0 dy=0 dh=-92 dv=0 dx=0 dy=0 dh=0 dv=0
PairPos2: "'kern' Horizontal Kerning in Latin lookup 0 per glyph data 1" Ydieresis dx=0 dy=0 dh=-92 dv=0 dx=0 dy=0 dh=0 dv=0
PairPos2: "'kern' Horizontal Kerning in Latin lookup 0 per glyph data 1" Ydieresis dx=0 dy=0 dh=-92 dv=0 dx=0 dy=0 dh=0 dv=0
PairPos2: "'kern' Horizontal Kerning in Latin lookup 0 per glyph data 1" Ydieresis dx=0 dy=0 dh=-92 dv=0 dx=0 dy=0 dh=0 dv=0
PairPos2: "'kern' Horizontal Kerning in Latin lookup 0 per glyph data 1" Ydieresis dx=0 dy=0 dh=-92 dv=0 dx=0 dy=0 dh=0 dv=0
PairPos2: "'kern' Horizontal Kerning in Latin lookup 0 per glyph data 1" ydieresis dx=0 dy=0 dh=-113 dv=0 dx=0 dy=0 dh=0 dv=0
PairPos2: "'kern' Horizontal Kerning in Latin lookup 0 per glyph data 1" ydieresis dx=0 dy=0 dh=-113 dv=0 dx=0 dy=0 dh=0 dv=0
PairPos2: "'kern' Horizontal Kerning in Latin lookup 0 per glyph data 1" ydieresis dx=0 dy=0 dh=-113 dv=0 dx=0 dy=0 dh=0 dv=0
PairPos2: "'kern' Horizontal Kerning in Latin lookup 0 per glyph data 1" ydieresis dx=0 dy=0 dh=-113 dv=0 dx=0 dy=0 dh=0 dv=0
PairPos2: "'kern' Horizontal Kerning in Latin lookup 0 per glyph data 1" ydieresis dx=0 dy=0 dh=-113 dv=0 dx=0 dy=0 dh=0 dv=0
PairPos2: "'kern' Horizontal Kerning in Latin lookup 0 per glyph data 1" ydieresis dx=0 dy=0 dh=-113 dv=0 dx=0 dy=0 dh=0 dv=0
PairPos2: "'kern' Horizontal Kerning in Latin lookup 0 per glyph data 1" thorn dx=0 dy=0 dh=-10 dv=0 dx=0 dy=0 dh=0 dv=0
PairPos2: "'kern' Horizontal Kerning in Latin lookup 0 per glyph data 1" thorn dx=0 dy=0 dh=-10 dv=0 dx=0 dy=0 dh=0 dv=0
PairPos2: "'kern' Horizontal Kerning in Latin lookup 0 per glyph data 1" thorn dx=0 dy=0 dh=-10 dv=0 dx=0 dy=0 dh=0 dv=0
PairPos2: "'kern' Horizontal Kerning in Latin lookup 0 per glyph data 1" thorn dx=0 dy=0 dh=-10 dv=0 dx=0 dy=0 dh=0 dv=0
PairPos2: "'kern' Horizontal Kerning in Latin lookup 0 per glyph data 1" thorn dx=0 dy=0 dh=-10 dv=0 dx=0 dy=0 dh=0 dv=0
PairPos2: "'kern' Horizontal Kerning in Latin lookup 0 per glyph data 1" thorn dx=0 dy=0 dh=-10 dv=0 dx=0 dy=0 dh=0 dv=0
PairPos2: "'kern' Horizontal Kerning in Latin lookup 0 per glyph data 1" yacute dx=0 dy=0 dh=-113 dv=0 dx=0 dy=0 dh=0 dv=0
PairPos2: "'kern' Horizontal Kerning in Latin lookup 0 per glyph data 1" yacute dx=0 dy=0 dh=-113 dv=0 dx=0 dy=0 dh=0 dv=0
PairPos2: "'kern' Horizontal Kerning in Latin lookup 0 per glyph data 1" yacute dx=0 dy=0 dh=-113 dv=0 dx=0 dy=0 dh=0 dv=0
PairPos2: "'kern' Horizontal Kerning in Latin lookup 0 per glyph data 1" yacute dx=0 dy=0 dh=-113 dv=0 dx=0 dy=0 dh=0 dv=0
PairPos2: "'kern' Horizontal Kerning in Latin lookup 0 per glyph data 1" yacute dx=0 dy=0 dh=-113 dv=0 dx=0 dy=0 dh=0 dv=0
PairPos2: "'kern' Horizontal Kerning in Latin lookup 0 per glyph data 1" yacute dx=0 dy=0 dh=-113 dv=0 dx=0 dy=0 dh=0 dv=0
PairPos2: "'kern' Horizontal Kerning in Latin lookup 0 per glyph data 1" udieresis dx=0 dy=0 dh=-20 dv=0 dx=0 dy=0 dh=0 dv=0
PairPos2: "'kern' Horizontal Kerning in Latin lookup 0 per glyph data 1" udieresis dx=0 dy=0 dh=-20 dv=0 dx=0 dy=0 dh=0 dv=0
PairPos2: "'kern' Horizontal Kerning in Latin lookup 0 per glyph data 1" udieresis dx=0 dy=0 dh=-20 dv=0 dx=0 dy=0 dh=0 dv=0
PairPos2: "'kern' Horizontal Kerning in Latin lookup 0 per glyph data 1" udieresis dx=0 dy=0 dh=-20 dv=0 dx=0 dy=0 dh=0 dv=0
PairPos2: "'kern' Horizontal Kerning in Latin lookup 0 per glyph data 1" udieresis dx=0 dy=0 dh=-20 dv=0 dx=0 dy=0 dh=0 dv=0
PairPos2: "'kern' Horizontal Kerning in Latin lookup 0 per glyph data 1" udieresis dx=0 dy=0 dh=-20 dv=0 dx=0 dy=0 dh=0 dv=0
PairPos2: "'kern' Horizontal Kerning in Latin lookup 0 per glyph data 1" ucircumflex dx=0 dy=0 dh=-20 dv=0 dx=0 dy=0 dh=0 dv=0
PairPos2: "'kern' Horizontal Kerning in Latin lookup 0 per glyph data 1" ucircumflex dx=0 dy=0 dh=-20 dv=0 dx=0 dy=0 dh=0 dv=0
PairPos2: "'kern' Horizontal Kerning in Latin lookup 0 per glyph data 1" ucircumflex dx=0 dy=0 dh=-20 dv=0 dx=0 dy=0 dh=0 dv=0
PairPos2: "'kern' Horizontal Kerning in Latin lookup 0 per glyph data 1" ucircumflex dx=0 dy=0 dh=-20 dv=0 dx=0 dy=0 dh=0 dv=0
PairPos2: "'kern' Horizontal Kerning in Latin lookup 0 per glyph data 1" ucircumflex dx=0 dy=0 dh=-20 dv=0 dx=0 dy=0 dh=0 dv=0
PairPos2: "'kern' Horizontal Kerning in Latin lookup 0 per glyph data 1" ucircumflex dx=0 dy=0 dh=-20 dv=0 dx=0 dy=0 dh=0 dv=0
PairPos2: "'kern' Horizontal Kerning in Latin lookup 0 per glyph data 1" uacute dx=0 dy=0 dh=-20 dv=0 dx=0 dy=0 dh=0 dv=0
PairPos2: "'kern' Horizontal Kerning in Latin lookup 0 per glyph data 1" uacute dx=0 dy=0 dh=-20 dv=0 dx=0 dy=0 dh=0 dv=0
PairPos2: "'kern' Horizontal Kerning in Latin lookup 0 per glyph data 1" uacute dx=0 dy=0 dh=-20 dv=0 dx=0 dy=0 dh=0 dv=0
PairPos2: "'kern' Horizontal Kerning in Latin lookup 0 per glyph data 1" uacute dx=0 dy=0 dh=-20 dv=0 dx=0 dy=0 dh=0 dv=0
PairPos2: "'kern' Horizontal Kerning in Latin lookup 0 per glyph data 1" uacute dx=0 dy=0 dh=-20 dv=0 dx=0 dy=0 dh=0 dv=0
PairPos2: "'kern' Horizontal Kerning in Latin lookup 0 per glyph data 1" uacute dx=0 dy=0 dh=-20 dv=0 dx=0 dy=0 dh=0 dv=0
PairPos2: "'kern' Horizontal Kerning in Latin lookup 0 per glyph data 1" ugrave dx=0 dy=0 dh=-20 dv=0 dx=0 dy=0 dh=0 dv=0
PairPos2: "'kern' Horizontal Kerning in Latin lookup 0 per glyph data 1" ugrave dx=0 dy=0 dh=-20 dv=0 dx=0 dy=0 dh=0 dv=0
PairPos2: "'kern' Horizontal Kerning in Latin lookup 0 per glyph data 1" ugrave dx=0 dy=0 dh=-20 dv=0 dx=0 dy=0 dh=0 dv=0
PairPos2: "'kern' Horizontal Kerning in Latin lookup 0 per glyph data 1" ugrave dx=0 dy=0 dh=-20 dv=0 dx=0 dy=0 dh=0 dv=0
PairPos2: "'kern' Horizontal Kerning in Latin lookup 0 per glyph data 1" ugrave dx=0 dy=0 dh=-20 dv=0 dx=0 dy=0 dh=0 dv=0
PairPos2: "'kern' Horizontal Kerning in Latin lookup 0 per glyph data 1" ugrave dx=0 dy=0 dh=-20 dv=0 dx=0 dy=0 dh=0 dv=0
PairPos2: "'kern' Horizontal Kerning in Latin lookup 0 per glyph data 1" ntilde dx=0 dy=0 dh=-10 dv=0 dx=0 dy=0 dh=0 dv=0
PairPos2: "'kern' Horizontal Kerning in Latin lookup 0 per glyph data 1" ntilde dx=0 dy=0 dh=-10 dv=0 dx=0 dy=0 dh=0 dv=0
PairPos2: "'kern' Horizontal Kerning in Latin lookup 0 per glyph data 1" ntilde dx=0 dy=0 dh=-10 dv=0 dx=0 dy=0 dh=0 dv=0
PairPos2: "'kern' Horizontal Kerning in Latin lookup 0 per glyph data 1" ntilde dx=0 dy=0 dh=-10 dv=0 dx=0 dy=0 dh=0 dv=0
PairPos2: "'kern' Horizontal Kerning in Latin lookup 0 per glyph data 1" ntilde dx=0 dy=0 dh=-10 dv=0 dx=0 dy=0 dh=0 dv=0
PairPos2: "'kern' Horizontal Kerning in Latin lookup 0 per glyph data 1" ntilde dx=0 dy=0 dh=-10 dv=0 dx=0 dy=0 dh=0 dv=0
PairPos2: "'kern' Horizontal Kerning in Latin lookup 0 per glyph data 1" idieresis dx=0 dy=0 dh=-10 dv=0 dx=0 dy=0 dh=0 dv=0
PairPos2: "'kern' Horizontal Kerning in Latin lookup 0 per glyph data 1" idieresis dx=0 dy=0 dh=-10 dv=0 dx=0 dy=0 dh=0 dv=0
PairPos2: "'kern' Horizontal Kerning in Latin lookup 0 per glyph data 1" idieresis dx=0 dy=0 dh=-10 dv=0 dx=0 dy=0 dh=0 dv=0
PairPos2: "'kern' Horizontal Kerning in Latin lookup 0 per glyph data 1" idieresis dx=0 dy=0 dh=-10 dv=0 dx=0 dy=0 dh=0 dv=0
PairPos2: "'kern' Horizontal Kerning in Latin lookup 0 per glyph data 1" idieresis dx=0 dy=0 dh=-10 dv=0 dx=0 dy=0 dh=0 dv=0
PairPos2: "'kern' Horizontal Kerning in Latin lookup 0 per glyph data 1" idieresis dx=0 dy=0 dh=-10 dv=0 dx=0 dy=0 dh=0 dv=0
PairPos2: "'kern' Horizontal Kerning in Latin lookup 0 per glyph data 1" icircumflex dx=0 dy=0 dh=-10 dv=0 dx=0 dy=0 dh=0 dv=0
PairPos2: "'kern' Horizontal Kerning in Latin lookup 0 per glyph data 1" icircumflex dx=0 dy=0 dh=-10 dv=0 dx=0 dy=0 dh=0 dv=0
PairPos2: "'kern' Horizontal Kerning in Latin lookup 0 per glyph data 1" icircumflex dx=0 dy=0 dh=-10 dv=0 dx=0 dy=0 dh=0 dv=0
PairPos2: "'kern' Horizontal Kerning in Latin lookup 0 per glyph data 1" icircumflex dx=0 dy=0 dh=-10 dv=0 dx=0 dy=0 dh=0 dv=0
PairPos2: "'kern' Horizontal Kerning in Latin lookup 0 per glyph data 1" icircumflex dx=0 dy=0 dh=-10 dv=0 dx=0 dy=0 dh=0 dv=0
PairPos2: "'kern' Horizontal Kerning in Latin lookup 0 per glyph data 1" icircumflex dx=0 dy=0 dh=-10 dv=0 dx=0 dy=0 dh=0 dv=0
PairPos2: "'kern' Horizontal Kerning in Latin lookup 0 per glyph data 1" iacute dx=0 dy=0 dh=-10 dv=0 dx=0 dy=0 dh=0 dv=0
PairPos2: "'kern' Horizontal Kerning in Latin lookup 0 per glyph data 1" iacute dx=0 dy=0 dh=-10 dv=0 dx=0 dy=0 dh=0 dv=0
PairPos2: "'kern' Horizontal Kerning in Latin lookup 0 per glyph data 1" iacute dx=0 dy=0 dh=-10 dv=0 dx=0 dy=0 dh=0 dv=0
PairPos2: "'kern' Horizontal Kerning in Latin lookup 0 per glyph data 1" iacute dx=0 dy=0 dh=-10 dv=0 dx=0 dy=0 dh=0 dv=0
PairPos2: "'kern' Horizontal Kerning in Latin lookup 0 per glyph data 1" iacute dx=0 dy=0 dh=-10 dv=0 dx=0 dy=0 dh=0 dv=0
PairPos2: "'kern' Horizontal Kerning in Latin lookup 0 per glyph data 1" iacute dx=0 dy=0 dh=-10 dv=0 dx=0 dy=0 dh=0 dv=0
PairPos2: "'kern' Horizontal Kerning in Latin lookup 0 per glyph data 1" igrave dx=0 dy=0 dh=-10 dv=0 dx=0 dy=0 dh=0 dv=0
PairPos2: "'kern' Horizontal Kerning in Latin lookup 0 per glyph data 1" igrave dx=0 dy=0 dh=-10 dv=0 dx=0 dy=0 dh=0 dv=0
PairPos2: "'kern' Horizontal Kerning in Latin lookup 0 per glyph data 1" igrave dx=0 dy=0 dh=-10 dv=0 dx=0 dy=0 dh=0 dv=0
PairPos2: "'kern' Horizontal Kerning in Latin lookup 0 per glyph data 1" igrave dx=0 dy=0 dh=-10 dv=0 dx=0 dy=0 dh=0 dv=0
PairPos2: "'kern' Horizontal Kerning in Latin lookup 0 per glyph data 1" igrave dx=0 dy=0 dh=-10 dv=0 dx=0 dy=0 dh=0 dv=0
PairPos2: "'kern' Horizontal Kerning in Latin lookup 0 per glyph data 1" igrave dx=0 dy=0 dh=-10 dv=0 dx=0 dy=0 dh=0 dv=0
PairPos2: "'kern' Horizontal Kerning in Latin lookup 0 per glyph data 1" edieresis dx=0 dy=0 dh=-10 dv=0 dx=0 dy=0 dh=0 dv=0
PairPos2: "'kern' Horizontal Kerning in Latin lookup 0 per glyph data 1" edieresis dx=0 dy=0 dh=-10 dv=0 dx=0 dy=0 dh=0 dv=0
PairPos2: "'kern' Horizontal Kerning in Latin lookup 0 per glyph data 1" edieresis dx=0 dy=0 dh=-10 dv=0 dx=0 dy=0 dh=0 dv=0
PairPos2: "'kern' Horizontal Kerning in Latin lookup 0 per glyph data 1" edieresis dx=0 dy=0 dh=-10 dv=0 dx=0 dy=0 dh=0 dv=0
PairPos2: "'kern' Horizontal Kerning in Latin lookup 0 per glyph data 1" edieresis dx=0 dy=0 dh=-10 dv=0 dx=0 dy=0 dh=0 dv=0
PairPos2: "'kern' Horizontal Kerning in Latin lookup 0 per glyph data 1" edieresis dx=0 dy=0 dh=-10 dv=0 dx=0 dy=0 dh=0 dv=0
PairPos2: "'kern' Horizontal Kerning in Latin lookup 0 per glyph data 1" ecircumflex dx=0 dy=0 dh=-10 dv=0 dx=0 dy=0 dh=0 dv=0
PairPos2: "'kern' Horizontal Kerning in Latin lookup 0 per glyph data 1" ecircumflex dx=0 dy=0 dh=-10 dv=0 dx=0 dy=0 dh=0 dv=0
PairPos2: "'kern' Horizontal Kerning in Latin lookup 0 per glyph data 1" ecircumflex dx=0 dy=0 dh=-10 dv=0 dx=0 dy=0 dh=0 dv=0
PairPos2: "'kern' Horizontal Kerning in Latin lookup 0 per glyph data 1" ecircumflex dx=0 dy=0 dh=-10 dv=0 dx=0 dy=0 dh=0 dv=0
PairPos2: "'kern' Horizontal Kerning in Latin lookup 0 per glyph data 1" ecircumflex dx=0 dy=0 dh=-10 dv=0 dx=0 dy=0 dh=0 dv=0
PairPos2: "'kern' Horizontal Kerning in Latin lookup 0 per glyph data 1" ecircumflex dx=0 dy=0 dh=-10 dv=0 dx=0 dy=0 dh=0 dv=0
PairPos2: "'kern' Horizontal Kerning in Latin lookup 0 per glyph data 1" eacute dx=0 dy=0 dh=-10 dv=0 dx=0 dy=0 dh=0 dv=0
PairPos2: "'kern' Horizontal Kerning in Latin lookup 0 per glyph data 1" eacute dx=0 dy=0 dh=-10 dv=0 dx=0 dy=0 dh=0 dv=0
PairPos2: "'kern' Horizontal Kerning in Latin lookup 0 per glyph data 1" eacute dx=0 dy=0 dh=-10 dv=0 dx=0 dy=0 dh=0 dv=0
PairPos2: "'kern' Horizontal Kerning in Latin lookup 0 per glyph data 1" eacute dx=0 dy=0 dh=-10 dv=0 dx=0 dy=0 dh=0 dv=0
PairPos2: "'kern' Horizontal Kerning in Latin lookup 0 per glyph data 1" eacute dx=0 dy=0 dh=-10 dv=0 dx=0 dy=0 dh=0 dv=0
PairPos2: "'kern' Horizontal Kerning in Latin lookup 0 per glyph data 1" eacute dx=0 dy=0 dh=-10 dv=0 dx=0 dy=0 dh=0 dv=0
PairPos2: "'kern' Horizontal Kerning in Latin lookup 0 per glyph data 1" egrave dx=0 dy=0 dh=-10 dv=0 dx=0 dy=0 dh=0 dv=0
PairPos2: "'kern' Horizontal Kerning in Latin lookup 0 per glyph data 1" egrave dx=0 dy=0 dh=-10 dv=0 dx=0 dy=0 dh=0 dv=0
PairPos2: "'kern' Horizontal Kerning in Latin lookup 0 per glyph data 1" egrave dx=0 dy=0 dh=-10 dv=0 dx=0 dy=0 dh=0 dv=0
PairPos2: "'kern' Horizontal Kerning in Latin lookup 0 per glyph data 1" egrave dx=0 dy=0 dh=-10 dv=0 dx=0 dy=0 dh=0 dv=0
PairPos2: "'kern' Horizontal Kerning in Latin lookup 0 per glyph data 1" egrave dx=0 dy=0 dh=-10 dv=0 dx=0 dy=0 dh=0 dv=0
PairPos2: "'kern' Horizontal Kerning in Latin lookup 0 per glyph data 1" egrave dx=0 dy=0 dh=-10 dv=0 dx=0 dy=0 dh=0 dv=0
PairPos2: "'kern' Horizontal Kerning in Latin lookup 0 per glyph data 1" aacute dx=0 dy=0 dh=-10 dv=0 dx=0 dy=0 dh=0 dv=0
PairPos2: "'kern' Horizontal Kerning in Latin lookup 0 per glyph data 1" aacute dx=0 dy=0 dh=-10 dv=0 dx=0 dy=0 dh=0 dv=0
PairPos2: "'kern' Horizontal Kerning in Latin lookup 0 per glyph data 1" aacute dx=0 dy=0 dh=-10 dv=0 dx=0 dy=0 dh=0 dv=0
PairPos2: "'kern' Horizontal Kerning in Latin lookup 0 per glyph data 1" aacute dx=0 dy=0 dh=-10 dv=0 dx=0 dy=0 dh=0 dv=0
PairPos2: "'kern' Horizontal Kerning in Latin lookup 0 per glyph data 1" aacute dx=0 dy=0 dh=-10 dv=0 dx=0 dy=0 dh=0 dv=0
PairPos2: "'kern' Horizontal Kerning in Latin lookup 0 per glyph data 1" aacute dx=0 dy=0 dh=-10 dv=0 dx=0 dy=0 dh=0 dv=0
PairPos2: "'kern' Horizontal Kerning in Latin lookup 0 per glyph data 1" germandbls dx=0 dy=0 dh=-20 dv=0 dx=0 dy=0 dh=0 dv=0
PairPos2: "'kern' Horizontal Kerning in Latin lookup 0 per glyph data 1" germandbls dx=0 dy=0 dh=-20 dv=0 dx=0 dy=0 dh=0 dv=0
PairPos2: "'kern' Horizontal Kerning in Latin lookup 0 per glyph data 1" germandbls dx=0 dy=0 dh=-20 dv=0 dx=0 dy=0 dh=0 dv=0
PairPos2: "'kern' Horizontal Kerning in Latin lookup 0 per glyph data 1" germandbls dx=0 dy=0 dh=-20 dv=0 dx=0 dy=0 dh=0 dv=0
PairPos2: "'kern' Horizontal Kerning in Latin lookup 0 per glyph data 1" germandbls dx=0 dy=0 dh=-20 dv=0 dx=0 dy=0 dh=0 dv=0
PairPos2: "'kern' Horizontal Kerning in Latin lookup 0 per glyph data 1" germandbls dx=0 dy=0 dh=-20 dv=0 dx=0 dy=0 dh=0 dv=0
PairPos2: "'kern' Horizontal Kerning in Latin lookup 0 per glyph data 1" Yacute dx=0 dy=0 dh=-92 dv=0 dx=0 dy=0 dh=0 dv=0
PairPos2: "'kern' Horizontal Kerning in Latin lookup 0 per glyph data 1" Yacute dx=0 dy=0 dh=-92 dv=0 dx=0 dy=0 dh=0 dv=0
PairPos2: "'kern' Horizontal Kerning in Latin lookup 0 per glyph data 1" Yacute dx=0 dy=0 dh=-92 dv=0 dx=0 dy=0 dh=0 dv=0
PairPos2: "'kern' Horizontal Kerning in Latin lookup 0 per glyph data 1" Yacute dx=0 dy=0 dh=-92 dv=0 dx=0 dy=0 dh=0 dv=0
PairPos2: "'kern' Horizontal Kerning in Latin lookup 0 per glyph data 1" Yacute dx=0 dy=0 dh=-92 dv=0 dx=0 dy=0 dh=0 dv=0
PairPos2: "'kern' Horizontal Kerning in Latin lookup 0 per glyph data 1" Yacute dx=0 dy=0 dh=-92 dv=0 dx=0 dy=0 dh=0 dv=0
PairPos2: "'kern' Horizontal Kerning in Latin lookup 0 per glyph data 1" Aring dx=0 dy=0 dh=-10 dv=0 dx=0 dy=0 dh=0 dv=0
PairPos2: "'kern' Horizontal Kerning in Latin lookup 0 per glyph data 1" Aring dx=0 dy=0 dh=-10 dv=0 dx=0 dy=0 dh=0 dv=0
PairPos2: "'kern' Horizontal Kerning in Latin lookup 0 per glyph data 1" Aring dx=0 dy=0 dh=-10 dv=0 dx=0 dy=0 dh=0 dv=0
PairPos2: "'kern' Horizontal Kerning in Latin lookup 0 per glyph data 1" Aring dx=0 dy=0 dh=-10 dv=0 dx=0 dy=0 dh=0 dv=0
PairPos2: "'kern' Horizontal Kerning in Latin lookup 0 per glyph data 1" Aring dx=0 dy=0 dh=-10 dv=0 dx=0 dy=0 dh=0 dv=0
PairPos2: "'kern' Horizontal Kerning in Latin lookup 0 per glyph data 1" Aring dx=0 dy=0 dh=-10 dv=0 dx=0 dy=0 dh=0 dv=0
PairPos2: "'kern' Horizontal Kerning in Latin lookup 0 per glyph data 1" Adieresis dx=0 dy=0 dh=-10 dv=0 dx=0 dy=0 dh=0 dv=0
PairPos2: "'kern' Horizontal Kerning in Latin lookup 0 per glyph data 1" Adieresis dx=0 dy=0 dh=-10 dv=0 dx=0 dy=0 dh=0 dv=0
PairPos2: "'kern' Horizontal Kerning in Latin lookup 0 per glyph data 1" Adieresis dx=0 dy=0 dh=-10 dv=0 dx=0 dy=0 dh=0 dv=0
PairPos2: "'kern' Horizontal Kerning in Latin lookup 0 per glyph data 1" Adieresis dx=0 dy=0 dh=-10 dv=0 dx=0 dy=0 dh=0 dv=0
PairPos2: "'kern' Horizontal Kerning in Latin lookup 0 per glyph data 1" Adieresis dx=0 dy=0 dh=-10 dv=0 dx=0 dy=0 dh=0 dv=0
PairPos2: "'kern' Horizontal Kerning in Latin lookup 0 per glyph data 1" Adieresis dx=0 dy=0 dh=-10 dv=0 dx=0 dy=0 dh=0 dv=0
PairPos2: "'kern' Horizontal Kerning in Latin lookup 0 per glyph data 1" Atilde dx=0 dy=0 dh=-10 dv=0 dx=0 dy=0 dh=0 dv=0
PairPos2: "'kern' Horizontal Kerning in Latin lookup 0 per glyph data 1" Atilde dx=0 dy=0 dh=-10 dv=0 dx=0 dy=0 dh=0 dv=0
PairPos2: "'kern' Horizontal Kerning in Latin lookup 0 per glyph data 1" Atilde dx=0 dy=0 dh=-10 dv=0 dx=0 dy=0 dh=0 dv=0
PairPos2: "'kern' Horizontal Kerning in Latin lookup 0 per glyph data 1" Atilde dx=0 dy=0 dh=-10 dv=0 dx=0 dy=0 dh=0 dv=0
PairPos2: "'kern' Horizontal Kerning in Latin lookup 0 per glyph data 1" Atilde dx=0 dy=0 dh=-10 dv=0 dx=0 dy=0 dh=0 dv=0
PairPos2: "'kern' Horizontal Kerning in Latin lookup 0 per glyph data 1" Atilde dx=0 dy=0 dh=-10 dv=0 dx=0 dy=0 dh=0 dv=0
PairPos2: "'kern' Horizontal Kerning in Latin lookup 0 per glyph data 1" Acircumflex dx=0 dy=0 dh=-10 dv=0 dx=0 dy=0 dh=0 dv=0
PairPos2: "'kern' Horizontal Kerning in Latin lookup 0 per glyph data 1" Acircumflex dx=0 dy=0 dh=-10 dv=0 dx=0 dy=0 dh=0 dv=0
PairPos2: "'kern' Horizontal Kerning in Latin lookup 0 per glyph data 1" Acircumflex dx=0 dy=0 dh=-10 dv=0 dx=0 dy=0 dh=0 dv=0
PairPos2: "'kern' Horizontal Kerning in Latin lookup 0 per glyph data 1" Acircumflex dx=0 dy=0 dh=-10 dv=0 dx=0 dy=0 dh=0 dv=0
PairPos2: "'kern' Horizontal Kerning in Latin lookup 0 per glyph data 1" Acircumflex dx=0 dy=0 dh=-10 dv=0 dx=0 dy=0 dh=0 dv=0
PairPos2: "'kern' Horizontal Kerning in Latin lookup 0 per glyph data 1" Acircumflex dx=0 dy=0 dh=-10 dv=0 dx=0 dy=0 dh=0 dv=0
PairPos2: "'kern' Horizontal Kerning in Latin lookup 0 per glyph data 1" Aacute dx=0 dy=0 dh=-10 dv=0 dx=0 dy=0 dh=0 dv=0
PairPos2: "'kern' Horizontal Kerning in Latin lookup 0 per glyph data 1" Aacute dx=0 dy=0 dh=-10 dv=0 dx=0 dy=0 dh=0 dv=0
PairPos2: "'kern' Horizontal Kerning in Latin lookup 0 per glyph data 1" Aacute dx=0 dy=0 dh=-10 dv=0 dx=0 dy=0 dh=0 dv=0
PairPos2: "'kern' Horizontal Kerning in Latin lookup 0 per glyph data 1" Aacute dx=0 dy=0 dh=-10 dv=0 dx=0 dy=0 dh=0 dv=0
PairPos2: "'kern' Horizontal Kerning in Latin lookup 0 per glyph data 1" Aacute dx=0 dy=0 dh=-10 dv=0 dx=0 dy=0 dh=0 dv=0
PairPos2: "'kern' Horizontal Kerning in Latin lookup 0 per glyph data 1" Aacute dx=0 dy=0 dh=-10 dv=0 dx=0 dy=0 dh=0 dv=0
PairPos2: "'kern' Horizontal Kerning in Latin lookup 0 per glyph data 1" Agrave dx=0 dy=0 dh=-10 dv=0 dx=0 dy=0 dh=0 dv=0
PairPos2: "'kern' Horizontal Kerning in Latin lookup 0 per glyph data 1" Agrave dx=0 dy=0 dh=-10 dv=0 dx=0 dy=0 dh=0 dv=0
PairPos2: "'kern' Horizontal Kerning in Latin lookup 0 per glyph data 1" Agrave dx=0 dy=0 dh=-10 dv=0 dx=0 dy=0 dh=0 dv=0
PairPos2: "'kern' Horizontal Kerning in Latin lookup 0 per glyph data 1" Agrave dx=0 dy=0 dh=-10 dv=0 dx=0 dy=0 dh=0 dv=0
PairPos2: "'kern' Horizontal Kerning in Latin lookup 0 per glyph data 1" Agrave dx=0 dy=0 dh=-10 dv=0 dx=0 dy=0 dh=0 dv=0
PairPos2: "'kern' Horizontal Kerning in Latin lookup 0 per glyph data 1" Agrave dx=0 dy=0 dh=-10 dv=0 dx=0 dy=0 dh=0 dv=0
PairPos2: "'kern' Horizontal Kerning in Latin lookup 0 per glyph data 1" copyright dx=0 dy=0 dh=31 dv=0 dx=0 dy=0 dh=0 dv=0
PairPos2: "'kern' Horizontal Kerning in Latin lookup 0 per glyph data 1" copyright dx=0 dy=0 dh=31 dv=0 dx=0 dy=0 dh=0 dv=0
PairPos2: "'kern' Horizontal Kerning in Latin lookup 0 per glyph data 1" copyright dx=0 dy=0 dh=31 dv=0 dx=0 dy=0 dh=0 dv=0
PairPos2: "'kern' Horizontal Kerning in Latin lookup 0 per glyph data 1" copyright dx=0 dy=0 dh=31 dv=0 dx=0 dy=0 dh=0 dv=0
PairPos2: "'kern' Horizontal Kerning in Latin lookup 0 per glyph data 1" copyright dx=0 dy=0 dh=31 dv=0 dx=0 dy=0 dh=0 dv=0
PairPos2: "'kern' Horizontal Kerning in Latin lookup 0 per glyph data 1" copyright dx=0 dy=0 dh=31 dv=0 dx=0 dy=0 dh=0 dv=0
PairPos2: "'kern' Horizontal Kerning in Latin lookup 0 per glyph data 1" z dx=0 dy=0 dh=-10 dv=0 dx=0 dy=0 dh=0 dv=0
PairPos2: "'kern' Horizontal Kerning in Latin lookup 0 per glyph data 1" z dx=0 dy=0 dh=-10 dv=0 dx=0 dy=0 dh=0 dv=0
PairPos2: "'kern' Horizontal Kerning in Latin lookup 0 per glyph data 1" z dx=0 dy=0 dh=-10 dv=0 dx=0 dy=0 dh=0 dv=0
PairPos2: "'kern' Horizontal Kerning in Latin lookup 0 per glyph data 1" z dx=0 dy=0 dh=-10 dv=0 dx=0 dy=0 dh=0 dv=0
PairPos2: "'kern' Horizontal Kerning in Latin lookup 0 per glyph data 1" z dx=0 dy=0 dh=-10 dv=0 dx=0 dy=0 dh=0 dv=0
PairPos2: "'kern' Horizontal Kerning in Latin lookup 0 per glyph data 1" z dx=0 dy=0 dh=-10 dv=0 dx=0 dy=0 dh=0 dv=0
PairPos2: "'kern' Horizontal Kerning in Latin lookup 0 per glyph data 1" y dx=0 dy=0 dh=-113 dv=0 dx=0 dy=0 dh=0 dv=0
PairPos2: "'kern' Horizontal Kerning in Latin lookup 0 per glyph data 1" y dx=0 dy=0 dh=-113 dv=0 dx=0 dy=0 dh=0 dv=0
PairPos2: "'kern' Horizontal Kerning in Latin lookup 0 per glyph data 1" y dx=0 dy=0 dh=-113 dv=0 dx=0 dy=0 dh=0 dv=0
PairPos2: "'kern' Horizontal Kerning in Latin lookup 0 per glyph data 1" y dx=0 dy=0 dh=-113 dv=0 dx=0 dy=0 dh=0 dv=0
PairPos2: "'kern' Horizontal Kerning in Latin lookup 0 per glyph data 1" y dx=0 dy=0 dh=-113 dv=0 dx=0 dy=0 dh=0 dv=0
PairPos2: "'kern' Horizontal Kerning in Latin lookup 0 per glyph data 1" y dx=0 dy=0 dh=-113 dv=0 dx=0 dy=0 dh=0 dv=0
PairPos2: "'kern' Horizontal Kerning in Latin lookup 0 per glyph data 1" x dx=0 dy=0 dh=-10 dv=0 dx=0 dy=0 dh=0 dv=0
PairPos2: "'kern' Horizontal Kerning in Latin lookup 0 per glyph data 1" x dx=0 dy=0 dh=-10 dv=0 dx=0 dy=0 dh=0 dv=0
PairPos2: "'kern' Horizontal Kerning in Latin lookup 0 per glyph data 1" x dx=0 dy=0 dh=-10 dv=0 dx=0 dy=0 dh=0 dv=0
PairPos2: "'kern' Horizontal Kerning in Latin lookup 0 per glyph data 1" x dx=0 dy=0 dh=-10 dv=0 dx=0 dy=0 dh=0 dv=0
PairPos2: "'kern' Horizontal Kerning in Latin lookup 0 per glyph data 1" x dx=0 dy=0 dh=-10 dv=0 dx=0 dy=0 dh=0 dv=0
PairPos2: "'kern' Horizontal Kerning in Latin lookup 0 per glyph data 1" x dx=0 dy=0 dh=-10 dv=0 dx=0 dy=0 dh=0 dv=0
PairPos2: "'kern' Horizontal Kerning in Latin lookup 0 per glyph data 1" w dx=0 dy=0 dh=-61 dv=0 dx=0 dy=0 dh=0 dv=0
PairPos2: "'kern' Horizontal Kerning in Latin lookup 0 per glyph data 1" w dx=0 dy=0 dh=-61 dv=0 dx=0 dy=0 dh=0 dv=0
PairPos2: "'kern' Horizontal Kerning in Latin lookup 0 per glyph data 1" w dx=0 dy=0 dh=-61 dv=0 dx=0 dy=0 dh=0 dv=0
PairPos2: "'kern' Horizontal Kerning in Latin lookup 0 per glyph data 1" w dx=0 dy=0 dh=-61 dv=0 dx=0 dy=0 dh=0 dv=0
PairPos2: "'kern' Horizontal Kerning in Latin lookup 0 per glyph data 1" w dx=0 dy=0 dh=-61 dv=0 dx=0 dy=0 dh=0 dv=0
PairPos2: "'kern' Horizontal Kerning in Latin lookup 0 per glyph data 1" w dx=0 dy=0 dh=-61 dv=0 dx=0 dy=0 dh=0 dv=0
PairPos2: "'kern' Horizontal Kerning in Latin lookup 0 per glyph data 1" v dx=0 dy=0 dh=-61 dv=0 dx=0 dy=0 dh=0 dv=0
PairPos2: "'kern' Horizontal Kerning in Latin lookup 0 per glyph data 1" v dx=0 dy=0 dh=-61 dv=0 dx=0 dy=0 dh=0 dv=0
PairPos2: "'kern' Horizontal Kerning in Latin lookup 0 per glyph data 1" v dx=0 dy=0 dh=-61 dv=0 dx=0 dy=0 dh=0 dv=0
PairPos2: "'kern' Horizontal Kerning in Latin lookup 0 per glyph data 1" v dx=0 dy=0 dh=-61 dv=0 dx=0 dy=0 dh=0 dv=0
PairPos2: "'kern' Horizontal Kerning in Latin lookup 0 per glyph data 1" v dx=0 dy=0 dh=-61 dv=0 dx=0 dy=0 dh=0 dv=0
PairPos2: "'kern' Horizontal Kerning in Latin lookup 0 per glyph data 1" v dx=0 dy=0 dh=-61 dv=0 dx=0 dy=0 dh=0 dv=0
PairPos2: "'kern' Horizontal Kerning in Latin lookup 0 per glyph data 1" u dx=0 dy=0 dh=-20 dv=0 dx=0 dy=0 dh=0 dv=0
PairPos2: "'kern' Horizontal Kerning in Latin lookup 0 per glyph data 1" u dx=0 dy=0 dh=-20 dv=0 dx=0 dy=0 dh=0 dv=0
PairPos2: "'kern' Horizontal Kerning in Latin lookup 0 per glyph data 1" u dx=0 dy=0 dh=-20 dv=0 dx=0 dy=0 dh=0 dv=0
PairPos2: "'kern' Horizontal Kerning in Latin lookup 0 per glyph data 1" u dx=0 dy=0 dh=-20 dv=0 dx=0 dy=0 dh=0 dv=0
PairPos2: "'kern' Horizontal Kerning in Latin lookup 0 per glyph data 1" u dx=0 dy=0 dh=-20 dv=0 dx=0 dy=0 dh=0 dv=0
PairPos2: "'kern' Horizontal Kerning in Latin lookup 0 per glyph data 1" u dx=0 dy=0 dh=-20 dv=0 dx=0 dy=0 dh=0 dv=0
PairPos2: "'kern' Horizontal Kerning in Latin lookup 0 per glyph data 1" t dx=0 dy=0 dh=-20 dv=0 dx=0 dy=0 dh=0 dv=0
PairPos2: "'kern' Horizontal Kerning in Latin lookup 0 per glyph data 1" t dx=0 dy=0 dh=-20 dv=0 dx=0 dy=0 dh=0 dv=0
PairPos2: "'kern' Horizontal Kerning in Latin lookup 0 per glyph data 1" t dx=0 dy=0 dh=-20 dv=0 dx=0 dy=0 dh=0 dv=0
PairPos2: "'kern' Horizontal Kerning in Latin lookup 0 per glyph data 1" t dx=0 dy=0 dh=-20 dv=0 dx=0 dy=0 dh=0 dv=0
PairPos2: "'kern' Horizontal Kerning in Latin lookup 0 per glyph data 1" t dx=0 dy=0 dh=-20 dv=0 dx=0 dy=0 dh=0 dv=0
PairPos2: "'kern' Horizontal Kerning in Latin lookup 0 per glyph data 1" t dx=0 dy=0 dh=-20 dv=0 dx=0 dy=0 dh=0 dv=0
PairPos2: "'kern' Horizontal Kerning in Latin lookup 0 per glyph data 1" s dx=0 dy=0 dh=-20 dv=0 dx=0 dy=0 dh=0 dv=0
PairPos2: "'kern' Horizontal Kerning in Latin lookup 0 per glyph data 1" s dx=0 dy=0 dh=-20 dv=0 dx=0 dy=0 dh=0 dv=0
PairPos2: "'kern' Horizontal Kerning in Latin lookup 0 per glyph data 1" s dx=0 dy=0 dh=-20 dv=0 dx=0 dy=0 dh=0 dv=0
PairPos2: "'kern' Horizontal Kerning in Latin lookup 0 per glyph data 1" s dx=0 dy=0 dh=-20 dv=0 dx=0 dy=0 dh=0 dv=0
PairPos2: "'kern' Horizontal Kerning in Latin lookup 0 per glyph data 1" s dx=0 dy=0 dh=-20 dv=0 dx=0 dy=0 dh=0 dv=0
PairPos2: "'kern' Horizontal Kerning in Latin lookup 0 per glyph data 1" s dx=0 dy=0 dh=-20 dv=0 dx=0 dy=0 dh=0 dv=0
PairPos2: "'kern' Horizontal Kerning in Latin lookup 0 per glyph data 1" r dx=0 dy=0 dh=-10 dv=0 dx=0 dy=0 dh=0 dv=0
PairPos2: "'kern' Horizontal Kerning in Latin lookup 0 per glyph data 1" r dx=0 dy=0 dh=-10 dv=0 dx=0 dy=0 dh=0 dv=0
PairPos2: "'kern' Horizontal Kerning in Latin lookup 0 per glyph data 1" r dx=0 dy=0 dh=-10 dv=0 dx=0 dy=0 dh=0 dv=0
PairPos2: "'kern' Horizontal Kerning in Latin lookup 0 per glyph data 1" r dx=0 dy=0 dh=-10 dv=0 dx=0 dy=0 dh=0 dv=0
PairPos2: "'kern' Horizontal Kerning in Latin lookup 0 per glyph data 1" r dx=0 dy=0 dh=-10 dv=0 dx=0 dy=0 dh=0 dv=0
PairPos2: "'kern' Horizontal Kerning in Latin lookup 0 per glyph data 1" r dx=0 dy=0 dh=-10 dv=0 dx=0 dy=0 dh=0 dv=0
PairPos2: "'kern' Horizontal Kerning in Latin lookup 0 per glyph data 1" p dx=0 dy=0 dh=-10 dv=0 dx=0 dy=0 dh=0 dv=0
PairPos2: "'kern' Horizontal Kerning in Latin lookup 0 per glyph data 1" p dx=0 dy=0 dh=-10 dv=0 dx=0 dy=0 dh=0 dv=0
PairPos2: "'kern' Horizontal Kerning in Latin lookup 0 per glyph data 1" p dx=0 dy=0 dh=-10 dv=0 dx=0 dy=0 dh=0 dv=0
PairPos2: "'kern' Horizontal Kerning in Latin lookup 0 per glyph data 1" p dx=0 dy=0 dh=-10 dv=0 dx=0 dy=0 dh=0 dv=0
PairPos2: "'kern' Horizontal Kerning in Latin lookup 0 per glyph data 1" p dx=0 dy=0 dh=-10 dv=0 dx=0 dy=0 dh=0 dv=0
PairPos2: "'kern' Horizontal Kerning in Latin lookup 0 per glyph data 1" p dx=0 dy=0 dh=-10 dv=0 dx=0 dy=0 dh=0 dv=0
PairPos2: "'kern' Horizontal Kerning in Latin lookup 0 per glyph data 1" n dx=0 dy=0 dh=-10 dv=0 dx=0 dy=0 dh=0 dv=0
PairPos2: "'kern' Horizontal Kerning in Latin lookup 0 per glyph data 1" n dx=0 dy=0 dh=-10 dv=0 dx=0 dy=0 dh=0 dv=0
PairPos2: "'kern' Horizontal Kerning in Latin lookup 0 per glyph data 1" n dx=0 dy=0 dh=-10 dv=0 dx=0 dy=0 dh=0 dv=0
PairPos2: "'kern' Horizontal Kerning in Latin lookup 0 per glyph data 1" n dx=0 dy=0 dh=-10 dv=0 dx=0 dy=0 dh=0 dv=0
PairPos2: "'kern' Horizontal Kerning in Latin lookup 0 per glyph data 1" n dx=0 dy=0 dh=-10 dv=0 dx=0 dy=0 dh=0 dv=0
PairPos2: "'kern' Horizontal Kerning in Latin lookup 0 per glyph data 1" n dx=0 dy=0 dh=-10 dv=0 dx=0 dy=0 dh=0 dv=0
PairPos2: "'kern' Horizontal Kerning in Latin lookup 0 per glyph data 1" m dx=0 dy=0 dh=-10 dv=0 dx=0 dy=0 dh=0 dv=0
PairPos2: "'kern' Horizontal Kerning in Latin lookup 0 per glyph data 1" m dx=0 dy=0 dh=-10 dv=0 dx=0 dy=0 dh=0 dv=0
PairPos2: "'kern' Horizontal Kerning in Latin lookup 0 per glyph data 1" m dx=0 dy=0 dh=-10 dv=0 dx=0 dy=0 dh=0 dv=0
PairPos2: "'kern' Horizontal Kerning in Latin lookup 0 per glyph data 1" m dx=0 dy=0 dh=-10 dv=0 dx=0 dy=0 dh=0 dv=0
PairPos2: "'kern' Horizontal Kerning in Latin lookup 0 per glyph data 1" m dx=0 dy=0 dh=-10 dv=0 dx=0 dy=0 dh=0 dv=0
PairPos2: "'kern' Horizontal Kerning in Latin lookup 0 per glyph data 1" m dx=0 dy=0 dh=-10 dv=0 dx=0 dy=0 dh=0 dv=0
PairPos2: "'kern' Horizontal Kerning in Latin lookup 0 per glyph data 1" l dx=0 dy=0 dh=-10 dv=0 dx=0 dy=0 dh=0 dv=0
PairPos2: "'kern' Horizontal Kerning in Latin lookup 0 per glyph data 1" l dx=0 dy=0 dh=-10 dv=0 dx=0 dy=0 dh=0 dv=0
PairPos2: "'kern' Horizontal Kerning in Latin lookup 0 per glyph data 1" l dx=0 dy=0 dh=-10 dv=0 dx=0 dy=0 dh=0 dv=0
PairPos2: "'kern' Horizontal Kerning in Latin lookup 0 per glyph data 1" l dx=0 dy=0 dh=-10 dv=0 dx=0 dy=0 dh=0 dv=0
PairPos2: "'kern' Horizontal Kerning in Latin lookup 0 per glyph data 1" l dx=0 dy=0 dh=-10 dv=0 dx=0 dy=0 dh=0 dv=0
PairPos2: "'kern' Horizontal Kerning in Latin lookup 0 per glyph data 1" l dx=0 dy=0 dh=-10 dv=0 dx=0 dy=0 dh=0 dv=0
PairPos2: "'kern' Horizontal Kerning in Latin lookup 0 per glyph data 1" k dx=0 dy=0 dh=-10 dv=0 dx=0 dy=0 dh=0 dv=0
PairPos2: "'kern' Horizontal Kerning in Latin lookup 0 per glyph data 1" k dx=0 dy=0 dh=-10 dv=0 dx=0 dy=0 dh=0 dv=0
PairPos2: "'kern' Horizontal Kerning in Latin lookup 0 per glyph data 1" k dx=0 dy=0 dh=-10 dv=0 dx=0 dy=0 dh=0 dv=0
PairPos2: "'kern' Horizontal Kerning in Latin lookup 0 per glyph data 1" k dx=0 dy=0 dh=-10 dv=0 dx=0 dy=0 dh=0 dv=0
PairPos2: "'kern' Horizontal Kerning in Latin lookup 0 per glyph data 1" k dx=0 dy=0 dh=-10 dv=0 dx=0 dy=0 dh=0 dv=0
PairPos2: "'kern' Horizontal Kerning in Latin lookup 0 per glyph data 1" k dx=0 dy=0 dh=-10 dv=0 dx=0 dy=0 dh=0 dv=0
PairPos2: "'kern' Horizontal Kerning in Latin lookup 0 per glyph data 1" i dx=0 dy=0 dh=-10 dv=0 dx=0 dy=0 dh=0 dv=0
PairPos2: "'kern' Horizontal Kerning in Latin lookup 0 per glyph data 1" i dx=0 dy=0 dh=-10 dv=0 dx=0 dy=0 dh=0 dv=0
PairPos2: "'kern' Horizontal Kerning in Latin lookup 0 per glyph data 1" i dx=0 dy=0 dh=-10 dv=0 dx=0 dy=0 dh=0 dv=0
PairPos2: "'kern' Horizontal Kerning in Latin lookup 0 per glyph data 1" i dx=0 dy=0 dh=-10 dv=0 dx=0 dy=0 dh=0 dv=0
PairPos2: "'kern' Horizontal Kerning in Latin lookup 0 per glyph data 1" i dx=0 dy=0 dh=-10 dv=0 dx=0 dy=0 dh=0 dv=0
PairPos2: "'kern' Horizontal Kerning in Latin lookup 0 per glyph data 1" i dx=0 dy=0 dh=-10 dv=0 dx=0 dy=0 dh=0 dv=0
PairPos2: "'kern' Horizontal Kerning in Latin lookup 0 per glyph data 1" h dx=0 dy=0 dh=-10 dv=0 dx=0 dy=0 dh=0 dv=0
PairPos2: "'kern' Horizontal Kerning in Latin lookup 0 per glyph data 1" h dx=0 dy=0 dh=-10 dv=0 dx=0 dy=0 dh=0 dv=0
PairPos2: "'kern' Horizontal Kerning in Latin lookup 0 per glyph data 1" h dx=0 dy=0 dh=-10 dv=0 dx=0 dy=0 dh=0 dv=0
PairPos2: "'kern' Horizontal Kerning in Latin lookup 0 per glyph data 1" h dx=0 dy=0 dh=-10 dv=0 dx=0 dy=0 dh=0 dv=0
PairPos2: "'kern' Horizontal Kerning in Latin lookup 0 per glyph data 1" h dx=0 dy=0 dh=-10 dv=0 dx=0 dy=0 dh=0 dv=0
PairPos2: "'kern' Horizontal Kerning in Latin lookup 0 per glyph data 1" h dx=0 dy=0 dh=-10 dv=0 dx=0 dy=0 dh=0 dv=0
PairPos2: "'kern' Horizontal Kerning in Latin lookup 0 per glyph data 1" e dx=0 dy=0 dh=-10 dv=0 dx=0 dy=0 dh=0 dv=0
PairPos2: "'kern' Horizontal Kerning in Latin lookup 0 per glyph data 1" e dx=0 dy=0 dh=-10 dv=0 dx=0 dy=0 dh=0 dv=0
PairPos2: "'kern' Horizontal Kerning in Latin lookup 0 per glyph data 1" e dx=0 dy=0 dh=-10 dv=0 dx=0 dy=0 dh=0 dv=0
PairPos2: "'kern' Horizontal Kerning in Latin lookup 0 per glyph data 1" e dx=0 dy=0 dh=-10 dv=0 dx=0 dy=0 dh=0 dv=0
PairPos2: "'kern' Horizontal Kerning in Latin lookup 0 per glyph data 1" e dx=0 dy=0 dh=-10 dv=0 dx=0 dy=0 dh=0 dv=0
PairPos2: "'kern' Horizontal Kerning in Latin lookup 0 per glyph data 1" e dx=0 dy=0 dh=-10 dv=0 dx=0 dy=0 dh=0 dv=0
PairPos2: "'kern' Horizontal Kerning in Latin lookup 0 per glyph data 1" d dx=0 dy=0 dh=-10 dv=0 dx=0 dy=0 dh=0 dv=0
PairPos2: "'kern' Horizontal Kerning in Latin lookup 0 per glyph data 1" d dx=0 dy=0 dh=-10 dv=0 dx=0 dy=0 dh=0 dv=0
PairPos2: "'kern' Horizontal Kerning in Latin lookup 0 per glyph data 1" d dx=0 dy=0 dh=-10 dv=0 dx=0 dy=0 dh=0 dv=0
PairPos2: "'kern' Horizontal Kerning in Latin lookup 0 per glyph data 1" d dx=0 dy=0 dh=-10 dv=0 dx=0 dy=0 dh=0 dv=0
PairPos2: "'kern' Horizontal Kerning in Latin lookup 0 per glyph data 1" d dx=0 dy=0 dh=-10 dv=0 dx=0 dy=0 dh=0 dv=0
PairPos2: "'kern' Horizontal Kerning in Latin lookup 0 per glyph data 1" d dx=0 dy=0 dh=-10 dv=0 dx=0 dy=0 dh=0 dv=0
PairPos2: "'kern' Horizontal Kerning in Latin lookup 0 per glyph data 1" b dx=0 dy=0 dh=-10 dv=0 dx=0 dy=0 dh=0 dv=0
PairPos2: "'kern' Horizontal Kerning in Latin lookup 0 per glyph data 1" b dx=0 dy=0 dh=-10 dv=0 dx=0 dy=0 dh=0 dv=0
PairPos2: "'kern' Horizontal Kerning in Latin lookup 0 per glyph data 1" b dx=0 dy=0 dh=-10 dv=0 dx=0 dy=0 dh=0 dv=0
PairPos2: "'kern' Horizontal Kerning in Latin lookup 0 per glyph data 1" b dx=0 dy=0 dh=-10 dv=0 dx=0 dy=0 dh=0 dv=0
PairPos2: "'kern' Horizontal Kerning in Latin lookup 0 per glyph data 1" b dx=0 dy=0 dh=-10 dv=0 dx=0 dy=0 dh=0 dv=0
PairPos2: "'kern' Horizontal Kerning in Latin lookup 0 per glyph data 1" b dx=0 dy=0 dh=-10 dv=0 dx=0 dy=0 dh=0 dv=0
PairPos2: "'kern' Horizontal Kerning in Latin lookup 0 per glyph data 1" a dx=0 dy=0 dh=-10 dv=0 dx=0 dy=0 dh=0 dv=0
PairPos2: "'kern' Horizontal Kerning in Latin lookup 0 per glyph data 1" a dx=0 dy=0 dh=-10 dv=0 dx=0 dy=0 dh=0 dv=0
PairPos2: "'kern' Horizontal Kerning in Latin lookup 0 per glyph data 1" a dx=0 dy=0 dh=-10 dv=0 dx=0 dy=0 dh=0 dv=0
PairPos2: "'kern' Horizontal Kerning in Latin lookup 0 per glyph data 1" a dx=0 dy=0 dh=-10 dv=0 dx=0 dy=0 dh=0 dv=0
PairPos2: "'kern' Horizontal Kerning in Latin lookup 0 per glyph data 1" a dx=0 dy=0 dh=-10 dv=0 dx=0 dy=0 dh=0 dv=0
PairPos2: "'kern' Horizontal Kerning in Latin lookup 0 per glyph data 1" a dx=0 dy=0 dh=-10 dv=0 dx=0 dy=0 dh=0 dv=0
PairPos2: "'kern' Horizontal Kerning in Latin lookup 0 per glyph data 1" Y dx=0 dy=0 dh=-92 dv=0 dx=0 dy=0 dh=0 dv=0
PairPos2: "'kern' Horizontal Kerning in Latin lookup 0 per glyph data 1" Y dx=0 dy=0 dh=-92 dv=0 dx=0 dy=0 dh=0 dv=0
PairPos2: "'kern' Horizontal Kerning in Latin lookup 0 per glyph data 1" Y dx=0 dy=0 dh=-92 dv=0 dx=0 dy=0 dh=0 dv=0
PairPos2: "'kern' Horizontal Kerning in Latin lookup 0 per glyph data 1" Y dx=0 dy=0 dh=-92 dv=0 dx=0 dy=0 dh=0 dv=0
PairPos2: "'kern' Horizontal Kerning in Latin lookup 0 per glyph data 1" Y dx=0 dy=0 dh=-92 dv=0 dx=0 dy=0 dh=0 dv=0
PairPos2: "'kern' Horizontal Kerning in Latin lookup 0 per glyph data 1" Y dx=0 dy=0 dh=-92 dv=0 dx=0 dy=0 dh=0 dv=0
PairPos2: "'kern' Horizontal Kerning in Latin lookup 0 per glyph data 1" W dx=0 dy=0 dh=-72 dv=0 dx=0 dy=0 dh=0 dv=0
PairPos2: "'kern' Horizontal Kerning in Latin lookup 0 per glyph data 1" W dx=0 dy=0 dh=-72 dv=0 dx=0 dy=0 dh=0 dv=0
PairPos2: "'kern' Horizontal Kerning in Latin lookup 0 per glyph data 1" W dx=0 dy=0 dh=-72 dv=0 dx=0 dy=0 dh=0 dv=0
PairPos2: "'kern' Horizontal Kerning in Latin lookup 0 per glyph data 1" W dx=0 dy=0 dh=-72 dv=0 dx=0 dy=0 dh=0 dv=0
PairPos2: "'kern' Horizontal Kerning in Latin lookup 0 per glyph data 1" W dx=0 dy=0 dh=-72 dv=0 dx=0 dy=0 dh=0 dv=0
PairPos2: "'kern' Horizontal Kerning in Latin lookup 0 per glyph data 1" W dx=0 dy=0 dh=-72 dv=0 dx=0 dy=0 dh=0 dv=0
PairPos2: "'kern' Horizontal Kerning in Latin lookup 0 per glyph data 1" V dx=0 dy=0 dh=-72 dv=0 dx=0 dy=0 dh=0 dv=0
PairPos2: "'kern' Horizontal Kerning in Latin lookup 0 per glyph data 1" V dx=0 dy=0 dh=-72 dv=0 dx=0 dy=0 dh=0 dv=0
PairPos2: "'kern' Horizontal Kerning in Latin lookup 0 per glyph data 1" V dx=0 dy=0 dh=-72 dv=0 dx=0 dy=0 dh=0 dv=0
PairPos2: "'kern' Horizontal Kerning in Latin lookup 0 per glyph data 1" V dx=0 dy=0 dh=-72 dv=0 dx=0 dy=0 dh=0 dv=0
PairPos2: "'kern' Horizontal Kerning in Latin lookup 0 per glyph data 1" V dx=0 dy=0 dh=-72 dv=0 dx=0 dy=0 dh=0 dv=0
PairPos2: "'kern' Horizontal Kerning in Latin lookup 0 per glyph data 1" V dx=0 dy=0 dh=-72 dv=0 dx=0 dy=0 dh=0 dv=0
PairPos2: "'kern' Horizontal Kerning in Latin lookup 0 per glyph data 1" A dx=0 dy=0 dh=-10 dv=0 dx=0 dy=0 dh=0 dv=0
PairPos2: "'kern' Horizontal Kerning in Latin lookup 0 per glyph data 1" A dx=0 dy=0 dh=-10 dv=0 dx=0 dy=0 dh=0 dv=0
PairPos2: "'kern' Horizontal Kerning in Latin lookup 0 per glyph data 1" A dx=0 dy=0 dh=-10 dv=0 dx=0 dy=0 dh=0 dv=0
PairPos2: "'kern' Horizontal Kerning in Latin lookup 0 per glyph data 1" A dx=0 dy=0 dh=-10 dv=0 dx=0 dy=0 dh=0 dv=0
PairPos2: "'kern' Horizontal Kerning in Latin lookup 0 per glyph data 1" A dx=0 dy=0 dh=-10 dv=0 dx=0 dy=0 dh=0 dv=0
PairPos2: "'kern' Horizontal Kerning in Latin lookup 0 per glyph data 1" A dx=0 dy=0 dh=-10 dv=0 dx=0 dy=0 dh=0 dv=0
EndChar

StartChar: H
Encoding: 72 72 44
Width: 1443
GlyphClass: 2
Flags: W
LayerCount: 2
Fore
SplineSet
92 0 m 1,0,-1
 92 8 l 1,1,-1
 205 78 l 1,2,-1
 205 1364 l 1,3,-1
 92 1425 l 1,4,-1
 92 1434 l 1,5,-1
 641 1434 l 1,6,-1
 641 1425 l 1,7,-1
 512 1364 l 1,8,-1
 512 834 l 1,9,-1
 932 834 l 1,10,-1
 932 1180 l 2,11,12
 932 1248 932 1248 923.5 1293.5 c 128,-1,13
 915 1339 915 1339 895.5 1364.5 c 128,-1,14
 876 1390 876 1390 856 1402 c 128,-1,15
 836 1414 836 1414 803 1425 c 1,16,-1
 803 1434 l 1,17,-1
 1352 1434 l 1,18,-1
 1352 1425 l 1,19,-1
 1239 1364 l 1,20,-1
 1239 78 l 1,21,-1
 1352 8 l 1,22,-1
 1352 0 l 1,23,-1
 803 0 l 1,24,-1
 803 8 l 1,25,-1
 932 78 l 1,26,-1
 932 801 l 1,27,-1
 776 680 l 1,28,-1
 512 680 l 1,29,-1
 512 254 l 2,30,31
 512 186 512 186 520.5 140.5 c 128,-1,32
 529 95 529 95 548.5 69 c 128,-1,33
 568 43 568 43 588 31 c 128,-1,34
 608 19 608 19 641 8 c 1,35,-1
 641 0 l 1,36,-1
 92 0 l 1,0,-1
EndSplineSet
Validated: 1
Substitution2: "Single Substitution lookup 7 subtable" h
Position2: "'cpsp' Capital Spacing in Latin lookup 1 subtable" dx=16 dy=0 dh=16 dv=0
EndChar

StartChar: I
Encoding: 73 73 45
Width: 716
GlyphClass: 2
Flags: W
LayerCount: 2
Fore
SplineSet
92 0 m 1,0,-1
 92 8 l 1,1,-1
 205 78 l 1,2,-1
 205 1356 l 1,3,-1
 92 1425 l 1,4,-1
 92 1434 l 1,5,-1
 625 1434 l 1,6,-1
 625 1425 l 1,7,-1
 512 1356 l 1,8,-1
 512 78 l 1,9,-1
 625 8 l 1,10,-1
 625 0 l 1,11,-1
 92 0 l 1,0,-1
EndSplineSet
Validated: 1
Substitution2: "Single Substitution lookup 7 subtable" i
Position2: "'cpsp' Capital Spacing in Latin lookup 1 subtable" dx=16 dy=0 dh=16 dv=0
EndChar

